<svg width="25" height="29" viewBox="0 0 25 29" fill="none" xmlns="http://www.w3.org/2000/svg">
<path fill-rule="evenodd" clip-rule="evenodd" d="M4.6875 5C4.6875 2.23858 6.92608 0 9.6875 0H15.3125C18.0739 0 20.3125 2.23858 20.3125 5V11.9412H23C24.1046 11.9412 25 12.8366 25 13.9412V27C25 28.1046 24.1046 29 23 29H2C0.89543 29 0 28.1046 0 27V13.9412C0 12.8366 0.895431 11.9412 2 11.9412H4.6875V5ZM10.8125 3.41176C9.15565 3.41176 7.8125 4.75491 7.8125 6.41176V11.9412H17.1875V6.41176C17.1875 4.75491 15.8444 3.41176 14.1875 3.41176H10.8125Z" fill="#E44173"/>
</svg>
