<svg width="564" height="403" viewBox="0 0 564 403" fill="none" xmlns="http://www.w3.org/2000/svg">
<path d="M146.031 283.267L182.246 277.667L180.403 190.726L205.568 184.637L203.253 154.901L109.232 164.62L111.988 200.94L137.246 194.89L146.031 283.267Z" fill="#E44173"/>
<path d="M539.699 109.521L474.875 138.657L494.473 149.972L469.171 198.514L434.661 101.138L457.092 92.5132L391.608 49.7246L371.685 125.368L396.91 115.665L444.397 220.367L443.186 283.238H484.292L484.726 221.842L528.296 169.499L546.877 180.23L539.699 109.521Z" fill="#E44173"/>
<path d="M184.42 291.064L116.972 300.184L120.124 329.497L138.435 326.048L146.136 384.738L172.071 379.892L168.952 320.591L187.296 317.39L184.42 291.064Z" fill="#E44173"/>
<path d="M191.532 301.143L202.703 385.076L228.638 380.235L224.232 295.032L191.532 301.143Z" fill="#E44173"/>
<path d="M281.62 337.554L268.88 296.218L236.785 297.467L235.536 383.759L264.386 382.884L264.513 342.422L274.375 377.263H285.365L298.226 338.302L297.978 386.63L326.454 385.381L332.197 293.721H298.605L281.62 337.554Z" fill="#E44173"/>
<path d="M332.939 379.933L386.366 386.534C387.235 382.071 388.133 377.626 389.061 373.2C389.989 368.774 390.906 364.313 391.811 359.818L380.937 358.217L365.618 355.956L367.565 347.029L386.19 349.146L390.37 330.197L371.96 327.48L373.726 319.779L400.128 322.282C401.03 318.461 401.863 314.669 402.625 310.907C403.388 307.144 404.18 303.349 405.002 299.521L348.044 291.149L332.939 379.933Z" fill="#E44173"/>
<path d="M107.522 225.087C105.909 221.546 103.583 218.376 100.69 215.774C97.7708 213.211 94.3666 211.261 90.6794 210.037C86.5808 208.692 82.271 208.107 77.9621 208.31C76.7761 208.303 75.5908 208.374 74.4143 208.525C72.9805 208.693 71.4257 208.845 69.7499 208.981C68.0997 209.113 66.389 209.179 64.6729 209.168C63.0797 209.173 61.4898 209.021 59.9259 208.717C58.6252 208.485 57.3882 207.98 56.2956 207.237C55.4187 206.572 54.8183 205.606 54.6092 204.525C54.4001 203.444 54.5971 202.324 55.1625 201.379C55.75 200.476 56.5413 199.722 57.4727 199.179C58.5549 198.55 59.7044 198.044 60.8995 197.672C62.1642 197.262 63.4494 196.919 64.7499 196.643C66.0297 196.372 67.26 196.165 68.4407 196.022C69.6123 195.879 70.5749 195.769 71.3285 195.697C75.5494 195.302 79.7997 195.341 84.0127 195.813C88.2689 196.266 92.4937 196.977 96.6639 197.942L96.5209 162.623C93.8138 161.647 91.0301 160.898 88.1986 160.384C85.2652 159.847 82.3055 159.465 79.3318 159.24C76.325 159.014 73.3085 158.944 70.2944 159.031C67.2801 159.119 64.3648 159.302 61.5486 159.581C55.2942 160.167 49.1797 161.782 43.4518 164.361C37.9031 166.826 32.8514 170.284 28.5454 174.564C24.3407 178.77 21.0619 183.808 18.9195 189.355C16.7193 194.999 15.9455 201.216 16.5983 208.008C17.0068 212.71 18.2785 217.297 20.3496 221.539C22.2525 225.459 24.9171 228.962 28.1879 231.841C31.433 234.659 35.2305 236.769 39.3374 238.035C43.7878 239.386 48.4659 239.82 53.0888 239.311L55.839 239.041C56.9886 238.926 58.2318 238.865 59.5684 238.849C60.905 238.832 62.2691 238.893 63.6773 239.019C64.9862 239.12 66.2786 239.374 67.5276 239.779C68.587 240.12 69.5619 240.683 70.3879 241.429C71.1496 242.134 71.6171 243.1 71.697 244.135C71.8083 244.818 71.7674 245.518 71.5773 246.183C71.3871 246.849 71.0524 247.464 70.5969 247.985C69.6458 248.985 68.49 249.767 67.2086 250.279C65.7953 250.856 64.318 251.263 62.8082 251.489C61.2644 251.728 59.9461 251.898 58.8533 252.001C52.923 252.556 46.9464 252.362 41.0646 251.423C35.2067 250.553 29.5069 248.833 24.145 246.319L23.804 282.248C26.3892 283.154 29.343 284.1 32.6653 285.086C35.9876 286.073 39.4273 286.958 42.9843 287.743C46.5486 288.528 50.0488 289.131 53.4848 289.553C56.5974 289.966 59.7457 290.04 62.8742 289.773C69.822 289.143 76.6361 287.474 83.0886 284.822C88.9903 282.424 94.3591 278.881 98.8861 274.399C103.306 269.94 106.654 264.534 108.677 258.59C110.841 252.43 111.537 245.407 110.767 237.523C110.401 233.223 109.304 229.017 107.522 225.087Z" fill="#E44173"/>
<path d="M257.973 280.12C268.06 280.19 277.961 277.404 286.532 272.083C290.595 269.544 294.296 266.465 297.533 262.93C300.798 259.384 303.599 255.436 305.866 251.181C308.176 246.832 309.939 242.213 311.113 237.43C312.34 232.45 312.951 227.339 312.934 222.21C312.934 213.776 311.59 206.132 308.902 199.278C306.429 192.68 302.549 186.699 297.533 181.749C292.517 176.8 286.485 173 279.854 170.615C272.945 168.012 265.3 166.712 256.917 166.715C251.885 166.686 246.878 167.416 242.065 168.882C237.456 170.287 233.063 172.323 229.013 174.933C224.994 177.535 221.336 180.655 218.133 184.212C214.899 187.79 212.117 191.751 209.849 196.006C205.2 204.765 202.773 214.532 202.781 224.449C202.759 229.465 203.416 234.46 204.733 239.3C205.992 243.947 207.827 248.419 210.195 252.611C212.522 256.726 215.38 260.517 218.694 263.888C222.005 267.261 225.753 270.177 229.838 272.556C233.98 274.978 238.417 276.858 243.039 278.15C247.902 279.495 252.928 280.158 257.973 280.12ZM240.437 223.58C240.425 221.113 240.836 218.663 241.653 216.335C242.418 214.129 243.611 212.096 245.162 210.351C246.701 208.645 248.573 207.273 250.663 206.319C252.963 205.302 255.458 204.799 257.973 204.845C260.435 204.798 262.868 205.381 265.041 206.539C267.052 207.626 268.81 209.126 270.2 210.939C271.623 212.822 272.698 214.944 273.374 217.205C274.104 219.548 274.475 221.989 274.474 224.443C274.482 226.95 274.073 229.441 273.264 231.814C272.498 234.103 271.322 236.233 269.793 238.101C268.29 239.923 266.415 241.403 264.293 242.441C261.992 243.538 259.466 244.083 256.917 244.031C254.412 244.087 251.939 243.457 249.766 242.21C247.724 241.009 245.964 239.383 244.607 237.441C243.201 235.432 242.145 233.201 241.482 230.84C240.798 228.481 240.446 226.037 240.437 223.58Z" fill="#E44173"/>
<path d="M410.216 226.612C412.532 223.872 414.426 220.802 415.837 217.504C417.223 214.177 418.114 210.665 418.483 207.08C418.888 202.98 418.862 198.848 418.406 194.753C417.673 187.562 415.61 181.409 412.218 176.294C408.935 171.282 404.594 167.05 399.501 163.895C394.254 160.693 388.46 158.489 382.411 157.394C376.048 156.203 369.547 155.938 363.109 156.607C358.852 157.044 354.706 157.566 350.673 158.175C346.639 158.784 342.68 159.565 338.797 160.518C334.887 161.47 331.031 162.633 327.246 164C323.308 165.425 319.451 167.066 315.695 168.917C316.018 175.566 316.452 182.146 316.998 188.659C317.545 195.171 318.095 201.739 318.649 208.362C319.635 221.508 320.665 234.596 321.74 247.624C322.814 260.653 323.867 273.737 324.897 286.876L361.993 283.086L359.903 247.041L370.568 245.606L387.587 281.013L425.639 269.462L401.388 234.968C404.616 232.501 407.575 229.7 410.216 226.612ZM378.863 209.055C377.798 211.228 376.265 213.138 374.374 214.649C372.394 216.223 370.163 217.452 367.774 218.285C365.356 219.161 362.84 219.737 360.282 220.001L358.214 220.21L356.338 187.977C357.356 187.582 358.4 187.256 359.463 187.003C360.564 186.747 361.681 186.563 362.807 186.453C365.119 186.162 367.467 186.349 369.704 187.003C371.631 187.591 373.401 188.602 374.886 189.962C376.364 191.35 377.543 193.026 378.351 194.885C379.243 196.965 379.8 199.172 380.001 201.426C380.348 204.027 379.945 206.674 378.841 209.055H378.863Z" fill="#E44173"/>
<path d="M146.031 283.267L182.246 277.667L180.403 190.726L205.568 184.637L203.253 154.901L109.232 164.62L111.988 200.94L137.246 194.89L146.031 283.267Z" fill="#E44173"/>
<path d="M539.699 109.521L474.875 138.657L494.473 149.972L469.171 198.514L434.661 101.138L457.092 92.5132L391.608 49.7246L371.685 125.368L396.91 115.665L444.397 220.367L443.186 283.238H484.292L484.726 221.842L528.296 169.499L546.877 180.23L539.699 109.521Z" fill="#E44173"/>
<path d="M184.42 291.064L116.972 300.184L120.124 329.497L138.435 326.048L146.136 384.738L172.071 379.892L168.952 320.591L187.296 317.39L184.42 291.064Z" fill="#395E66"/>
<path d="M191.532 301.143L202.703 385.076L228.638 380.235L224.232 295.032L191.532 301.143Z" fill="#395E66"/>
<path d="M281.62 337.554L268.88 296.218L236.785 297.467L235.536 383.759L264.386 382.884L264.513 342.422L274.375 377.263H285.365L298.226 338.302L297.978 386.63L326.454 385.381L332.197 293.721H298.605L281.62 337.554Z" fill="#395E66"/>
<path d="M332.939 379.933L386.366 386.534C387.235 382.071 388.133 377.626 389.061 373.2C389.989 368.774 390.906 364.313 391.811 359.818L380.937 358.217L365.618 355.956L367.565 347.029L386.19 349.146L390.37 330.197L371.96 327.48L373.726 319.779L400.128 322.282C401.03 318.461 401.863 314.669 402.625 310.907C403.388 307.144 404.18 303.349 405.002 299.521L348.044 291.149L332.939 379.933Z" fill="#395E66"/>
<path d="M107.522 225.087C105.909 221.546 103.583 218.376 100.69 215.774C97.7708 213.211 94.3666 211.261 90.6794 210.037C86.5808 208.692 82.271 208.107 77.9621 208.31C76.7761 208.303 75.5908 208.374 74.4143 208.525C72.9805 208.693 71.4257 208.845 69.7499 208.981C68.0997 209.113 66.389 209.179 64.6729 209.168C63.0797 209.173 61.4898 209.021 59.9259 208.717C58.6252 208.485 57.3882 207.98 56.2956 207.237C55.4187 206.572 54.8183 205.606 54.6092 204.525C54.4001 203.444 54.5971 202.324 55.1625 201.379C55.75 200.476 56.5413 199.722 57.4727 199.179C58.5549 198.55 59.7044 198.044 60.8995 197.672C62.1642 197.262 63.4494 196.919 64.7499 196.643C66.0297 196.372 67.26 196.165 68.4407 196.022C69.6123 195.879 70.5749 195.769 71.3285 195.697C75.5494 195.302 79.7997 195.341 84.0127 195.813C88.2689 196.266 92.4937 196.977 96.6639 197.942L96.5209 162.623C93.8138 161.647 91.0301 160.898 88.1986 160.384C85.2652 159.847 82.3055 159.465 79.3318 159.24C76.325 159.014 73.3085 158.944 70.2944 159.031C67.2801 159.119 64.3648 159.302 61.5486 159.581C55.2942 160.167 49.1797 161.782 43.4518 164.361C37.9042 166.828 32.8528 170.285 28.5454 174.564C24.3422 178.771 21.0637 183.809 18.9195 189.355C16.7193 194.999 15.9455 201.216 16.5983 208.008C17.0068 212.71 18.2785 217.297 20.3496 221.539C22.2525 225.459 24.9171 228.962 28.1879 231.841C31.433 234.659 35.2305 236.769 39.3374 238.035C43.7878 239.386 48.4659 239.82 53.0888 239.311L55.839 239.041C56.9886 238.926 58.2318 238.865 59.5684 238.849C60.905 238.832 62.2691 238.893 63.6773 239.019C64.9862 239.12 66.2786 239.374 67.5276 239.779C68.587 240.12 69.5619 240.683 70.3879 241.429C71.1496 242.134 71.6171 243.1 71.697 244.135C71.8083 244.818 71.7674 245.518 71.5773 246.183C71.3871 246.849 71.0524 247.464 70.5969 247.985C69.6458 248.985 68.49 249.767 67.2086 250.279C65.7953 250.856 64.318 251.263 62.8082 251.489C61.2644 251.728 59.9461 251.898 58.8533 252.001C52.923 252.556 46.9464 252.362 41.0646 251.423C35.2067 250.553 29.5069 248.833 24.145 246.319L23.804 282.248C26.3892 283.154 29.343 284.1 32.6653 285.086C35.9876 286.073 39.4273 286.958 42.9843 287.743C46.5486 288.528 50.0488 289.131 53.4848 289.553C56.5974 289.966 59.7457 290.04 62.8742 289.773C69.822 289.143 76.6361 287.474 83.0886 284.822C88.9903 282.424 94.3591 278.881 98.8861 274.399C103.306 269.94 106.654 264.534 108.677 258.59C110.841 252.43 111.537 245.407 110.767 237.523C110.401 233.223 109.304 229.017 107.522 225.087Z" fill="#E44173"/>
<path d="M257.973 280.12C268.06 280.19 277.961 277.404 286.532 272.083C290.595 269.544 294.296 266.465 297.533 262.93C300.797 259.383 303.597 255.435 305.866 251.181C308.176 246.832 309.939 242.213 311.113 237.43C312.34 232.45 312.951 227.339 312.934 222.21C312.934 213.776 311.59 206.132 308.902 199.278C306.429 192.68 302.549 186.699 297.533 181.749C292.517 176.8 286.485 173 279.854 170.615C272.945 168.012 265.3 166.712 256.917 166.715C251.885 166.686 246.878 167.416 242.065 168.882C237.456 170.287 233.063 172.323 229.013 174.933C224.994 177.535 221.336 180.655 218.133 184.212C214.899 187.79 212.117 191.751 209.849 196.006C205.2 204.765 202.773 214.532 202.781 224.449C202.759 229.465 203.416 234.46 204.733 239.3C205.992 243.947 207.827 248.419 210.195 252.611C212.522 256.726 215.38 260.517 218.694 263.888C222.005 267.261 225.753 270.177 229.838 272.556C233.98 274.978 238.417 276.858 243.039 278.15C247.902 279.495 252.928 280.158 257.973 280.12ZM240.437 223.58C240.425 221.113 240.836 218.663 241.653 216.335C242.418 214.129 243.611 212.096 245.162 210.351C246.702 208.646 248.573 207.274 250.663 206.319C252.964 205.303 255.458 204.8 257.973 204.845C260.435 204.798 262.868 205.381 265.041 206.539C267.052 207.626 268.81 209.126 270.2 210.939C271.623 212.822 272.698 214.944 273.374 217.205C274.104 219.548 274.475 221.989 274.474 224.443C274.482 226.95 274.073 229.441 273.264 231.814C272.498 234.103 271.322 236.233 269.793 238.101C268.29 239.923 266.415 241.403 264.293 242.441C261.992 243.538 259.466 244.083 256.917 244.031C254.412 244.087 251.939 243.457 249.766 242.21C247.724 241.009 245.964 239.383 244.607 237.441C243.201 235.432 242.145 233.201 241.482 230.84C240.798 228.481 240.446 226.037 240.437 223.58Z" fill="#E44173"/>
<path d="M410.216 226.612C412.532 223.872 414.426 220.802 415.837 217.504C417.223 214.177 418.114 210.665 418.483 207.08C418.888 202.98 418.862 198.848 418.406 194.753C417.673 187.562 415.61 181.409 412.218 176.294C408.935 171.282 404.594 167.05 399.501 163.895C394.254 160.693 388.46 158.489 382.411 157.394C376.048 156.203 369.547 155.938 363.109 156.607C358.852 157.044 354.706 157.566 350.673 158.175C346.639 158.784 342.68 159.565 338.797 160.518C334.887 161.47 331.031 162.633 327.246 164C323.308 165.425 319.451 167.066 315.695 168.917C316.018 175.566 316.452 182.146 316.998 188.659C317.545 195.171 318.095 201.739 318.649 208.362C319.635 221.508 320.665 234.596 321.74 247.624C322.814 260.653 323.867 273.737 324.897 286.876L361.993 283.086L359.903 247.041L370.568 245.606L387.587 281.013L425.639 269.462L401.388 234.968C404.616 232.501 407.575 229.7 410.216 226.612ZM378.863 209.055C377.798 211.228 376.265 213.138 374.374 214.649C372.394 216.223 370.163 217.452 367.774 218.285C365.356 219.161 362.84 219.737 360.282 220.001L358.214 220.21L356.338 187.977C357.356 187.582 358.4 187.256 359.463 187.003C360.564 186.747 361.681 186.563 362.807 186.453C365.119 186.162 367.467 186.349 369.704 187.003C371.631 187.591 373.401 188.602 374.886 189.962C376.364 191.35 377.543 193.026 378.351 194.885C379.243 196.965 379.8 199.172 380.001 201.426C380.348 204.027 379.945 206.674 378.841 209.055H378.863Z" fill="#E44173"/>
<path d="M391.635 38.3554C393.845 38.3546 396.007 38.9988 397.857 40.209L463.313 82.9976C465.064 84.1431 466.466 85.7499 467.363 87.6409C468.259 89.5319 468.617 91.6338 468.396 93.715C468.174 95.7961 467.383 97.7759 466.109 99.436C464.834 101.096 463.126 102.372 461.173 103.124L449.072 107.778L471.157 170.098L479.358 154.372L469.193 148.503C467.38 147.457 465.892 145.93 464.892 144.091C463.892 142.253 463.419 140.174 463.524 138.083C463.63 135.993 464.311 133.973 465.492 132.244C466.672 130.516 468.307 129.147 470.216 128.289L535.04 99.1362C536.681 98.4008 538.474 98.0656 540.27 98.1581C542.066 98.2506 543.815 98.7681 545.372 99.668C546.929 100.568 548.251 101.825 549.228 103.335C550.204 104.845 550.809 106.566 550.991 108.355L558.142 179.064C558.356 181.147 557.99 183.249 557.086 185.137C556.181 187.026 554.771 188.628 553.014 189.766C551.256 190.904 549.218 191.534 547.124 191.587C545.031 191.64 542.964 191.113 541.151 190.065L530.859 184.125L496.068 225.989L495.661 283.321C495.647 286.327 494.443 289.205 492.312 291.325C490.181 293.446 487.298 294.636 484.292 294.636H443.186C441.674 294.637 440.177 294.336 438.783 293.751C437.389 293.167 436.125 292.309 435.066 291.23C434.008 290.151 433.175 288.871 432.617 287.466C432.059 286.06 431.787 284.558 431.817 283.046L431.899 279.014C430.984 279.62 429.985 280.089 428.935 280.406L404.067 287.942L406.657 288.327C408.195 288.553 409.67 289.092 410.991 289.91C412.313 290.729 413.452 291.81 414.339 293.087C415.225 294.363 415.841 295.808 416.147 297.332C416.453 298.856 416.443 300.426 416.118 301.946C415.304 305.796 414.512 309.57 413.77 313.228C412.983 317.078 412.119 321.027 411.195 324.938C410.655 327.239 409.41 329.313 407.636 330.874C405.862 332.434 403.645 333.403 401.294 333.646L397.664 350.098C399.69 351.304 401.291 353.11 402.244 355.267C403.197 357.423 403.455 359.823 402.983 362.133C402.063 366.643 401.146 371.122 400.233 375.571C399.325 379.894 398.434 384.327 397.571 388.772C397.067 391.359 395.68 393.691 393.647 395.368C391.615 397.046 389.062 397.965 386.426 397.969C385.954 397.969 385.482 397.94 385.013 397.881L335.86 391.753C334.867 393.222 333.544 394.439 331.997 395.305C330.449 396.171 328.721 396.663 326.949 396.742L298.479 397.991H297.978C295.295 397.992 292.698 397.045 290.647 395.315C288.597 393.585 287.224 391.185 286.773 388.541C286.306 388.596 285.836 388.624 285.365 388.623H274.194C273.222 390.285 271.843 391.673 270.187 392.655C268.531 393.638 266.652 394.183 264.727 394.239L235.883 395.114H235.536C232.628 395.112 229.83 393.996 227.72 391.995L204.816 396.269C204.128 396.396 203.43 396.46 202.731 396.462C199.971 396.458 197.307 395.452 195.233 393.631C193.16 391.81 191.819 389.297 191.46 386.561L183.87 329.526L180.866 330.048L183.452 379.289C183.596 382.041 182.735 384.752 181.03 386.917C179.326 389.082 176.892 390.554 174.183 391.06L148.248 395.906C147.56 396.033 146.863 396.097 146.163 396.099C143.402 396.098 140.736 395.093 138.661 393.271C136.587 391.449 135.245 388.935 134.887 386.198L128.754 339.443L122.258 340.67C120.717 340.959 119.132 340.927 117.603 340.575C116.075 340.223 114.636 339.559 113.376 338.624C112.117 337.689 111.065 336.503 110.285 335.142C109.506 333.781 109.017 332.273 108.848 330.714L105.696 301.401C105.38 298.457 106.225 295.506 108.051 293.175C109.878 290.844 112.542 289.318 115.476 288.921L135.107 286.264C134.936 285.65 134.815 285.022 134.744 284.388L127.225 208.982L114.64 211.996C114.072 212.132 113.495 212.222 112.913 212.265C114.848 214.74 116.494 217.427 117.819 220.274C120.157 225.378 121.607 230.843 122.11 236.435C123.034 245.934 122.11 254.658 119.436 262.359C116.849 269.91 112.584 276.776 106.961 282.441C101.372 287.978 94.7432 292.356 87.4563 295.323C79.9566 298.403 72.0379 300.343 63.9636 301.077C62.495 301.22 60.9548 301.291 59.3872 301.291C56.9507 301.284 54.5169 301.13 52.099 300.829C48.3256 300.367 44.4312 299.696 40.5479 298.833C36.736 297.991 33.0011 297.034 29.4423 295.978C25.8835 294.922 22.7812 293.926 20.0419 292.986C17.8041 292.198 15.8686 290.731 14.5064 288.789C13.1443 286.847 12.4237 284.527 12.4457 282.155L12.7867 246.226C12.8039 244.467 13.2286 242.736 14.0275 241.169C14.8263 239.602 15.9775 238.241 17.3906 237.194C14.4915 234.022 12.0596 230.453 10.1685 226.594C7.48555 221.113 5.83004 215.186 5.28398 209.108C4.4479 200.577 5.4985 192.513 8.33678 185.208C11.0535 178.207 15.197 171.848 20.5039 166.534C25.7834 161.284 31.9731 157.036 38.7712 153.998C45.632 150.901 52.9557 148.954 60.4488 148.234C63.4961 147.937 66.6974 147.739 69.9537 147.64C70.9108 147.612 71.8734 147.596 72.8194 147.596C75.2727 147.596 77.7699 147.695 80.1957 147.876C83.566 148.131 86.9206 148.565 90.2451 149.174C93.7005 149.807 97.097 150.727 100.399 151.925C101.872 152.463 103.219 153.301 104.354 154.383C105.522 153.82 106.778 153.463 108.067 153.327L202.087 143.591C202.478 143.553 202.868 143.531 203.259 143.531C206.121 143.533 208.877 144.614 210.977 146.559C213.077 148.503 214.367 151.167 214.59 154.02L215.877 170.593C218.085 168.701 220.417 166.957 222.857 165.373C227.783 162.201 233.12 159.719 238.721 157.997C244.614 156.201 250.744 155.3 256.906 155.324C266.62 155.324 275.684 156.881 283.858 159.955C291.525 162.784 298.552 167.111 304.529 172.684C304.469 171.584 304.408 170.544 304.359 169.471C304.248 167.255 304.79 165.055 305.916 163.143C307.042 161.231 308.704 159.691 310.695 158.712C314.821 156.678 319.056 154.871 323.379 153.3C327.545 151.791 331.788 150.505 336.091 149.449C340.277 148.426 344.606 147.574 348.951 146.914C353.165 146.276 357.538 145.726 361.949 145.264C364.66 144.988 367.382 144.848 370.106 144.846C374.931 144.86 379.745 145.32 384.485 146.221C390.12 147.271 395.586 149.088 400.728 151.622L390.986 130.17L375.766 136.028C373.808 136.784 371.679 136.982 369.614 136.602C367.55 136.221 365.631 135.277 364.071 133.873C362.51 132.469 361.369 130.66 360.773 128.648C360.177 126.635 360.15 124.497 360.695 122.469L380.634 46.8262C381.275 44.3973 382.702 42.249 384.692 40.7165C386.682 39.184 389.124 38.3538 391.635 38.3554ZM432.306 259.179L433.01 222.722L428.924 213.707C427.314 221.15 423.896 228.083 418.973 233.894C418.192 234.829 417.365 235.756 416.492 236.677L432.306 259.179ZM391.635 33.3609C388.02 33.3638 384.507 34.5625 381.643 36.7702C378.78 38.9779 376.727 42.0706 375.805 45.5666L355.882 121.199C354.914 124.853 355.241 128.729 356.807 132.169C358.373 135.61 361.082 138.402 364.474 140.071C363.462 140.137 362.45 140.22 361.443 140.324C356.955 140.781 352.499 141.342 348.203 141.974C343.709 142.656 339.237 143.536 334.909 144.593C330.44 145.684 326.033 147.016 321.707 148.58C317.207 150.21 312.8 152.087 308.506 154.202C304.822 156.012 301.952 159.139 300.464 162.964C295.847 159.8 290.86 157.214 285.613 155.264C276.42 151.898 266.695 150.221 256.906 150.313C250.245 150.29 243.618 151.266 237.247 153.206C231.213 155.064 225.463 157.74 220.157 161.16L219.568 153.624C219.249 149.515 217.392 145.677 214.366 142.878C211.34 140.078 207.37 138.524 203.248 138.525C202.698 138.525 202.148 138.553 201.559 138.608L107.55 148.322C106.773 148.404 106.003 148.542 105.245 148.734C104.258 148.108 103.204 147.591 102.104 147.194C98.5423 145.907 94.879 144.919 91.1527 144.24C87.6528 143.603 84.1222 143.148 80.5752 142.876C78.0064 142.684 75.3937 142.585 72.8194 142.585C71.8239 142.585 70.8118 142.585 69.8052 142.629C66.4333 142.728 63.122 142.937 59.9647 143.245C51.9283 144.016 44.0733 146.102 36.714 149.422C29.3634 152.709 22.6707 157.303 16.9616 162.981C11.1664 168.789 6.64105 175.738 3.67233 183.388C0.54803 191.429 -0.60708 200.247 0.300507 209.592C0.904525 216.285 2.72967 222.81 5.68552 228.844C7.10718 231.708 8.79015 234.435 10.713 236.99C8.84299 239.692 7.82214 242.891 7.78122 246.176L7.44569 282.106C7.41263 285.52 8.44865 288.86 10.4086 291.656C12.3685 294.453 15.1542 296.566 18.3752 297.7C21.1915 298.69 24.4258 299.735 28.0232 300.796C31.6205 301.858 35.5424 302.876 39.4643 303.745C43.5291 304.641 47.583 305.34 51.5159 305.818C54.1347 306.143 56.7705 306.31 59.4092 306.319C61.1363 306.319 62.8415 306.236 64.4697 306.082C73.0389 305.295 81.4428 303.234 89.4035 299.966C93.9522 298.081 98.2797 295.702 102.308 292.87C100.919 295.677 100.365 298.823 100.713 301.935L103.859 331.247C104.102 333.493 104.807 335.664 105.93 337.624C107.052 339.584 108.568 341.291 110.381 342.638C112.195 343.985 114.267 344.942 116.468 345.449C118.669 345.957 120.951 346.004 123.171 345.587L124.469 345.345L129.915 386.869C130.207 389.075 130.944 391.198 132.083 393.11C133.222 395.022 134.739 396.681 136.54 397.988C138.341 399.295 140.39 400.221 142.561 400.71C144.731 401.2 146.979 401.242 149.167 400.834L175.102 395.988C177.511 395.532 179.788 394.541 181.764 393.088C183.74 391.635 185.366 389.758 186.521 387.595C186.855 389.733 187.607 391.785 188.735 393.632C189.863 395.479 191.344 397.085 193.094 398.359C195.885 400.392 199.251 401.482 202.703 401.473C203.709 401.472 204.712 401.38 205.701 401.197L226.361 397.347C229.068 399.185 232.264 400.166 235.536 400.163H236.042L264.881 399.289C267.142 399.224 269.364 398.688 271.405 397.716C273.447 396.745 275.264 395.358 276.74 393.645H283.176C284.507 396.444 286.604 398.807 289.224 400.463C291.844 402.118 294.879 402.996 297.978 402.996H298.688L327.169 401.748C331.209 401.56 335.038 399.889 337.923 397.056L384.358 402.804C385.03 402.887 385.706 402.929 386.382 402.93C390.178 402.923 393.854 401.599 396.783 399.183C399.711 396.767 401.71 393.41 402.439 389.685C403.297 385.284 404.188 380.884 405.084 376.577C406.025 372.067 406.96 367.54 407.835 363.106C408.274 360.929 408.267 358.684 407.813 356.51C407.359 354.335 406.468 352.275 405.194 350.455C404.602 349.603 403.927 348.811 403.181 348.09L405.447 337.809C408.058 336.906 410.399 335.357 412.251 333.307C414.103 331.257 415.407 328.771 416.041 326.082C416.976 322.111 417.851 318.118 418.643 314.218C419.38 310.587 420.172 306.809 420.986 302.98C421.45 300.791 421.462 298.53 421.02 296.337C420.578 294.143 419.693 292.063 418.418 290.224C418.143 289.828 417.867 289.443 417.543 289.075L427.053 286.193C427.738 289.965 429.725 293.378 432.669 295.835C435.612 298.291 439.325 299.637 443.159 299.636H484.264C488.583 299.624 492.724 297.911 495.788 294.868C498.852 291.824 500.593 287.695 500.634 283.376L501.03 227.821L532.025 190.582L538.665 194.433C541.278 195.95 544.259 196.714 547.28 196.641C550.3 196.567 553.242 195.66 555.778 194.018C558.314 192.376 560.347 190.064 561.65 187.339C562.954 184.613 563.478 181.58 563.164 178.575L556.013 107.866C555.752 105.283 554.881 102.8 553.472 100.621C552.062 98.4416 550.155 96.6286 547.907 95.3316C545.659 94.0346 543.135 93.2907 540.543 93.1613C537.951 93.0319 535.365 93.5206 532.999 94.5872L468.175 123.74C465.673 124.86 463.492 126.59 461.833 128.773L455.442 110.698L462.994 107.794C465.807 106.711 468.266 104.872 470.101 102.481C471.936 100.089 473.075 97.2376 473.393 94.2401C473.711 91.2426 473.195 88.2155 471.903 85.4923C470.611 82.7691 468.592 80.4555 466.069 78.8062L400.612 36.0176C397.943 34.2765 394.823 33.3531 391.635 33.3609ZM121.065 215.599L122.814 215.181L123.331 220.395C123.023 219.636 122.698 218.894 122.357 218.162C121.95 217.293 121.519 216.439 121.065 215.599ZM111.769 284.652C117.288 278.712 121.502 271.682 124.139 264.014C125.283 260.737 126.126 257.362 126.659 253.932L129.453 281.985L114.777 283.965C113.755 284.103 112.748 284.335 111.769 284.658V284.652Z" fill="#E44173"/>
<g filter="url(#filter0_d_86_6748)">
<path fill-rule="evenodd" clip-rule="evenodd" d="M301.484 187.695C291.778 180.412 273.658 168.958 264.456 163.345L271.397 151.966C281.695 158.247 305.185 173.064 313.946 180.576L313.612 180.966C313.984 182.595 314.356 184.188 314.722 185.755C316.9 195.087 318.867 203.515 319.474 213.227L306.171 214.059C305.638 205.547 303.96 198.333 301.794 189.024L301.793 189.024C301.691 188.586 301.588 188.143 301.484 187.695Z" fill="url(#paint0_linear_86_6748)"/>
<path d="M350.239 234.079L350.963 227.351L304.009 225.997L304.354 234.669L320.508 235.265L320.677 233.273L325.572 234.691C340.849 239.442 348.382 236.263 350.239 234.079Z" fill="#61472D"/>
<g filter="url(#filter1_i_86_6748)">
<path d="M307.516 231.984C302.119 231.978 303.811 222.049 305.864 215.243C306.387 213.509 307.571 212.035 309.246 211.344C312.855 209.857 318.483 208.59 323.526 210.67C324.458 211.054 325.334 211.378 326.153 211.652C330.472 213.099 337.952 212.063 342.39 213.091C344.117 213.491 345.88 214.045 347.527 214.522C349.41 215.067 351.484 217.229 351.204 225.765C350.923 234.302 343.777 236.002 332.048 233.618C320.32 231.234 315.214 231.992 307.516 231.984Z" fill="url(#paint1_linear_86_6748)"/>
</g>
<path d="M322.171 210.636L305.975 215.84C303.747 214.679 304.897 210.07 306.389 207.837C309.418 206.314 316.011 203.382 318.16 203.844C320.308 204.307 322.226 208.568 322.171 210.636Z" fill="url(#paint2_linear_86_6748)"/>
<circle cx="2.35228" cy="2.35228" r="1.17614" transform="matrix(-0.960531 -0.278174 -0.278174 0.960531 333.245 217.322)" stroke="#395E66" stroke-width="2.35228"/>
<path d="M331.967 213.277L330.222 219.303" stroke="white" stroke-width="1.56819" stroke-linecap="round"/>
<circle cx="2.35228" cy="2.35228" r="1.17614" transform="matrix(-0.960531 -0.278174 -0.278174 0.960531 327.974 215.797)" stroke="#395E66" stroke-width="2.35228"/>
<path d="M326.696 211.753L324.951 217.778" stroke="white" stroke-width="1.56819" stroke-linecap="round"/>
<path d="M319.757 219.538C319.084 215.098 315.777 213.079 314.287 213.056L305.715 215.879C303.355 228.256 305.849 228.571 306.744 229.238C322.362 228.863 333.392 231.649 334.74 231.223L334.423 229.499L333.462 227.18C330.933 223.509 323.632 220.252 319.757 219.538Z" fill="url(#paint3_linear_86_6748)"/>
<path d="M350.149 228.748C349.406 230.846 343.935 234.703 326.127 229.954C325.787 229.72 321.584 229.292 307.496 229.456C306.921 229.562 305.601 229.234 304.919 227.078" stroke="#FCE1C7" stroke-width="0.392047" stroke-dasharray="0.78 0.78"/>
<path d="M349.495 231.009C348.751 233.106 343.28 236.964 325.473 232.215C325.132 231.98 320.93 231.552 306.841 231.717C306.267 231.823 304.947 231.495 304.265 229.338" stroke="#40352C" stroke-width="0.392047" stroke-dasharray="0.78 0.78"/>
<path d="M335.238 212.592L334.989 221.908L333.194 226.694C331.639 225.019 326.795 221.167 319.866 219.161C319.586 217.311 318.152 213.522 314.664 213.165" stroke="#FCE1C7" stroke-width="0.392047" stroke-dasharray="0.78 0.78"/>
<path d="M336.825 212.645L336.604 221.969L334.046 229.391C332.227 227.368 326.842 222.815 318.676 220.45C318.366 218.199 316.621 213.978 312.502 213.583" stroke="#473A2F" stroke-width="0.392047" stroke-dasharray="0.78 0.78"/>
<path d="M324.512 229.897C321.635 226.207 313.575 219.464 304.346 222.016" stroke="#FCE1C7" stroke-width="0.392047" stroke-dasharray="0.78 0.78"/>
<path fill-rule="evenodd" clip-rule="evenodd" d="M211.155 187.697C220.861 180.414 238.982 168.959 248.184 163.347L241.243 151.967C230.945 158.248 207.455 173.065 198.693 180.577L199.028 180.967C198.655 182.595 198.284 184.188 197.918 185.754L197.918 185.755C195.74 195.088 193.773 203.515 193.165 213.227L206.469 214.059C207.001 205.547 208.68 198.333 210.846 189.024L210.846 189.024C210.948 188.586 211.051 188.144 211.155 187.697Z" fill="url(#paint4_linear_86_6748)"/>
<path d="M162.4 234.08L161.676 227.351L208.63 225.998L208.284 234.669L192.131 235.266L191.962 233.274L187.067 234.691C171.79 239.442 164.257 236.263 162.4 234.08Z" fill="#61472D"/>
<g filter="url(#filter2_i_86_6748)">
<path d="M205.123 231.984C210.52 231.978 208.828 222.05 206.775 215.244C206.251 213.51 205.067 212.035 203.393 211.345C199.784 209.857 194.156 208.59 189.113 210.67C188.181 211.055 187.305 211.378 186.486 211.653C182.167 213.099 174.687 212.064 170.249 213.091C168.521 213.491 166.759 214.045 165.112 214.522C163.229 215.068 161.155 217.229 161.435 225.766C161.716 234.302 168.862 236.002 180.591 233.618C192.319 231.234 197.424 231.993 205.123 231.984Z" fill="url(#paint5_linear_86_6748)"/>
</g>
<path d="M190.468 210.637L206.664 215.84C208.892 214.68 207.742 210.07 206.25 207.838C203.221 206.314 196.628 203.383 194.479 203.845C192.331 204.307 190.412 208.568 190.468 210.637Z" fill="url(#paint6_linear_86_6748)"/>
<circle cx="182.307" cy="218.927" r="1.17614" transform="rotate(-16.1512 182.307 218.927)" stroke="#395E66" stroke-width="2.35228"/>
<path d="M180.672 213.278L182.417 219.303" stroke="white" stroke-width="1.56819" stroke-linecap="round"/>
<circle cx="187.579" cy="217.403" r="1.17614" transform="rotate(-16.1512 187.579 217.403)" stroke="#395E66" stroke-width="2.35228"/>
<path d="M185.944 211.753L187.689 217.779" stroke="white" stroke-width="1.56819" stroke-linecap="round"/>
<path d="M192.882 219.538C193.555 215.098 196.862 213.079 198.352 213.056L206.924 215.879C209.284 228.257 206.79 228.571 205.895 229.238C190.277 228.864 179.247 231.65 177.899 231.224L178.216 229.499L179.177 227.18C181.706 223.509 189.007 220.252 192.882 219.538Z" fill="url(#paint7_linear_86_6748)"/>
<path d="M162.49 228.749C163.233 230.846 168.704 234.704 186.512 229.955C186.852 229.72 191.055 229.292 205.143 229.457C205.718 229.563 207.038 229.235 207.72 227.078" stroke="#FCE1C7" stroke-width="0.392047" stroke-dasharray="0.78 0.78"/>
<path d="M163.144 231.009C163.888 233.107 169.358 236.965 187.166 232.215C187.507 231.981 191.709 231.553 205.797 231.718C206.372 231.823 207.692 231.495 208.374 229.339" stroke="#40352C" stroke-width="0.392047" stroke-dasharray="0.78 0.78"/>
<path d="M177.402 212.593L177.651 221.908L179.445 226.695C181.001 225.02 185.845 221.168 192.773 219.161C193.054 217.311 194.487 213.522 197.976 213.165" stroke="#FCE1C7" stroke-width="0.392047" stroke-dasharray="0.78 0.78"/>
<path d="M175.813 212.646L176.035 221.969L178.593 229.392C180.412 227.368 185.796 222.816 193.963 220.451C194.273 218.199 196.018 213.978 200.137 213.583" stroke="#473A2F" stroke-width="0.392047" stroke-dasharray="0.78 0.78"/>
<path d="M188.127 229.897C191.004 226.207 199.065 219.465 208.294 222.016" stroke="#FCE1C7" stroke-width="0.392047" stroke-dasharray="0.78 0.78"/>
<ellipse cx="195.326" cy="102.204" rx="7.54351" ry="11.3153" transform="rotate(-20.9828 195.326 102.204)" fill="url(#paint8_linear_86_6748)"/>
<path d="M171.935 111.772C175.727 107.072 186.138 98.1736 190.869 94.3121C200.29 97.0619 197.328 113.739 195.938 117.467C190.416 122.308 180.373 126.23 171.35 127.195C162.327 128.161 146.891 109.755 140.661 101.698L145.258 94.4955C148.727 96.8085 160.855 106.471 166.486 111.013L171.935 111.772Z" fill="url(#paint9_linear_86_6748)"/>
<path d="M192.342 113.912C194.891 104.571 192.191 97.7625 189.602 95.6739L191.036 94.3376C193.977 95.2847 196.206 97.2016 196.953 98.0416C200.505 101.762 199.471 106.841 198.51 108.915L192.342 113.912Z" fill="#171717" fill-opacity="0.56"/>
<path d="M144.242 106.134C148.968 103.932 149.68 100.223 150.115 98.1929L152.592 99.9486C152.895 101.837 152.453 103.62 152.195 104.276C151.119 107.312 149.287 109.985 147.854 110.065L144.242 106.134Z" fill="#4E4E4E" fill-opacity="0.56"/>
<path d="M204.297 99.788C208.845 142.292 242.235 173.569 278.876 169.648C315.517 165.727 341.534 128.093 336.986 85.5894C332.437 43.0858 299.047 11.8083 262.406 15.7292C206.044 16.6343 199.749 57.2844 204.297 99.788Z" fill="url(#paint10_linear_86_6748)"/>
<path d="M190.193 101.301C194.571 142.215 226.492 171.315 260.457 167.68C294.422 164.046 319.463 128.851 315.085 87.9368C310.707 47.023 278.786 17.9231 244.821 21.5576C210.856 25.1921 185.814 60.3873 190.193 101.301Z" fill="url(#paint11_linear_86_6748)" stroke="url(#paint12_linear_86_6748)" stroke-width="7.84094"/>
<g filter="url(#filter3_d_86_6748)">
<path d="M242.087 32.8867L243.088 42.2424" stroke="url(#paint13_linear_86_6748)" stroke-width="3.13637" stroke-linecap="round"/>
</g>
<g filter="url(#filter4_d_86_6748)">
<path d="M254.433 148.275L255.351 156.851" stroke="url(#paint14_linear_86_6748)" stroke-width="3.13637" stroke-linecap="round"/>
</g>
<g filter="url(#filter5_d_86_6748)">
<path d="M198.085 100.685L205.102 99.9337" stroke="url(#paint15_linear_86_6748)" stroke-width="3.13637" stroke-linecap="round"/>
</g>
<g filter="url(#filter6_d_86_6748)">
<path d="M299.439 89.8408L305.676 89.1734" stroke="url(#paint16_linear_86_6748)" stroke-width="3.13637" stroke-linecap="round"/>
</g>
<g filter="url(#filter7_d_86_6748)">
<path d="M208.159 128.998L213.377 124.839" stroke="url(#paint17_linear_86_6748)" stroke-width="1.56819" stroke-linecap="round"/>
</g>
<g filter="url(#filter8_d_86_6748)">
<path d="M290.598 63.2876L295.815 59.1287" stroke="url(#paint18_linear_86_6748)" stroke-width="1.56819" stroke-linecap="round"/>
</g>
<g filter="url(#filter9_d_86_6748)">
<path d="M228.665 144.164L231.018 137.92" stroke="url(#paint19_linear_86_6748)" stroke-width="1.56819" stroke-linecap="round"/>
</g>
<g filter="url(#filter10_d_86_6748)">
<path d="M265.838 45.5107L268.191 39.267" stroke="url(#paint20_linear_86_6748)" stroke-width="1.56819" stroke-linecap="round"/>
</g>
<g filter="url(#filter11_d_86_6748)">
<g filter="url(#filter12_d_86_6748)">
<path d="M278.156 144.952L274.739 139.22" stroke="url(#paint21_linear_86_6748)" stroke-width="1.56819" stroke-linecap="round"/>
</g>
<g filter="url(#filter13_d_86_6748)">
<path d="M220.35 52.8994L216.933 47.1681" stroke="url(#paint22_linear_86_6748)" stroke-width="1.56819" stroke-linecap="round"/>
</g>
<g filter="url(#filter14_d_86_6748)">
<path d="M296.964 120.035L290.849 117.366" stroke="url(#paint23_linear_86_6748)" stroke-width="1.56819" stroke-linecap="round"/>
</g>
<g filter="url(#filter15_d_86_6748)">
<path d="M206.619 75.334L200.998 71.7388" stroke="url(#paint24_linear_86_6748)" stroke-width="1.56819" stroke-linecap="round"/>
</g>
</g>
<g filter="url(#filter16_i_86_6748)">
<path d="M275.018 93.9894L260.935 95.4963C254.314 81.1586 259.144 66.398 260.054 63.492C261.192 59.8595 267.093 53.2095 273.265 68.0969C278.202 80.0068 275.865 92.3941 275.018 93.9894Z" fill="white"/>
</g>
<ellipse cx="5.33786" cy="8.67402" rx="5.33786" ry="8.67402" transform="matrix(-0.994323 0.106399 0.106399 0.994323 272.692 74.9028)" fill="url(#paint25_linear_86_6748)"/>
<ellipse cx="1.33446" cy="2.0017" rx="1.33446" ry="2.0017" transform="matrix(-0.994323 0.106399 0.106399 0.994323 266.484 79.5938)" fill="white"/>
<g filter="url(#filter17_i_86_6748)">
<path d="M239.191 97.8224L225.109 99.3293C218.488 84.9916 223.318 70.231 224.228 67.325C225.365 63.6925 231.267 57.0425 237.438 71.9299C242.375 83.8398 240.038 96.2271 239.191 97.8224Z" fill="white"/>
</g>
<ellipse cx="5.33786" cy="8.67402" rx="5.33786" ry="8.67402" transform="matrix(-0.994323 0.106399 0.106399 0.994323 236.866 78.7358)" fill="url(#paint26_linear_86_6748)"/>
<ellipse cx="1.33446" cy="2.0017" rx="1.33446" ry="2.0017" transform="matrix(-0.994323 0.106399 0.106399 0.994323 230.658 83.4268)" fill="white"/>
<ellipse cx="7.54351" cy="14.0045" rx="7.54351" ry="14.0045" transform="matrix(-0.988316 -0.15242 -0.15242 0.988316 339.25 88.7944)" fill="url(#paint27_linear_86_6748)"/>
<path d="M354.956 103.228C350.255 99.4367 338.197 92.9429 332.756 90.1699C324.131 94.8507 324.948 109.153 327.096 112.502C333.516 116.064 349.935 116.515 358.958 115.55C367.981 114.584 379.006 95.9575 383.391 86.7648L377.373 80.6983C374.473 83.6929 362.212 94.7311 357.67 100.362L354.956 103.228Z" fill="url(#paint28_linear_86_6748)"/>
<path d="M335.226 114.786C330.759 106.195 332.194 93.8187 334.283 91.2294L332.599 90.2268C329.925 91.7746 328.152 94.1197 327.6 95.0989C324.271 104.524 326.108 110.636 327.486 112.46L335.226 114.786Z" fill="#171717" fill-opacity="0.56"/>
<path d="M381.172 90.9447C376.328 89.886 374.97 86.4606 374.184 84.5953L372.186 86.8552C372.253 88.7508 372.999 90.3752 373.363 90.9505C374.937 93.6432 377.153 95.8136 378.513 95.5664L381.172 90.9447Z" fill="#4E4E4E" fill-opacity="0.56"/>
<ellipse cx="145.494" cy="101.632" rx="4.93794" ry="7.40692" transform="rotate(40.2119 145.494 101.632)" fill="url(#paint29_linear_86_6748)"/>
<g filter="url(#filter18_i_86_6748)">
<path d="M143.316 92.3422L147.865 95.8577C149.17 96.8659 149.736 98.5996 149.089 100.116C146.679 105.774 143.864 106.218 141.823 105.513L135.35 100.292C133.334 101.038 130.017 100.321 126.802 97.2161C123.587 94.1109 122.663 95.2711 115.736 91.7671C108.809 88.2631 109.531 87.6553 110.714 86.4674C111.66 85.517 118.7 88.4429 122.102 90.0246C121.835 89.1687 121.384 87.2359 121.709 86.3521C122.033 85.4684 123.399 85.8175 124.041 86.1026C123.639 85.6149 123.021 84.4076 123.76 83.4794C124.499 82.5512 125.893 82.1898 126.498 82.1251C126.047 81.9964 125.366 81.3441 126.245 79.7642C127.344 77.7894 132.548 79.8858 135.77 80.6023C138.991 81.3188 136.167 72.0694 138.877 70.4528C141.587 68.8362 144.346 70.1329 142.385 71.4039C140.425 72.675 140.818 76.3475 141.988 79.9369C142.924 82.8083 143.294 89.6912 143.316 92.3422Z" fill="url(#paint30_linear_86_6748)"/>
</g>
<g filter="url(#filter19_di_86_6748)">
<path fill-rule="evenodd" clip-rule="evenodd" d="M131.102 79.4125C133.781 80.2764 135.575 82.147 135.11 83.5906C134.756 84.6862 133.203 85.221 131.304 85.0377C132.251 86.1465 132.616 87.3503 132.136 88.2281C131.447 89.4885 129.252 89.6466 127.018 88.6796C128.481 90.6175 128.973 92.6451 128.096 93.4174C127.12 94.2757 124.822 93.2585 122.963 91.1455C121.103 89.0326 120.386 86.6239 121.361 85.7656C121.823 85.3592 122.581 85.3732 123.449 85.7248C122.951 84.8644 122.827 84.007 123.192 83.3388C123.614 82.5662 124.602 82.2078 125.818 82.2687C125.39 81.6585 125.226 81.0276 125.408 80.4623C125.874 79.0186 128.423 78.5486 131.102 79.4125Z" fill="url(#paint31_linear_86_6748)"/>
</g>
<path d="M135.309 99.9013C137.492 99.6677 139.388 97.4934 140.085 96.6303L135.184 98.7319L132.887 99.372L135.309 99.9013Z" fill="#B6B6B6"/>
<path d="M139.478 101.772C141.664 101.569 143.595 99.4737 144.306 98.6414L139.372 100.632L137.325 100.072L139.478 101.772Z" fill="#B6B6B6"/>
<path d="M140.335 98.9681C141.484 98.8452 142.168 97.8707 142.507 97.1585L139.983 98.7805L138.787 99.2463L140.335 98.9681Z" fill="#B6B6B6"/>
<path d="M138.285 74.5468C138.688 74.7388 139.266 74.2292 139.639 73.8179L138.247 74.332L137.701 74.3662L138.285 74.5468Z" fill="#ACABAB"/>
<path d="M132.524 82.0447C132.087 82.1312 131.928 82.8854 131.875 83.4379L132.684 82.1939L133.1 81.8404L132.524 82.0447Z" fill="#ACABAB"/>
<path d="M129.62 86.0618C129.182 86.1483 129.023 86.9025 128.97 87.455L129.779 86.211L130.196 85.8575L129.62 86.0618Z" fill="#ACABAB"/>
<path d="M126.222 91.159C125.785 91.2454 125.626 91.9996 125.573 92.5522L126.381 91.3081L126.798 90.9547L126.222 91.159Z" fill="#ACABAB"/>
<path d="M114.196 89.0452C114.886 88.9714 115.264 88.0897 115.444 87.4397L113.977 88.8583L113.272 89.2492L114.196 89.0452Z" fill="#B6B6B6"/>
<path d="M118.943 90.6389C119.49 90.2127 119.347 89.2638 119.157 88.6169L118.659 90.5958L118.266 91.2998L118.943 90.6389Z" fill="#B6B6B6"/>
<path d="M124.905 87.1977C126.19 88.7826 127.712 89.3315 128.658 89.5025L124.701 86.6132L123.081 85.1125L124.905 87.1977Z" fill="#ACABAB"/>
<path d="M129.389 84.7696C127.402 84.3064 126.243 83.1776 125.676 82.4013L130.004 84.6982L132.062 85.4999L129.389 84.7696Z" fill="#ACABAB"/>
<path d="M144.872 103.057C146.711 102.86 147.825 101.479 148.381 100.473L144.314 102.801L142.394 103.48L144.872 103.057Z" fill="#AAAAAA"/>
<path d="M143.218 92.7488C142.215 94.4332 142.259 94.4584 141.528 95.2918L142.761 90.1041L143.066 87.6394L143.566 92.3173L143.218 92.7488Z" fill="#AAAAAA"/>
<path d="M135.981 90.3648C134.542 91.6953 133.434 91.4403 132.496 92.0318L134.321 90.7719L136.915 85.2685L135.981 90.3648Z" fill="#B6B6B6"/>
<path d="M144.584 94.7316C143.535 93.0207 143.492 93.0518 143.082 91.9776L147.172 95.4533L148.785 96.8818L146.051 95.088L144.811 95.2582L144.584 94.7316Z" fill="#AAAAAA"/>
<ellipse cx="4.93795" cy="7.40692" rx="4.93795" ry="7.40692" transform="matrix(-0.609765 0.792582 0.792582 0.609765 377.444 76.7524)" fill="url(#paint32_linear_86_6748)"/>
<g filter="url(#filter20_i_86_6748)">
<path d="M380.467 75.6379L376.764 80.0364C375.702 81.2978 375.516 83.112 376.469 84.4578C380.022 89.4773 382.867 89.3154 384.712 88.195L389.934 81.722C392.063 82.0248 395.152 80.6225 397.638 76.9074C400.123 73.1922 401.272 74.1306 407.3 69.2403C413.329 64.35 412.495 63.9085 411.088 62.9979C409.961 62.2694 403.7 66.6185 400.71 68.8842C400.789 67.9913 400.822 66.0067 400.317 65.2117C399.813 64.4166 398.552 65.0467 397.985 65.4612C398.275 64.8996 398.624 63.5887 397.705 62.838C396.786 62.0873 395.347 62.029 394.742 62.0937C395.155 61.8726 395.683 61.0908 394.49 59.7328C392.997 58.0352 388.355 61.1852 385.358 62.5671C382.361 63.9491 383.164 54.3115 380.174 53.3049C377.183 52.2983 374.761 54.1494 376.946 54.9769C379.131 55.8044 379.524 59.4769 379.14 63.2326C378.832 66.2371 379.927 73.0424 380.467 75.6379Z" fill="url(#paint33_linear_86_6748)"/>
</g>
<g filter="url(#filter21_di_86_6748)">
<path fill-rule="evenodd" clip-rule="evenodd" d="M389.67 60.4216C387.235 61.8328 385.877 64.0407 386.637 65.3532C387.215 66.3492 388.846 66.5433 390.663 65.9622C389.971 67.2467 389.87 68.5008 390.525 69.2573C391.465 70.3434 393.644 70.0334 395.622 68.6157C394.602 70.8195 394.55 72.9059 395.571 73.4752C396.706 74.1077 398.737 72.6273 400.107 70.1687C401.478 67.7101 401.669 65.2042 400.534 64.5717C399.997 64.2723 399.259 64.4464 398.485 64.9736C398.79 64.0268 398.73 63.1622 398.232 62.5862C397.655 61.9205 396.614 61.7793 395.438 62.0961C395.728 61.4088 395.755 60.7571 395.457 60.2429C394.697 58.9305 392.106 59.0105 389.67 60.4216Z" fill="url(#paint34_linear_86_6748)"/>
</g>
<path d="M389.892 81.334C387.709 81.5676 385.395 79.8438 384.532 79.1475L389.767 80.1645L392.148 80.3041L389.892 81.334Z" fill="#B6B6B6"/>
<path d="M386.213 84.048C384.033 84.3121 381.702 82.6731 380.832 82.0099L386.075 82.9117L387.957 81.9308L386.213 84.048Z" fill="#B6B6B6"/>
<path d="M384.783 81.4883C383.634 81.6113 382.759 80.8037 382.277 80.1793L385.087 81.2305L386.354 81.4329L384.783 81.4883Z" fill="#B6B6B6"/>
<path d="M381.618 57.1839C381.265 57.4567 380.592 57.081 380.141 56.7579L381.61 56.9658L382.15 56.8839L381.618 57.1839Z" fill="#ACABAB"/>
<path d="M388.835 63.293C389.281 63.285 389.596 63.9885 389.764 64.5173L388.711 63.4725L388.229 63.2153L388.835 63.293Z" fill="#ACABAB"/>
<path d="M392.525 66.6055C392.971 66.5975 393.286 67.301 393.455 67.8298L392.401 66.785L391.919 66.5278L392.525 66.6055Z" fill="#ACABAB"/>
<path d="M396.924 70.8677C397.369 70.8597 397.684 71.5632 397.853 72.092L396.8 71.0472L396.317 70.79L396.924 70.8677Z" fill="#ACABAB"/>
<path d="M408.23 66.2566C407.541 66.3304 406.984 65.5488 406.671 64.9515L408.405 66.0276L409.177 66.2605L408.23 66.2566Z" fill="#B6B6B6"/>
<path d="M403.928 68.8209C403.303 68.5201 403.242 67.5624 403.291 66.8898L404.197 68.7185L404.73 69.3235L403.928 68.8209Z" fill="#B6B6B6"/>
<path d="M397.372 66.7174C396.452 68.5383 395.081 69.3967 394.193 69.7641L397.449 66.1028L398.715 64.2933L397.372 66.7174Z" fill="#ACABAB"/>
<path d="M392.477 65.2923C394.321 64.4192 395.214 63.0708 395.604 62.1921L391.861 65.3527L390.019 66.5716L392.477 65.2923Z" fill="#ACABAB"/>
<path d="M381.212 86.4441C379.374 86.6408 377.993 85.5269 377.236 84.6616L381.704 86.076L383.724 86.3331L381.212 86.4441Z" fill="#AAAAAA"/>
<path d="M380.649 76.0149C381.985 77.449 381.948 77.4829 382.839 78.1427L380.536 73.3334L379.717 70.9889L380.218 75.6668L380.649 76.0149Z" fill="#AAAAAA"/>
<path d="M387.218 72.1534C388.907 73.1492 389.935 72.6656 390.977 73.0452L388.927 72.2L385.227 67.37L387.218 72.1534Z" fill="#B6B6B6"/>
<path d="M379.732 78.2435C380.395 76.3493 380.444 76.3707 380.617 75.234L377.356 79.4963L376.081 81.2338L378.374 78.9022L379.622 78.8061L379.732 78.2435Z" fill="#AAAAAA"/>
<path d="M278.133 111.827C278.385 114.182 277.969 116.585 276.909 118.899C275.849 121.213 274.165 123.392 271.954 125.313C269.744 127.234 267.049 128.858 264.024 130.094C260.999 131.329 257.703 132.151 254.324 132.512C250.945 132.874 247.55 132.768 244.332 132.201C241.114 131.633 238.137 130.616 235.569 129.207C233.002 127.797 230.895 126.023 229.37 123.986C227.844 121.949 226.929 119.688 226.677 117.333L252.405 114.58L278.133 111.827Z" fill="#4A3D37"/>
<ellipse cx="4.00339" cy="6.00509" rx="4.00339" ry="6.00509" transform="matrix(-0.994323 0.106399 0.106399 0.994323 253.714 88.4165)" fill="url(#paint35_linear_86_6748)"/>
<path d="M226.676 117.333L278.133 111.827C278.455 114.841 276.273 117.546 273.259 117.868L232.718 122.207C229.704 122.529 226.999 120.347 226.676 117.333Z" fill="white"/>
<path d="M235.806 128.966C240.402 125.587 269.967 119.98 272.449 125.045C268.468 130.136 248.975 137.219 235.806 128.966Z" fill="#FF5E61"/>
</g>
<defs>
<filter id="filter0_d_86_6748" x="109.949" y="15.3975" width="302.15" height="228.535" filterUnits="userSpaceOnUse" color-interpolation-filters="sRGB">
<feFlood flood-opacity="0" result="BackgroundImageFix"/>
<feColorMatrix in="SourceAlpha" type="matrix" values="0 0 0 0 0 0 0 0 0 0 0 0 0 0 0 0 0 0 127 0" result="hardAlpha"/>
<feOffset dy="6.77059"/>
<feComposite in2="hardAlpha" operator="out"/>
<feColorMatrix type="matrix" values="0 0 0 0 0 0 0 0 0 0 0 0 0 0 0 0 0 0 0.25 0"/>
<feBlend mode="normal" in2="BackgroundImageFix" result="effect1_dropShadow_86_6748"/>
<feBlend mode="normal" in="SourceGraphic" in2="effect1_dropShadow_86_6748" result="shape"/>
</filter>
<filter id="filter1_i_86_6748" x="303.896" y="209.577" width="47.333" height="25.0249" filterUnits="userSpaceOnUse" color-interpolation-filters="sRGB">
<feFlood flood-opacity="0" result="BackgroundImageFix"/>
<feBlend mode="normal" in="SourceGraphic" in2="BackgroundImageFix" result="shape"/>
<feColorMatrix in="SourceAlpha" type="matrix" values="0 0 0 0 0 0 0 0 0 0 0 0 0 0 0 0 0 0 127 0" result="hardAlpha"/>
<feOffset dy="-2.35228"/>
<feComposite in2="hardAlpha" operator="arithmetic" k2="-1" k3="1"/>
<feColorMatrix type="matrix" values="0 0 0 0 0 0 0 0 0 0 0 0 0 0 0 0 0 0 0.25 0"/>
<feBlend mode="normal" in2="shape" result="effect1_innerShadow_86_6748"/>
</filter>
<filter id="filter2_i_86_6748" x="161.41" y="209.577" width="47.333" height="25.0249" filterUnits="userSpaceOnUse" color-interpolation-filters="sRGB">
<feFlood flood-opacity="0" result="BackgroundImageFix"/>
<feBlend mode="normal" in="SourceGraphic" in2="BackgroundImageFix" result="shape"/>
<feColorMatrix in="SourceAlpha" type="matrix" values="0 0 0 0 0 0 0 0 0 0 0 0 0 0 0 0 0 0 127 0" result="hardAlpha"/>
<feOffset dy="-2.35228"/>
<feComposite in2="hardAlpha" operator="arithmetic" k2="-1" k3="1"/>
<feColorMatrix type="matrix" values="0 0 0 0 0 0 0 0 0 0 0 0 0 0 0 0 0 0 0.25 0"/>
<feBlend mode="normal" in2="shape" result="effect1_innerShadow_86_6748"/>
</filter>
<filter id="filter3_d_86_6748" x="238.95" y="30.5343" width="7.27407" height="15.6286" filterUnits="userSpaceOnUse" color-interpolation-filters="sRGB">
<feFlood flood-opacity="0" result="BackgroundImageFix"/>
<feColorMatrix in="SourceAlpha" type="matrix" values="0 0 0 0 0 0 0 0 0 0 0 0 0 0 0 0 0 0 127 0" result="hardAlpha"/>
<feOffset dy="0.784093"/>
<feGaussianBlur stdDeviation="0.784093"/>
<feComposite in2="hardAlpha" operator="out"/>
<feColorMatrix type="matrix" values="0 0 0 0 0 0 0 0 0 0 0 0 0 0 0 0 0 0 0.25 0"/>
<feBlend mode="normal" in2="BackgroundImageFix" result="effect1_dropShadow_86_6748"/>
<feBlend mode="normal" in="SourceGraphic" in2="effect1_dropShadow_86_6748" result="shape"/>
</filter>
<filter id="filter4_d_86_6748" x="251.297" y="145.922" width="7.19082" height="14.8493" filterUnits="userSpaceOnUse" color-interpolation-filters="sRGB">
<feFlood flood-opacity="0" result="BackgroundImageFix"/>
<feColorMatrix in="SourceAlpha" type="matrix" values="0 0 0 0 0 0 0 0 0 0 0 0 0 0 0 0 0 0 127 0" result="hardAlpha"/>
<feOffset dy="0.784093"/>
<feGaussianBlur stdDeviation="0.784093"/>
<feComposite in2="hardAlpha" operator="out"/>
<feColorMatrix type="matrix" values="0 0 0 0 0 0 0 0 0 0 0 0 0 0 0 0 0 0 0.25 0"/>
<feBlend mode="normal" in2="BackgroundImageFix" result="effect1_dropShadow_86_6748"/>
<feBlend mode="normal" in="SourceGraphic" in2="effect1_dropShadow_86_6748" result="shape"/>
</filter>
<filter id="filter5_d_86_6748" x="194.948" y="97.5811" width="13.2899" height="7.02407" filterUnits="userSpaceOnUse" color-interpolation-filters="sRGB">
<feFlood flood-opacity="0" result="BackgroundImageFix"/>
<feColorMatrix in="SourceAlpha" type="matrix" values="0 0 0 0 0 0 0 0 0 0 0 0 0 0 0 0 0 0 127 0" result="hardAlpha"/>
<feOffset dy="0.784093"/>
<feGaussianBlur stdDeviation="0.784093"/>
<feComposite in2="hardAlpha" operator="out"/>
<feColorMatrix type="matrix" values="0 0 0 0 0 0 0 0 0 0 0 0 0 0 0 0 0 0 0.25 0"/>
<feBlend mode="normal" in2="BackgroundImageFix" result="effect1_dropShadow_86_6748"/>
<feBlend mode="normal" in="SourceGraphic" in2="effect1_dropShadow_86_6748" result="shape"/>
</filter>
<filter id="filter6_d_86_6748" x="296.302" y="86.8209" width="12.5102" height="6.94057" filterUnits="userSpaceOnUse" color-interpolation-filters="sRGB">
<feFlood flood-opacity="0" result="BackgroundImageFix"/>
<feColorMatrix in="SourceAlpha" type="matrix" values="0 0 0 0 0 0 0 0 0 0 0 0 0 0 0 0 0 0 127 0" result="hardAlpha"/>
<feOffset dy="0.784093"/>
<feGaussianBlur stdDeviation="0.784093"/>
<feComposite in2="hardAlpha" operator="out"/>
<feColorMatrix type="matrix" values="0 0 0 0 0 0 0 0 0 0 0 0 0 0 0 0 0 0 0.25 0"/>
<feBlend mode="normal" in2="BackgroundImageFix" result="effect1_dropShadow_86_6748"/>
<feBlend mode="normal" in="SourceGraphic" in2="effect1_dropShadow_86_6748" result="shape"/>
</filter>
<filter id="filter7_d_86_6748" x="205.807" y="123.271" width="9.92226" height="8.86342" filterUnits="userSpaceOnUse" color-interpolation-filters="sRGB">
<feFlood flood-opacity="0" result="BackgroundImageFix"/>
<feColorMatrix in="SourceAlpha" type="matrix" values="0 0 0 0 0 0 0 0 0 0 0 0 0 0 0 0 0 0 127 0" result="hardAlpha"/>
<feOffset dy="0.784093"/>
<feGaussianBlur stdDeviation="0.784093"/>
<feComposite in2="hardAlpha" operator="out"/>
<feColorMatrix type="matrix" values="0 0 0 0 0 0 0 0 0 0 0 0 0 0 0 0 0 0 0.25 0"/>
<feBlend mode="normal" in2="BackgroundImageFix" result="effect1_dropShadow_86_6748"/>
<feBlend mode="normal" in="SourceGraphic" in2="effect1_dropShadow_86_6748" result="shape"/>
</filter>
<filter id="filter8_d_86_6748" x="288.245" y="57.5606" width="9.92226" height="8.86342" filterUnits="userSpaceOnUse" color-interpolation-filters="sRGB">
<feFlood flood-opacity="0" result="BackgroundImageFix"/>
<feColorMatrix in="SourceAlpha" type="matrix" values="0 0 0 0 0 0 0 0 0 0 0 0 0 0 0 0 0 0 127 0" result="hardAlpha"/>
<feOffset dy="0.784093"/>
<feGaussianBlur stdDeviation="0.784093"/>
<feComposite in2="hardAlpha" operator="out"/>
<feColorMatrix type="matrix" values="0 0 0 0 0 0 0 0 0 0 0 0 0 0 0 0 0 0 0.25 0"/>
<feBlend mode="normal" in2="BackgroundImageFix" result="effect1_dropShadow_86_6748"/>
<feBlend mode="normal" in="SourceGraphic" in2="effect1_dropShadow_86_6748" result="shape"/>
</filter>
<filter id="filter9_d_86_6748" x="226.312" y="136.352" width="7.05776" height="10.9484" filterUnits="userSpaceOnUse" color-interpolation-filters="sRGB">
<feFlood flood-opacity="0" result="BackgroundImageFix"/>
<feColorMatrix in="SourceAlpha" type="matrix" values="0 0 0 0 0 0 0 0 0 0 0 0 0 0 0 0 0 0 127 0" result="hardAlpha"/>
<feOffset dy="0.784094"/>
<feGaussianBlur stdDeviation="0.784094"/>
<feComposite in2="hardAlpha" operator="out"/>
<feColorMatrix type="matrix" values="0 0 0 0 0 0 0 0 0 0 0 0 0 0 0 0 0 0 0.25 0"/>
<feBlend mode="normal" in2="BackgroundImageFix" result="effect1_dropShadow_86_6748"/>
<feBlend mode="normal" in="SourceGraphic" in2="effect1_dropShadow_86_6748" result="shape"/>
</filter>
<filter id="filter10_d_86_6748" x="263.486" y="37.6988" width="7.05776" height="10.9484" filterUnits="userSpaceOnUse" color-interpolation-filters="sRGB">
<feFlood flood-opacity="0" result="BackgroundImageFix"/>
<feColorMatrix in="SourceAlpha" type="matrix" values="0 0 0 0 0 0 0 0 0 0 0 0 0 0 0 0 0 0 127 0" result="hardAlpha"/>
<feOffset dy="0.784094"/>
<feGaussianBlur stdDeviation="0.784094"/>
<feComposite in2="hardAlpha" operator="out"/>
<feColorMatrix type="matrix" values="0 0 0 0 0 0 0 0 0 0 0 0 0 0 0 0 0 0 0.25 0"/>
<feBlend mode="normal" in2="BackgroundImageFix" result="effect1_dropShadow_86_6748"/>
<feBlend mode="normal" in="SourceGraphic" in2="effect1_dropShadow_86_6748" result="shape"/>
</filter>
<filter id="filter11_d_86_6748" x="198.646" y="45.5997" width="100.671" height="102.488" filterUnits="userSpaceOnUse" color-interpolation-filters="sRGB">
<feFlood flood-opacity="0" result="BackgroundImageFix"/>
<feColorMatrix in="SourceAlpha" type="matrix" values="0 0 0 0 0 0 0 0 0 0 0 0 0 0 0 0 0 0 127 0" result="hardAlpha"/>
<feOffset dy="0.784094"/>
<feGaussianBlur stdDeviation="0.784094"/>
<feComposite in2="hardAlpha" operator="out"/>
<feColorMatrix type="matrix" values="0 0 0 0 0 0 0 0 0 0 0 0 0 0 0 0 0 0 0.25 0"/>
<feBlend mode="normal" in2="BackgroundImageFix" result="effect1_dropShadow_86_6748"/>
<feBlend mode="normal" in="SourceGraphic" in2="effect1_dropShadow_86_6748" result="shape"/>
</filter>
<filter id="filter12_d_86_6748" x="272.387" y="137.652" width="8.12124" height="10.4362" filterUnits="userSpaceOnUse" color-interpolation-filters="sRGB">
<feFlood flood-opacity="0" result="BackgroundImageFix"/>
<feColorMatrix in="SourceAlpha" type="matrix" values="0 0 0 0 0 0 0 0 0 0 0 0 0 0 0 0 0 0 127 0" result="hardAlpha"/>
<feOffset dy="0.784094"/>
<feGaussianBlur stdDeviation="0.784094"/>
<feComposite in2="hardAlpha" operator="out"/>
<feColorMatrix type="matrix" values="0 0 0 0 0 0 0 0 0 0 0 0 0 0 0 0 0 0 0.25 0"/>
<feBlend mode="normal" in2="BackgroundImageFix" result="effect1_dropShadow_86_6748"/>
<feBlend mode="normal" in="SourceGraphic" in2="effect1_dropShadow_86_6748" result="shape"/>
</filter>
<filter id="filter13_d_86_6748" x="214.581" y="45.5997" width="8.12124" height="10.4362" filterUnits="userSpaceOnUse" color-interpolation-filters="sRGB">
<feFlood flood-opacity="0" result="BackgroundImageFix"/>
<feColorMatrix in="SourceAlpha" type="matrix" values="0 0 0 0 0 0 0 0 0 0 0 0 0 0 0 0 0 0 127 0" result="hardAlpha"/>
<feOffset dy="0.784094"/>
<feGaussianBlur stdDeviation="0.784094"/>
<feComposite in2="hardAlpha" operator="out"/>
<feColorMatrix type="matrix" values="0 0 0 0 0 0 0 0 0 0 0 0 0 0 0 0 0 0 0.25 0"/>
<feBlend mode="normal" in2="BackgroundImageFix" result="effect1_dropShadow_86_6748"/>
<feBlend mode="normal" in="SourceGraphic" in2="effect1_dropShadow_86_6748" result="shape"/>
</filter>
<filter id="filter14_d_86_6748" x="288.497" y="115.797" width="10.8197" height="7.37466" filterUnits="userSpaceOnUse" color-interpolation-filters="sRGB">
<feFlood flood-opacity="0" result="BackgroundImageFix"/>
<feColorMatrix in="SourceAlpha" type="matrix" values="0 0 0 0 0 0 0 0 0 0 0 0 0 0 0 0 0 0 127 0" result="hardAlpha"/>
<feOffset dy="0.784093"/>
<feGaussianBlur stdDeviation="0.784093"/>
<feComposite in2="hardAlpha" operator="out"/>
<feColorMatrix type="matrix" values="0 0 0 0 0 0 0 0 0 0 0 0 0 0 0 0 0 0 0.25 0"/>
<feBlend mode="normal" in2="BackgroundImageFix" result="effect1_dropShadow_86_6748"/>
<feBlend mode="normal" in="SourceGraphic" in2="effect1_dropShadow_86_6748" result="shape"/>
</filter>
<filter id="filter15_d_86_6748" x="198.646" y="70.1705" width="10.3256" height="8.29995" filterUnits="userSpaceOnUse" color-interpolation-filters="sRGB">
<feFlood flood-opacity="0" result="BackgroundImageFix"/>
<feColorMatrix in="SourceAlpha" type="matrix" values="0 0 0 0 0 0 0 0 0 0 0 0 0 0 0 0 0 0 127 0" result="hardAlpha"/>
<feOffset dy="0.784093"/>
<feGaussianBlur stdDeviation="0.784093"/>
<feComposite in2="hardAlpha" operator="out"/>
<feColorMatrix type="matrix" values="0 0 0 0 0 0 0 0 0 0 0 0 0 0 0 0 0 0 0.25 0"/>
<feBlend mode="normal" in2="BackgroundImageFix" result="effect1_dropShadow_86_6748"/>
<feBlend mode="normal" in="SourceGraphic" in2="effect1_dropShadow_86_6748" result="shape"/>
</filter>
<filter id="filter16_i_86_6748" x="257.502" y="58.8286" width="18.8135" height="36.6675" filterUnits="userSpaceOnUse" color-interpolation-filters="sRGB">
<feFlood flood-opacity="0" result="BackgroundImageFix"/>
<feBlend mode="normal" in="SourceGraphic" in2="BackgroundImageFix" result="shape"/>
<feColorMatrix in="SourceAlpha" type="matrix" values="0 0 0 0 0 0 0 0 0 0 0 0 0 0 0 0 0 0 127 0" result="hardAlpha"/>
<feOffset dx="-0.784093" dy="0.784093"/>
<feComposite in2="hardAlpha" operator="arithmetic" k2="-1" k3="1"/>
<feColorMatrix type="matrix" values="0 0 0 0 0 0 0 0 0 0 0 0 0 0 0 0 0 0 0.4 0"/>
<feBlend mode="normal" in2="shape" result="effect1_innerShadow_86_6748"/>
</filter>
<filter id="filter17_i_86_6748" x="221.676" y="62.6616" width="18.8135" height="36.6675" filterUnits="userSpaceOnUse" color-interpolation-filters="sRGB">
<feFlood flood-opacity="0" result="BackgroundImageFix"/>
<feBlend mode="normal" in="SourceGraphic" in2="BackgroundImageFix" result="shape"/>
<feColorMatrix in="SourceAlpha" type="matrix" values="0 0 0 0 0 0 0 0 0 0 0 0 0 0 0 0 0 0 127 0" result="hardAlpha"/>
<feOffset dx="-0.784093" dy="0.784093"/>
<feComposite in2="hardAlpha" operator="arithmetic" k2="-1" k3="1"/>
<feColorMatrix type="matrix" values="0 0 0 0 0 0 0 0 0 0 0 0 0 0 0 0 0 0 0.4 0"/>
<feBlend mode="normal" in2="shape" result="effect1_innerShadow_86_6748"/>
</filter>
<filter id="filter18_i_86_6748" x="109.949" y="69.6982" width="39.4084" height="36.0698" filterUnits="userSpaceOnUse" color-interpolation-filters="sRGB">
<feFlood flood-opacity="0" result="BackgroundImageFix"/>
<feBlend mode="normal" in="SourceGraphic" in2="BackgroundImageFix" result="shape"/>
<feColorMatrix in="SourceAlpha" type="matrix" values="0 0 0 0 0 0 0 0 0 0 0 0 0 0 0 0 0 0 127 0" result="hardAlpha"/>
<feOffset dy="-1.56819"/>
<feComposite in2="hardAlpha" operator="arithmetic" k2="-1" k3="1"/>
<feColorMatrix type="matrix" values="0 0 0 0 0 0 0 0 0 0 0 0 0 0 0 0 0 0 0.2 0"/>
<feBlend mode="normal" in2="shape" result="effect1_innerShadow_86_6748"/>
</filter>
<filter id="filter19_di_86_6748" x="120.926" y="78.98" width="15.8258" height="16.3104" filterUnits="userSpaceOnUse" color-interpolation-filters="sRGB">
<feFlood flood-opacity="0" result="BackgroundImageFix"/>
<feColorMatrix in="SourceAlpha" type="matrix" values="0 0 0 0 0 0 0 0 0 0 0 0 0 0 0 0 0 0 127 0" result="hardAlpha"/>
<feOffset dx="1.56819" dy="1.56819"/>
<feComposite in2="hardAlpha" operator="out"/>
<feColorMatrix type="matrix" values="0 0 0 0 0 0 0 0 0 0 0 0 0 0 0 0 0 0 0.25 0"/>
<feBlend mode="normal" in2="BackgroundImageFix" result="effect1_dropShadow_86_6748"/>
<feBlend mode="normal" in="SourceGraphic" in2="effect1_dropShadow_86_6748" result="shape"/>
<feColorMatrix in="SourceAlpha" type="matrix" values="0 0 0 0 0 0 0 0 0 0 0 0 0 0 0 0 0 0 127 0" result="hardAlpha"/>
<feOffset dx="1.56819" dy="0.784093"/>
<feComposite in2="hardAlpha" operator="arithmetic" k2="-1" k3="1"/>
<feColorMatrix type="matrix" values="0 0 0 0 0.733333 0 0 0 0 0.733333 0 0 0 0 0.733333 0 0 0 0.25 0"/>
<feBlend mode="normal" in2="shape" result="effect2_innerShadow_86_6748"/>
</filter>
<filter id="filter20_i_86_6748" x="375.85" y="53.0127" width="36.2493" height="35.8267" filterUnits="userSpaceOnUse" color-interpolation-filters="sRGB">
<feFlood flood-opacity="0" result="BackgroundImageFix"/>
<feBlend mode="normal" in="SourceGraphic" in2="BackgroundImageFix" result="shape"/>
<feColorMatrix in="SourceAlpha" type="matrix" values="0 0 0 0 0 0 0 0 0 0 0 0 0 0 0 0 0 0 127 0" result="hardAlpha"/>
<feOffset dy="-1.56819"/>
<feComposite in2="hardAlpha" operator="arithmetic" k2="-1" k3="1"/>
<feColorMatrix type="matrix" values="0 0 0 0 0 0 0 0 0 0 0 0 0 0 0 0 0 0 0.2 0"/>
<feBlend mode="normal" in2="shape" result="effect1_innerShadow_86_6748"/>
</filter>
<filter id="filter21_di_86_6748" x="386.426" y="59.3086" width="16.4161" height="15.8807" filterUnits="userSpaceOnUse" color-interpolation-filters="sRGB">
<feFlood flood-opacity="0" result="BackgroundImageFix"/>
<feColorMatrix in="SourceAlpha" type="matrix" values="0 0 0 0 0 0 0 0 0 0 0 0 0 0 0 0 0 0 127 0" result="hardAlpha"/>
<feOffset dx="1.56819" dy="1.56819"/>
<feComposite in2="hardAlpha" operator="out"/>
<feColorMatrix type="matrix" values="0 0 0 0 0 0 0 0 0 0 0 0 0 0 0 0 0 0 0.25 0"/>
<feBlend mode="normal" in2="BackgroundImageFix" result="effect1_dropShadow_86_6748"/>
<feBlend mode="normal" in="SourceGraphic" in2="effect1_dropShadow_86_6748" result="shape"/>
<feColorMatrix in="SourceAlpha" type="matrix" values="0 0 0 0 0 0 0 0 0 0 0 0 0 0 0 0 0 0 127 0" result="hardAlpha"/>
<feOffset dx="1.56819" dy="0.784093"/>
<feComposite in2="hardAlpha" operator="arithmetic" k2="-1" k3="1"/>
<feColorMatrix type="matrix" values="0 0 0 0 0.733333 0 0 0 0 0.733333 0 0 0 0 0.733333 0 0 0 0.25 0"/>
<feBlend mode="normal" in2="shape" result="effect2_innerShadow_86_6748"/>
</filter>
<linearGradient id="paint0_linear_86_6748" x1="296.452" y1="155.382" x2="288.774" y2="211.687" gradientUnits="userSpaceOnUse">
<stop stop-color="#9F9AC0"/>
<stop offset="0.901058" stop-color="#36334C"/>
</linearGradient>
<linearGradient id="paint1_linear_86_6748" x1="346.456" y1="207.681" x2="332.639" y2="231.434" gradientUnits="userSpaceOnUse">
<stop stop-color="#FFD2B9"/>
<stop offset="0.459401" stop-color="#9F8064"/>
<stop offset="1" stop-color="#A77E4D"/>
</linearGradient>
<linearGradient id="paint2_linear_86_6748" x1="312.59" y1="204.341" x2="313.799" y2="214.948" gradientUnits="userSpaceOnUse">
<stop stop-color="white"/>
<stop offset="1" stop-color="#E4E4E4"/>
</linearGradient>
<linearGradient id="paint3_linear_86_6748" x1="322.593" y1="215.38" x2="317.664" y2="232.401" gradientUnits="userSpaceOnUse">
<stop stop-color="#C7915F"/>
<stop offset="1" stop-color="#8F6943"/>
</linearGradient>
<linearGradient id="paint4_linear_86_6748" x1="216.188" y1="155.383" x2="223.865" y2="211.687" gradientUnits="userSpaceOnUse">
<stop stop-color="#9F9AC0"/>
<stop offset="0.901058" stop-color="#36334C"/>
</linearGradient>
<linearGradient id="paint5_linear_86_6748" x1="166.183" y1="207.681" x2="180" y2="231.434" gradientUnits="userSpaceOnUse">
<stop stop-color="#FFD2B9"/>
<stop offset="0.459401" stop-color="#9F8064"/>
<stop offset="1" stop-color="#A77E4D"/>
</linearGradient>
<linearGradient id="paint6_linear_86_6748" x1="200.049" y1="204.341" x2="198.84" y2="214.949" gradientUnits="userSpaceOnUse">
<stop stop-color="white"/>
<stop offset="1" stop-color="#E4E4E4"/>
</linearGradient>
<linearGradient id="paint7_linear_86_6748" x1="190.045" y1="215.381" x2="194.975" y2="232.401" gradientUnits="userSpaceOnUse">
<stop stop-color="#C7915F"/>
<stop offset="1" stop-color="#8F6943"/>
</linearGradient>
<linearGradient id="paint8_linear_86_6748" x1="195.326" y1="90.8888" x2="195.326" y2="113.519" gradientUnits="userSpaceOnUse">
<stop stop-color="white"/>
<stop offset="1" stop-color="#E6B28A"/>
</linearGradient>
<linearGradient id="paint9_linear_86_6748" x1="169.456" y1="99.0095" x2="175.203" y2="123.235" gradientUnits="userSpaceOnUse">
<stop stop-color="#A7A2C9"/>
<stop offset="1" stop-color="#312D46"/>
</linearGradient>
<linearGradient id="paint10_linear_86_6748" x1="262.406" y1="15.7289" x2="278.876" y2="169.648" gradientUnits="userSpaceOnUse">
<stop stop-color="#FF6464"/>
<stop offset="1" stop-color="#A92837"/>
</linearGradient>
<linearGradient id="paint11_linear_86_6748" x1="244.404" y1="17.6594" x2="260.874" y2="171.578" gradientUnits="userSpaceOnUse">
<stop stop-color="white"/>
<stop offset="1" stop-color="#FFA4A4"/>
</linearGradient>
<linearGradient id="paint12_linear_86_6748" x1="244.404" y1="17.6594" x2="260.874" y2="171.578" gradientUnits="userSpaceOnUse">
<stop stop-color="#FF99A6"/>
<stop offset="1" stop-color="#FF4545"/>
</linearGradient>
<linearGradient id="paint13_linear_86_6748" x1="242.584" y1="32.8335" x2="243.585" y2="42.1892" gradientUnits="userSpaceOnUse">
<stop stop-color="#6C6C6C"/>
<stop offset="1"/>
</linearGradient>
<linearGradient id="paint14_linear_86_6748" x1="254.93" y1="148.222" x2="255.848" y2="156.798" gradientUnits="userSpaceOnUse">
<stop stop-color="#6C6C6C"/>
<stop offset="1"/>
</linearGradient>
<linearGradient id="paint15_linear_86_6748" x1="198.032" y1="100.187" x2="205.048" y2="99.4366" gradientUnits="userSpaceOnUse">
<stop stop-color="#6C6C6C"/>
<stop offset="1"/>
</linearGradient>
<linearGradient id="paint16_linear_86_6748" x1="299.386" y1="89.3437" x2="305.623" y2="88.6762" gradientUnits="userSpaceOnUse">
<stop stop-color="#6C6C6C"/>
<stop offset="1"/>
</linearGradient>
<linearGradient id="paint17_linear_86_6748" x1="208.471" y1="129.389" x2="213.688" y2="125.23" gradientUnits="userSpaceOnUse">
<stop stop-color="#6C6C6C"/>
<stop offset="1"/>
</linearGradient>
<linearGradient id="paint18_linear_86_6748" x1="290.909" y1="63.6786" x2="296.127" y2="59.5197" gradientUnits="userSpaceOnUse">
<stop stop-color="#6C6C6C"/>
<stop offset="1"/>
</linearGradient>
<linearGradient id="paint19_linear_86_6748" x1="229.133" y1="144.34" x2="231.485" y2="138.096" gradientUnits="userSpaceOnUse">
<stop stop-color="#6C6C6C"/>
<stop offset="1"/>
</linearGradient>
<linearGradient id="paint20_linear_86_6748" x1="266.306" y1="45.687" x2="268.659" y2="39.4433" gradientUnits="userSpaceOnUse">
<stop stop-color="#6C6C6C"/>
<stop offset="1"/>
</linearGradient>
<linearGradient id="paint21_linear_86_6748" x1="278.585" y1="144.696" x2="275.169" y2="138.964" gradientUnits="userSpaceOnUse">
<stop stop-color="#6C6C6C"/>
<stop offset="1"/>
</linearGradient>
<linearGradient id="paint22_linear_86_6748" x1="220.779" y1="52.6434" x2="217.363" y2="46.9121" gradientUnits="userSpaceOnUse">
<stop stop-color="#6C6C6C"/>
<stop offset="1"/>
</linearGradient>
<linearGradient id="paint23_linear_86_6748" x1="297.164" y1="119.577" x2="291.049" y2="116.907" gradientUnits="userSpaceOnUse">
<stop stop-color="#6C6C6C"/>
<stop offset="1"/>
</linearGradient>
<linearGradient id="paint24_linear_86_6748" x1="206.888" y1="74.9128" x2="201.267" y2="71.3176" gradientUnits="userSpaceOnUse">
<stop stop-color="#6C6C6C"/>
<stop offset="1"/>
</linearGradient>
<linearGradient id="paint25_linear_86_6748" x1="5.33786" y1="0" x2="5.33786" y2="17.348" gradientUnits="userSpaceOnUse">
<stop stop-color="#A4948C"/>
<stop offset="1" stop-color="#332721"/>
</linearGradient>
<linearGradient id="paint26_linear_86_6748" x1="5.33786" y1="0" x2="5.33786" y2="17.348" gradientUnits="userSpaceOnUse">
<stop stop-color="#A4948C"/>
<stop offset="1" stop-color="#332721"/>
</linearGradient>
<linearGradient id="paint27_linear_86_6748" x1="7.54351" y1="0" x2="7.54351" y2="28.0091" gradientUnits="userSpaceOnUse">
<stop stop-color="white"/>
<stop offset="1" stop-color="#E6B28A"/>
</linearGradient>
<linearGradient id="paint28_linear_86_6748" x1="354.678" y1="90.2301" x2="354.188" y2="115.123" gradientUnits="userSpaceOnUse">
<stop stop-color="#A7A2C9"/>
<stop offset="1" stop-color="#312D46"/>
</linearGradient>
<linearGradient id="paint29_linear_86_6748" x1="145.494" y1="94.2251" x2="145.494" y2="109.039" gradientUnits="userSpaceOnUse">
<stop stop-color="white"/>
<stop offset="1" stop-color="#DBDBDB"/>
</linearGradient>
<linearGradient id="paint30_linear_86_6748" x1="116.295" y1="69.605" x2="129.837" y2="104.036" gradientUnits="userSpaceOnUse">
<stop stop-color="white"/>
<stop offset="1" stop-color="#E4E4E4"/>
</linearGradient>
<linearGradient id="paint31_linear_86_6748" x1="122.211" y1="84.3467" x2="128.963" y2="93.5425" gradientUnits="userSpaceOnUse">
<stop stop-color="#F4F4F4"/>
<stop offset="1" stop-color="white"/>
</linearGradient>
<linearGradient id="paint32_linear_86_6748" x1="4.93795" y1="0" x2="4.93795" y2="14.8138" gradientUnits="userSpaceOnUse">
<stop stop-color="white"/>
<stop offset="1" stop-color="#DBDBDB"/>
</linearGradient>
<linearGradient id="paint33_linear_86_6748" x1="402.065" y1="47.6983" x2="396.115" y2="84.2148" gradientUnits="userSpaceOnUse">
<stop stop-color="white"/>
<stop offset="1" stop-color="#E4E4E4"/>
</linearGradient>
<linearGradient id="paint34_linear_86_6748" x1="399.403" y1="63.3635" x2="394.748" y2="73.7803" gradientUnits="userSpaceOnUse">
<stop stop-color="#F4F4F4"/>
<stop offset="1" stop-color="white"/>
</linearGradient>
<linearGradient id="paint35_linear_86_6748" x1="4.00339" y1="0" x2="4.00339" y2="12.0102" gradientUnits="userSpaceOnUse">
<stop stop-color="#A4948C"/>
<stop offset="1" stop-color="#332721"/>
</linearGradient>
</defs>
</svg>
