<svg width="24" height="25" viewBox="0 0 24 25" fill="none" xmlns="http://www.w3.org/2000/svg">
<path fill-rule="evenodd" clip-rule="evenodd" d="M14.1047 13.27C14.5422 13.27 14.8881 12.93 14.8881 12.5C14.8881 12.08 14.5422 11.73 14.1047 11.73H8V6.95C8 4.5 10.0247 2.5 12.5276 2.5H17.4826C19.9753 2.5 22 4.49 22 6.94L22 18.05C22 20.51 19.9651 22.5 17.4724 22.5H12.5073C10.0247 22.5 8 20.51 8 18.06L8 13.27H14.1047ZM4.3698 15.9598L1.4498 13.0498C1.2998 12.8998 1.2198 12.7098 1.2198 12.4998C1.2198 12.2998 1.2998 12.0998 1.4498 11.9598L4.3698 9.0498C4.5198 8.8998 4.7198 8.8198 4.9098 8.8198C5.1098 8.8198 5.3098 8.8998 5.4598 9.0498C5.7598 9.3498 5.7598 9.8398 5.4598 10.1398L3.8598 11.7298H7.9998V13.2698H3.8598L5.4598 14.8598C5.7598 15.1598 5.7598 15.6498 5.4598 15.9498C5.1598 16.2598 4.6698 16.2598 4.3698 15.9598Z" fill="white"/>
</svg>
