<svg width="176" height="126" viewBox="0 0 176 126" fill="none" xmlns="http://www.w3.org/2000/svg">
<path d="M45.6303 88.5183L56.9466 86.7686L56.3708 59.602L64.2341 57.6993L63.5105 48.4077L34.1318 51.4448L34.9929 62.7937L42.8855 60.9031L45.6303 88.5183Z" fill="white"/>
<path d="M168.64 34.228L148.384 43.3323L154.508 46.8677L146.602 62.0358L135.819 31.6087L142.828 28.9136L122.366 15.5435L116.141 39.1798L124.023 36.1479L138.861 68.8644L138.483 88.5097H151.327L151.463 69.325L165.077 52.9693L170.883 56.3226L168.64 34.228Z" fill="white"/>
<path d="M57.6257 90.9551L36.5503 93.8048L37.5351 102.964L43.2569 101.886L45.6631 120.225L53.7671 118.711L52.7925 100.181L58.5246 99.181L57.6257 90.9551Z" fill="white"/>
<path d="M59.8481 94.1039L63.3389 120.33L71.4429 118.818L70.0661 92.1943L59.8481 94.1039Z" fill="white"/>
<path d="M87.9979 105.482L84.0172 92.5655L73.9883 92.9556L73.5981 119.919L82.613 119.646L82.6525 107.003L85.7343 117.89H89.1683L93.1868 105.716L93.1094 120.817L102.007 120.426L103.802 91.7852H93.3054L87.9979 105.482Z" fill="white"/>
<path d="M104.034 118.723L120.728 120.786C121 119.391 121.28 118.003 121.57 116.62C121.86 115.237 122.147 113.843 122.43 112.438L119.032 111.938L114.245 111.231L114.853 108.442L120.673 109.104L121.979 103.182L116.227 102.333L116.779 99.9271L125.029 100.709C125.31 99.5152 125.57 98.3304 125.809 97.1547C126.047 95.9791 126.295 94.7932 126.551 93.5969L108.754 90.981L104.034 118.723Z" fill="white"/>
<path d="M33.5975 70.3379C33.0934 69.2315 32.3667 68.241 31.4628 67.428C30.5505 66.6272 29.4868 66.0176 28.3346 65.6354C27.054 65.215 25.7073 65.0321 24.3609 65.0957C23.9903 65.0933 23.6199 65.1157 23.2523 65.1627C22.8043 65.2154 22.3184 65.263 21.7948 65.3054C21.2791 65.3466 20.7446 65.3672 20.2084 65.3638C19.7105 65.3652 19.2137 65.318 18.7251 65.2229C18.3186 65.1502 17.9321 64.9927 17.5907 64.7605C17.3167 64.5525 17.1291 64.2507 17.0638 63.913C16.9984 63.5752 17.06 63.2252 17.2366 62.93C17.4202 62.6476 17.6675 62.4121 17.9585 62.2425C18.2967 62.0459 18.6558 61.8879 19.0293 61.7716C19.4245 61.6436 19.8261 61.5363 20.2324 61.4502C20.6323 61.3654 21.0168 61.3007 21.3857 61.256C21.7518 61.2113 22.0526 61.1769 22.2881 61.1546C23.607 61.0312 24.9351 61.0433 26.2515 61.1907C27.5814 61.3323 28.9016 61.5545 30.2046 61.8558L30.16 50.8197C29.3141 50.5147 28.4442 50.2807 27.5595 50.1202C26.6429 49.9523 25.718 49.833 24.7888 49.7627C23.8493 49.692 22.9067 49.6702 21.9649 49.6974C21.0231 49.7249 20.1121 49.7821 19.2321 49.8692C17.2778 50.0523 15.3672 50.5569 13.5774 51.3628C11.8436 52.1331 10.2651 53.2136 8.91959 54.5511C7.60574 55.8652 6.58121 57.4394 5.91177 59.1728C5.22426 60.9363 4.98249 62.8791 5.18645 65.0011C5.3141 66.4706 5.71146 67.9039 6.35864 69.2293C6.95324 70.4543 7.78584 71.5487 8.80787 72.4485C9.82187 73.329 11.0085 73.9881 12.2918 74.3838C13.6824 74.8059 15.1441 74.9416 16.5887 74.7826L17.448 74.6983C17.8073 74.6623 18.1957 74.6434 18.6134 74.6382C19.031 74.633 19.4573 74.6519 19.8973 74.6915C20.3063 74.7228 20.7101 74.8024 21.1004 74.9287C21.4314 75.0354 21.736 75.2112 21.9942 75.4443C22.2321 75.6646 22.3782 75.9666 22.4032 76.2899C22.438 76.5034 22.4252 76.7219 22.3658 76.9299C22.3064 77.1379 22.2018 77.3302 22.0595 77.493C21.7623 77.8054 21.4011 78.0499 21.0007 78.2098C20.5591 78.3902 20.0975 78.5171 19.6257 78.5879C19.1433 78.6624 18.7314 78.7156 18.3899 78.7477C16.5369 78.9213 14.6693 78.8607 12.8315 78.5673C11.001 78.2953 9.22002 77.758 7.54458 76.9723L7.43802 88.1992C8.24583 88.4822 9.1688 88.7778 10.2069 89.086C11.2451 89.3943 12.3199 89.671 13.4313 89.9162C14.5451 90.1614 15.6388 90.3499 16.7124 90.4817C17.685 90.6108 18.6688 90.6338 19.6463 90.5504C21.8173 90.3537 23.9465 89.8322 25.9628 89.0035C27.8068 88.254 29.4845 87.1471 30.899 85.7465C32.2802 84.3532 33.3263 82.664 33.9584 80.8068C34.6344 78.8818 34.8522 76.6875 34.6115 74.224C34.4971 72.8803 34.1542 71.5661 33.5975 70.3379Z" fill="white"/>
<path d="M80.6092 87.5345C83.7612 87.5566 86.855 86.686 89.5329 85.0234C90.8028 84.2298 91.9591 83.2677 92.9705 82.1634C93.9909 81.0552 94.8659 79.8215 95.5744 78.4921C96.2963 77.133 96.847 75.6897 97.2141 74.1952C97.5972 72.6391 97.7883 71.042 97.783 69.4394C97.783 66.804 97.363 64.4155 96.5231 62.2739C95.7502 60.2121 94.538 58.3431 92.9707 56.7965C91.4033 55.25 89.5183 54.0628 87.4464 53.3175C85.2876 52.504 82.8986 52.0978 80.2792 52.0989C78.707 52.0896 77.1425 52.3179 75.6385 52.7761C74.1982 53.2149 72.8256 53.8511 71.5599 54.6667C70.3043 55.4798 69.1613 56.4547 68.1602 57.5663C67.15 58.6842 66.2807 59.9217 65.5718 61.2513C64.1193 63.9884 63.3609 67.0403 63.3632 70.139C63.3565 71.7063 63.5617 73.2673 63.9734 74.7796C64.3668 76.2317 64.9401 77.629 65.6801 78.939C66.4073 80.2246 67.3001 81.4092 68.3356 82.4624C69.3702 83.5167 70.5413 84.4277 71.8177 85.1712C73.1123 85.928 74.4986 86.5155 75.9428 86.9192C77.4622 87.3394 79.0327 87.5465 80.6092 87.5345ZM75.1298 69.8674C75.126 69.0967 75.2545 68.331 75.5096 67.6038C75.7488 66.9145 76.1214 66.2791 76.6062 65.7338C77.087 65.2008 77.672 64.772 78.325 64.4739C79.0438 64.1561 79.8233 63.9989 80.6092 64.0133C81.3785 63.9986 82.1387 64.1809 82.8178 64.5427C83.446 64.8824 83.9954 65.3509 84.43 65.9177C84.8745 66.5059 85.2104 67.1689 85.4217 67.8754C85.6497 68.6076 85.7656 69.3702 85.7654 70.1372C85.7678 70.9206 85.64 71.6989 85.3873 72.4404C85.1479 73.1555 84.7804 73.8212 84.3028 74.4049C83.8331 74.9743 83.2471 75.4367 82.584 75.761C81.8649 76.1039 81.0757 76.274 80.2792 76.2577C79.4965 76.2752 78.7238 76.0785 78.0448 75.6888C77.4067 75.3136 76.8568 74.8053 76.4326 74.1987C75.9935 73.571 75.6634 72.8737 75.4563 72.1361C75.2425 71.3988 75.1325 70.6352 75.1298 69.8674Z" fill="white"/>
<path d="M128.181 70.8158C128.904 69.9595 129.496 69.0002 129.937 67.9695C130.37 66.9299 130.649 65.8326 130.764 64.7125C130.89 63.4312 130.882 62.1403 130.74 60.8607C130.511 58.6137 129.866 56.691 128.806 55.0926C127.78 53.5267 126.424 52.2043 124.832 51.2185C123.193 50.2178 121.382 49.5291 119.492 49.1869C117.504 48.8147 115.473 48.7319 113.461 48.9412C112.131 49.0775 110.835 49.2408 109.575 49.431C108.315 49.6212 107.078 49.8653 105.864 50.1632C104.642 50.4608 103.438 50.8239 102.255 51.2512C101.024 51.6963 99.8193 52.2093 98.6455 52.7877C98.7463 54.8651 98.8821 56.9213 99.0529 58.9563C99.2236 60.9913 99.3955 63.0435 99.5685 65.1129C99.8767 69.2207 100.199 73.3102 100.534 77.3814C100.87 81.4526 101.199 85.5409 101.521 89.6464L113.112 88.4622L112.459 77.1992L115.792 76.7506L121.11 87.8142L133 84.2048L125.422 73.4265C126.431 72.6557 127.355 71.7806 128.181 70.8158ZM118.384 65.3295C118.051 66.0086 117.572 66.6055 116.981 67.0775C116.362 67.5693 115.665 67.9534 114.919 68.2136C114.163 68.4874 113.377 68.6674 112.578 68.7498L111.931 68.8151L111.345 58.7432C111.664 58.6197 111.99 58.5181 112.322 58.439C112.666 58.3589 113.015 58.3015 113.367 58.2671C114.089 58.1761 114.823 58.2346 115.522 58.439C116.124 58.6225 116.677 58.9385 117.141 59.3637C117.603 59.7974 117.971 60.3209 118.224 60.902C118.502 61.5517 118.676 62.2414 118.739 62.9456C118.848 63.7585 118.722 64.5855 118.377 65.3295H118.384Z" fill="white"/>
<path d="M45.6303 88.5183L56.9466 86.7686L56.3708 59.602L64.2341 57.6993L63.5105 48.4077L34.1318 51.4448L34.9929 62.7937L42.8855 60.9031L45.6303 88.5183Z" fill="white"/>
<path d="M168.64 34.228L148.384 43.3323L154.508 46.8677L146.602 62.0358L135.819 31.6087L142.828 28.9136L122.366 15.5435L116.141 39.1798L124.023 36.1479L138.861 68.8644L138.483 88.5097H151.327L151.463 69.325L165.077 52.9693L170.883 56.3226L168.64 34.228Z" fill="white"/>
<path d="M57.6257 90.9551L36.5503 93.8048L37.5351 102.964L43.2569 101.886L45.6631 120.225L53.7671 118.711L52.7925 100.181L58.5246 99.181L57.6257 90.9551Z" fill="#F3F3F3"/>
<path d="M59.8481 94.1039L63.3389 120.33L71.4429 118.818L70.0661 92.1943L59.8481 94.1039Z" fill="#F3F3F3"/>
<path d="M87.9979 105.482L84.0172 92.5655L73.9883 92.9556L73.5981 119.919L82.613 119.646L82.6525 107.003L85.7343 117.89H89.1683L93.1868 105.716L93.1094 120.817L102.007 120.426L103.802 91.7852H93.3054L87.9979 105.482Z" fill="#F3F3F3"/>
<path d="M104.034 118.723L120.728 120.786C121 119.391 121.28 118.003 121.57 116.62C121.86 115.237 122.147 113.843 122.43 112.438L119.032 111.938L114.245 111.231L114.853 108.442L120.673 109.104L121.979 103.182L116.227 102.333L116.779 99.9271L125.029 100.709C125.31 99.5152 125.57 98.3304 125.809 97.1547C126.047 95.9791 126.295 94.7932 126.551 93.5969L108.754 90.981L104.034 118.723Z" fill="#F3F3F3"/>
<path d="M33.5975 70.3379C33.0934 69.2315 32.3667 68.241 31.4628 67.428C30.5505 66.6272 29.4868 66.0176 28.3346 65.6354C27.054 65.215 25.7073 65.0321 24.3609 65.0957C23.9903 65.0933 23.6199 65.1157 23.2523 65.1627C22.8043 65.2154 22.3184 65.263 21.7948 65.3054C21.2791 65.3466 20.7446 65.3672 20.2084 65.3638C19.7105 65.3652 19.2137 65.318 18.7251 65.2229C18.3186 65.1502 17.9321 64.9927 17.5907 64.7605C17.3167 64.5525 17.1291 64.2507 17.0638 63.913C16.9984 63.5752 17.06 63.2252 17.2366 62.93C17.4202 62.6476 17.6675 62.4121 17.9585 62.2425C18.2967 62.0459 18.6558 61.8879 19.0293 61.7716C19.4245 61.6436 19.8261 61.5363 20.2324 61.4502C20.6323 61.3654 21.0168 61.3007 21.3857 61.256C21.7518 61.2113 22.0526 61.1769 22.2881 61.1546C23.607 61.0312 24.9351 61.0433 26.2515 61.1907C27.5814 61.3323 28.9016 61.5545 30.2046 61.8558L30.16 50.8197C29.3141 50.5147 28.4442 50.2807 27.5595 50.1202C26.6429 49.9523 25.718 49.833 24.7888 49.7627C23.8493 49.692 22.9067 49.6702 21.9649 49.6974C21.0231 49.7249 20.1121 49.7821 19.2321 49.8692C17.2778 50.0523 15.3672 50.5569 13.5774 51.3628C11.8439 52.1337 10.2655 53.2141 8.91959 54.5511C7.60622 55.8655 6.58175 57.4397 5.91177 59.1728C5.22426 60.9363 4.98249 62.8791 5.18645 65.0011C5.3141 66.4706 5.71146 67.9039 6.35864 69.2293C6.95324 70.4543 7.78584 71.5487 8.80787 72.4485C9.82187 73.329 11.0085 73.9881 12.2918 74.3838C13.6824 74.8059 15.1441 74.9416 16.5887 74.7826L17.448 74.6983C17.8073 74.6623 18.1957 74.6434 18.6134 74.6382C19.031 74.633 19.4573 74.6519 19.8973 74.6915C20.3063 74.7228 20.7101 74.8024 21.1004 74.9287C21.4314 75.0354 21.736 75.2112 21.9942 75.4443C22.2321 75.6646 22.3782 75.9666 22.4032 76.2899C22.438 76.5034 22.4252 76.7219 22.3658 76.9299C22.3064 77.1379 22.2018 77.3302 22.0595 77.493C21.7623 77.8054 21.4011 78.0499 21.0007 78.2098C20.5591 78.3902 20.0975 78.5171 19.6257 78.5879C19.1433 78.6624 18.7314 78.7156 18.3899 78.7477C16.5369 78.9213 14.6693 78.8607 12.8315 78.5673C11.001 78.2953 9.22002 77.758 7.54458 76.9723L7.43802 88.1992C8.24583 88.4822 9.1688 88.7778 10.2069 89.086C11.2451 89.3943 12.3199 89.671 13.4313 89.9162C14.5451 90.1614 15.6388 90.3499 16.7124 90.4817C17.685 90.6108 18.6688 90.6338 19.6463 90.5504C21.8173 90.3537 23.9465 89.8322 25.9628 89.0035C27.8068 88.254 29.4845 87.1471 30.899 85.7465C32.2802 84.3532 33.3263 82.664 33.9584 80.8068C34.6344 78.8818 34.8522 76.6875 34.6115 74.224C34.4971 72.8803 34.1542 71.5661 33.5975 70.3379Z" fill="white"/>
<path d="M80.6092 87.5345C83.7612 87.5566 86.855 86.686 89.5329 85.0234C90.8028 84.2298 91.9591 83.2677 92.9705 82.1634C93.9904 81.0548 94.8653 79.8212 95.5744 78.4921C96.2963 77.133 96.847 75.6897 97.2141 74.1952C97.5972 72.6391 97.7883 71.042 97.783 69.4394C97.783 66.804 97.363 64.4155 96.5231 62.2739C95.7502 60.2121 94.538 58.3431 92.9707 56.7965C91.4033 55.25 89.5183 54.0628 87.4464 53.3175C85.2876 52.504 82.8986 52.0978 80.2792 52.0989C78.707 52.0896 77.1425 52.3179 75.6385 52.7761C74.1982 53.2149 72.8256 53.8511 71.5599 54.6667C70.3043 55.4798 69.1613 56.4547 68.1602 57.5663C67.15 58.6842 66.2807 59.9217 65.5718 61.2513C64.1193 63.9884 63.3609 67.0403 63.3632 70.139C63.3565 71.7063 63.5617 73.2673 63.9734 74.7796C64.3668 76.2317 64.9401 77.629 65.6801 78.939C66.4073 80.2246 67.3001 81.4092 68.3356 82.4624C69.3702 83.5167 70.5413 84.4277 71.8177 85.1712C73.1123 85.928 74.4986 86.5155 75.9428 86.9192C77.4622 87.3394 79.0327 87.5465 80.6092 87.5345ZM75.1298 69.8674C75.126 69.0967 75.2545 68.331 75.5096 67.6038C75.7488 66.9145 76.1214 66.2791 76.6062 65.7338C77.0872 65.2011 77.6721 64.7723 78.325 64.4739C79.0439 64.1565 79.8234 63.9993 80.6092 64.0133C81.3785 63.9986 82.1387 64.1809 82.8178 64.5427C83.446 64.8824 83.9954 65.3509 84.43 65.9177C84.8745 66.5059 85.2104 67.1689 85.4217 67.8754C85.6497 68.6076 85.7656 69.3702 85.7654 70.1372C85.7678 70.9206 85.64 71.6989 85.3873 72.4404C85.1479 73.1555 84.7804 73.8212 84.3028 74.4049C83.8331 74.9743 83.2471 75.4367 82.584 75.761C81.8649 76.1039 81.0757 76.274 80.2792 76.2577C79.4965 76.2752 78.7238 76.0785 78.0448 75.6888C77.4067 75.3136 76.8568 74.8053 76.4326 74.1987C75.9935 73.571 75.6634 72.8737 75.4563 72.1361C75.2425 71.3988 75.1325 70.6352 75.1298 69.8674Z" fill="white"/>
<path d="M128.181 70.8158C128.904 69.9595 129.496 69.0002 129.937 67.9695C130.37 66.9299 130.649 65.8326 130.764 64.7125C130.89 63.4312 130.882 62.1403 130.74 60.8607C130.511 58.6137 129.866 56.691 128.806 55.0926C127.78 53.5267 126.424 52.2043 124.832 51.2185C123.193 50.2178 121.382 49.5291 119.492 49.1869C117.504 48.8147 115.473 48.7319 113.461 48.9412C112.131 49.0775 110.835 49.2408 109.575 49.431C108.315 49.6212 107.078 49.8653 105.864 50.1632C104.642 50.4608 103.438 50.8239 102.255 51.2512C101.024 51.6963 99.8193 52.2093 98.6455 52.7877C98.7463 54.8651 98.8821 56.9213 99.0529 58.9563C99.2236 60.9913 99.3955 63.0435 99.5685 65.1129C99.8767 69.2207 100.199 73.3102 100.534 77.3814C100.87 81.4526 101.199 85.5409 101.521 89.6464L113.112 88.4622L112.459 77.1992L115.792 76.7506L121.11 87.8142L133 84.2048L125.422 73.4265C126.431 72.6557 127.355 71.7806 128.181 70.8158ZM118.384 65.3295C118.051 66.0086 117.572 66.6055 116.981 67.0775C116.362 67.5693 115.665 67.9534 114.919 68.2136C114.163 68.4874 113.377 68.6674 112.578 68.7498L111.931 68.8151L111.345 58.7432C111.664 58.6197 111.99 58.5181 112.322 58.439C112.666 58.3589 113.015 58.3015 113.367 58.2671C114.089 58.1761 114.823 58.2346 115.522 58.439C116.124 58.6225 116.677 58.9385 117.141 59.3637C117.603 59.7974 117.971 60.3209 118.224 60.902C118.502 61.5517 118.676 62.2414 118.739 62.9456C118.848 63.7585 118.722 64.5855 118.377 65.3295H118.384Z" fill="white"/>
<path d="M122.375 11.9908C123.065 11.9906 123.741 12.1919 124.319 12.57L144.772 25.9402C145.319 26.2982 145.757 26.8002 146.037 27.3911C146.317 27.982 146.429 28.6388 146.36 29.2891C146.291 29.9394 146.044 30.558 145.645 31.0767C145.247 31.5955 144.714 31.9943 144.103 32.2291L140.322 33.6832L147.223 53.1567L149.785 48.2428L146.609 46.4089C146.043 46.0818 145.578 45.6047 145.265 45.0302C144.953 44.4557 144.805 43.8061 144.838 43.1529C144.871 42.4998 145.084 41.8684 145.453 41.3284C145.822 40.7884 146.332 40.3607 146.929 40.0924L167.184 30.983C167.697 30.7533 168.257 30.6485 168.819 30.6774C169.38 30.7063 169.926 30.868 170.413 31.1492C170.899 31.4305 171.312 31.8232 171.618 32.2951C171.923 32.767 172.112 33.3046 172.169 33.8637L174.403 55.9583C174.47 56.6092 174.356 57.2659 174.073 57.856C173.79 58.446 173.35 58.9465 172.801 59.3021C172.251 59.6577 171.615 59.8547 170.96 59.8712C170.306 59.8877 169.66 59.7232 169.094 59.3958L165.878 57.5395L155.007 70.621L154.88 88.5355C154.875 89.4748 154.499 90.374 153.833 91.0365C153.167 91.6991 152.266 92.071 151.327 92.071H138.483C138.01 92.0713 137.543 91.9774 137.107 91.7946C136.671 91.6119 136.276 91.344 135.946 91.0068C135.615 90.6695 135.354 90.2696 135.18 89.8305C135.006 89.3914 134.921 88.9219 134.93 88.4496L134.956 87.1897C134.67 87.3791 134.358 87.5256 134.03 87.6246L126.259 89.9793L127.069 90.0996C127.549 90.1702 128.01 90.3386 128.423 90.5944C128.836 90.8503 129.192 91.1881 129.469 91.5869C129.746 91.9858 129.938 92.4373 130.034 92.9134C130.129 93.3896 130.126 93.8803 130.025 94.3552C129.77 95.5583 129.523 96.7374 129.291 97.8804C129.045 99.0835 128.775 100.318 128.487 101.54C128.318 102.258 127.929 102.907 127.374 103.394C126.82 103.882 126.127 104.185 125.393 104.26L124.258 109.401C124.892 109.778 125.392 110.342 125.689 111.016C125.987 111.69 126.068 112.44 125.92 113.162C125.633 114.571 125.346 115.971 125.061 117.361C124.777 118.712 124.499 120.097 124.229 121.486C124.072 122.294 123.638 123.023 123.003 123.547C122.368 124.071 121.571 124.358 120.747 124.36C120.599 124.36 120.452 124.351 120.305 124.332L104.946 122.417C104.636 122.876 104.223 123.256 103.739 123.527C103.256 123.798 102.716 123.952 102.162 123.976L93.2658 124.366H93.1094C92.2711 124.367 91.4597 124.071 90.8189 123.53C90.178 122.99 89.7492 122.24 89.6083 121.414C89.4623 121.431 89.3154 121.439 89.1683 121.439H85.6775C85.3738 121.959 84.9429 122.392 84.4254 122.699C83.908 123.006 83.321 123.177 82.7196 123.194L73.7064 123.467H73.5981C72.6893 123.467 71.8153 123.118 71.1558 122.493L63.9989 123.828C63.784 123.868 63.566 123.888 63.3475 123.889C62.4852 123.888 61.6526 123.573 61.0047 123.004C60.3569 122.435 59.9379 121.65 59.8258 120.795L57.4539 102.973L56.5154 103.136L57.3233 118.523C57.3683 119.383 57.0994 120.23 56.5667 120.906C56.034 121.583 55.2737 122.043 54.4272 122.201L46.3232 123.715C46.1083 123.755 45.8903 123.775 45.6718 123.775C44.8091 123.775 43.9759 123.461 43.3276 122.892C42.6793 122.322 42.2602 121.537 42.1484 120.681L40.232 106.072L38.2021 106.455C37.7204 106.546 37.2252 106.536 36.7476 106.426C36.27 106.316 35.8203 106.108 35.4268 105.816C35.0333 105.524 34.7044 105.153 34.4609 104.728C34.2174 104.303 34.0645 103.832 34.0118 103.344L33.0269 94.1851C32.9282 93.2651 33.1922 92.3428 33.7629 91.6145C34.3336 90.8862 35.166 90.4093 36.0829 90.2852L42.2171 89.4551C42.1637 89.2631 42.1257 89.0671 42.1037 88.869L39.7542 65.3066L35.8216 66.2484C35.6443 66.2909 35.4638 66.319 35.282 66.3327C35.8866 67.1057 36.401 67.9454 36.8151 68.8352C37.5454 70.4301 37.9988 72.1377 38.1557 73.8849C38.4445 76.8532 38.1557 79.5791 37.3204 81.9854C36.512 84.3448 35.1792 86.4903 33.4223 88.2605C31.6757 89.9907 29.6045 91.3587 27.3276 92.2858C24.9841 93.2483 22.5097 93.8543 19.9868 94.0837C19.5279 94.1283 19.0466 94.1507 18.5568 94.1507C17.7954 94.1483 17.0349 94.1001 16.2794 94.0063C15.1003 93.8619 13.8835 93.6523 12.67 93.3824C11.4789 93.1194 10.3119 92.8204 9.19986 92.4904C8.08782 92.1604 7.11845 91.8493 6.26251 91.5554C5.56327 91.3094 4.95847 90.8509 4.53284 90.244C4.10721 89.6372 3.88205 88.9124 3.88891 88.1712L3.99547 76.9442C4.00086 76.3947 4.13357 75.8538 4.38317 75.3641C4.63278 74.8745 4.99249 74.4493 5.43407 74.1221C4.52817 73.131 3.76828 72.0157 3.17734 70.81C2.33902 69.0973 1.82172 67.2454 1.65109 65.3461C1.38984 62.6803 1.71812 60.1606 2.605 57.8781C3.45389 55.6904 4.74861 53.7033 6.40688 52.0429C8.05657 50.4023 9.99065 49.0751 12.1149 48.1259C14.2587 47.1581 16.5471 46.5496 18.8885 46.3246C19.8407 46.2318 20.841 46.17 21.8585 46.139C22.1575 46.1304 22.4583 46.1253 22.754 46.1253C23.5205 46.1253 24.3008 46.1562 25.0588 46.2129C26.112 46.2926 27.1601 46.428 28.199 46.6186C29.2787 46.8161 30.34 47.1036 31.3718 47.4779C31.8322 47.6463 32.2529 47.9078 32.6076 48.2462C32.9724 48.0703 33.3649 47.9586 33.7677 47.9162L63.1464 44.874C63.2684 44.862 63.3905 44.8551 63.5125 44.8551C64.4068 44.8559 65.2679 45.1937 65.9241 45.8012C66.5804 46.4087 66.9835 47.2412 67.0531 48.1328L67.4553 53.3114C68.1454 52.7199 68.874 52.175 69.6364 51.6803C71.1755 50.6888 72.8433 49.9133 74.5933 49.3754C76.4349 48.8142 78.3503 48.5326 80.2755 48.5401C83.3108 48.5401 86.1433 49.0265 88.6974 49.9873C91.0931 50.8712 93.2888 52.2232 95.1565 53.9645C95.1376 53.6208 95.1187 53.2959 95.1032 52.9608C95.0688 52.2682 95.2379 51.5808 95.5898 50.9833C95.9417 50.3859 96.4609 49.9046 97.0832 49.5989C98.3725 48.9631 99.6956 48.3985 101.047 47.9076C102.348 47.4361 103.674 47.0344 105.019 46.7045C106.327 46.3848 107.679 46.1184 109.037 45.9121C110.354 45.7128 111.72 45.5409 113.099 45.3965C113.945 45.3104 114.796 45.2668 115.647 45.2659C117.155 45.2704 118.659 45.4142 120.14 45.6956C121.901 46.0237 123.609 46.5916 125.216 47.3834L122.172 40.6803L117.416 42.5107C116.804 42.7468 116.139 42.8088 115.494 42.6899C114.849 42.571 114.249 42.2759 113.762 41.8372C113.274 41.3986 112.917 40.8335 112.731 40.2045C112.545 39.5756 112.536 38.9074 112.707 38.274L118.937 14.6377C119.137 13.8788 119.583 13.2075 120.205 12.7286C120.827 12.2498 121.59 11.9903 122.375 11.9908ZM135.083 80.9919L135.303 69.6L134.026 66.783C133.523 69.1089 132.455 71.2752 130.917 73.0908C130.673 73.383 130.414 73.6729 130.142 73.9605L135.083 80.9919ZM122.375 10.4302C121.245 10.4311 120.147 10.8057 119.252 11.4955C118.358 12.1853 117.716 13.1517 117.428 14.2441L111.203 37.877C110.9 39.0187 111.002 40.23 111.492 41.305C111.981 42.38 112.828 43.2524 113.887 43.774C113.571 43.7946 113.255 43.8204 112.94 43.8531C111.538 43.9957 110.146 44.171 108.803 44.3687C107.399 44.5818 106.002 44.8568 104.649 45.1868C103.253 45.528 101.876 45.944 100.524 46.4329C99.1179 46.9421 97.7408 47.5285 96.3991 48.1895C95.248 48.755 94.3512 49.7321 93.8863 50.9275C92.4436 49.9387 90.8851 49.1306 89.2457 48.5212C86.3732 47.4696 83.3343 46.9456 80.2755 46.9743C78.1942 46.9673 76.1237 47.272 74.1327 47.8784C72.2474 48.4588 70.4505 49.295 68.7925 50.3637L68.6086 48.009C68.509 46.7249 67.9285 45.5257 66.9831 44.651C66.0377 43.7763 64.797 43.2907 63.5091 43.291C63.3372 43.291 63.1653 43.2996 62.9814 43.3168L33.6062 46.3521C33.3634 46.378 33.1227 46.421 32.886 46.4811C32.5774 46.2852 32.2483 46.1239 31.9046 45.9998C30.7916 45.5975 29.6469 45.2887 28.4826 45.0768C27.3889 44.8777 26.2857 44.7354 25.1774 44.6506C24.3747 44.5904 23.5583 44.5595 22.754 44.5595C22.4429 44.5595 22.1266 44.5595 21.8121 44.5732C20.7585 44.6042 19.7238 44.6695 18.7372 44.7657C16.2261 45.0066 13.7716 45.6586 11.4721 46.6959C9.1752 47.7229 7.08392 49.1584 5.30001 50.9326C3.48918 52.7476 2.07514 54.919 1.1475 57.3092C0.171244 59.822 -0.189695 62.5772 0.0938996 65.4973C0.282638 67.5885 0.852941 69.6274 1.77656 71.513C2.22079 72.408 2.74666 73.2601 3.3475 74.0585C2.76318 74.9027 2.44419 75.9021 2.43141 76.9288L2.32656 88.1557C2.31623 89.2227 2.63996 90.2662 3.25238 91.1399C3.8648 92.0137 4.73523 92.674 5.74173 93.0284C6.62173 93.3377 7.63236 93.6643 8.75642 93.996C9.88049 94.3277 11.106 94.6457 12.3314 94.9173C13.6016 95.1974 14.8683 95.4157 16.0972 95.5652C16.9155 95.6665 17.7391 95.7188 18.5636 95.7216C19.1033 95.7216 19.6361 95.6959 20.1449 95.6477C22.8225 95.4018 25.4485 94.7576 27.936 93.7365C29.3573 93.1476 30.7095 92.404 31.9682 91.5193C31.5343 92.3962 31.3613 93.3794 31.4698 94.3518L32.4529 103.511C32.5289 104.213 32.7492 104.891 33.0999 105.504C33.4506 106.116 33.9242 106.65 34.4909 107.07C35.0575 107.491 35.7051 107.79 36.3928 107.949C37.0806 108.107 37.7937 108.122 38.4874 107.992L38.8931 107.916L40.5946 120.891C40.6858 121.58 40.9163 122.244 41.2722 122.841C41.6281 123.439 42.1019 123.957 42.6648 124.366C43.2276 124.774 43.8677 125.063 44.546 125.216C45.2243 125.369 45.9267 125.382 46.6103 125.255L54.7142 123.741C55.4672 123.598 56.1785 123.288 56.796 122.834C57.4135 122.381 57.9214 121.794 58.2823 121.118C58.3867 121.786 58.6218 122.427 58.9743 123.004C59.3267 123.581 59.7895 124.083 60.3362 124.482C61.2083 125.117 62.2601 125.457 63.3389 125.454C63.6531 125.454 63.9666 125.425 64.2756 125.368L70.7313 124.165C71.577 124.74 72.5759 125.046 73.5981 125.045H73.7563L82.7677 124.772C83.474 124.752 84.1683 124.584 84.8063 124.281C85.4443 123.977 86.012 123.544 86.4733 123.009H88.4843C88.9002 123.883 89.5555 124.622 90.3741 125.139C91.1927 125.656 92.1411 125.93 93.1094 125.93H93.3312L102.231 125.54C103.493 125.482 104.689 124.96 105.591 124.074L120.101 125.87C120.311 125.896 120.522 125.91 120.733 125.91C121.919 125.908 123.068 125.494 123.983 124.739C124.898 123.984 125.523 122.935 125.75 121.771C126.018 120.396 126.297 119.021 126.577 117.675C126.871 116.266 127.163 114.851 127.436 113.466C127.574 112.786 127.571 112.084 127.43 111.405C127.288 110.725 127.009 110.082 126.611 109.513C126.426 109.247 126.216 108.999 125.982 108.774L126.69 105.561C127.506 105.279 128.238 104.795 128.816 104.155C129.395 103.514 129.803 102.737 130.001 101.897C130.293 100.656 130.566 99.4084 130.814 98.1898C131.044 97.0554 131.292 95.8746 131.546 94.6783C131.691 93.9944 131.694 93.2879 131.556 92.6025C131.418 91.9171 131.142 91.2671 130.743 90.6926C130.657 90.5688 130.571 90.4485 130.47 90.3333L133.442 89.4327C133.656 90.6115 134.277 91.6778 135.196 92.4456C136.116 93.2133 137.276 93.6337 138.474 93.6334H151.318C152.668 93.6298 153.962 93.0945 154.919 92.1434C155.877 91.1923 156.421 89.9022 156.434 88.5527L156.557 71.1933L166.242 59.5573L168.317 60.7605C169.133 61.2344 170.065 61.4732 171.009 61.4503C171.953 61.4274 172.872 61.1438 173.664 60.6308C174.457 60.1178 175.092 59.3954 175.499 58.5438C175.907 57.6921 176.07 56.7443 175.972 55.8053L173.738 33.7107C173.656 32.9039 173.384 32.1279 172.944 31.447C172.503 30.766 171.907 30.1995 171.205 29.7942C170.503 29.389 169.714 29.1565 168.904 29.1161C168.094 29.0756 167.286 29.2284 166.547 29.5616L146.291 38.671C145.509 39.0209 144.828 39.5617 144.309 40.2437L142.312 34.5959L144.672 33.6884C145.551 33.3499 146.32 32.7754 146.893 32.0281C147.466 31.2808 147.822 30.3898 147.921 29.4532C148.021 28.5165 147.86 27.5707 147.456 26.7197C147.052 25.8688 146.421 25.1459 145.633 24.6305L125.18 11.2603C124.346 10.7163 123.371 10.4277 122.375 10.4302ZM37.8291 67.3742L38.3757 67.2436L38.5373 68.873C38.441 68.6358 38.3396 68.4038 38.2331 68.1752C38.1059 67.9036 37.9712 67.6366 37.8291 67.3742ZM34.9245 88.9515C36.6491 87.0954 37.9659 84.8986 38.7899 82.5027C39.1472 81.4786 39.4107 80.4241 39.5771 79.3522L40.4502 88.1179L35.8646 88.7366C35.5453 88.7799 35.2306 88.8524 34.9245 88.9532V88.9515Z" fill="white"/>
<g filter="url(#filter0_d_86_13951)">
<path fill-rule="evenodd" clip-rule="evenodd" d="M94.2048 58.6536C91.172 56.3779 85.5097 52.7988 82.6345 51.045L84.8033 47.4892C88.0212 49.4519 95.3611 54.0818 98.0988 56.429L97.9943 56.5509C98.1106 57.06 98.2268 57.5578 98.3411 58.0476L98.3412 58.0477C99.0218 60.9638 99.6364 63.5972 99.8262 66.6319L95.6692 66.8918C95.5029 64.2321 94.9784 61.9781 94.3015 59.0693L94.3015 59.0692C94.2696 58.9321 94.2374 58.7936 94.2048 58.6536Z" fill="url(#paint0_linear_86_13951)"/>
<path d="M109.439 73.1468L109.666 71.0443L94.9937 70.6213L95.1018 73.3309L100.149 73.5173L100.202 72.8949L101.732 73.3379C106.505 74.8224 108.859 73.8291 109.439 73.1468Z" fill="#61472D"/>
<g filter="url(#filter1_i_86_13951)">
<path d="M96.0895 72.4926C94.4032 72.4907 94.9319 69.3884 95.5735 67.2616C95.737 66.7198 96.1069 66.259 96.6301 66.0433C97.7578 65.5784 99.5164 65.1826 101.092 65.8325C101.383 65.9527 101.657 66.0538 101.913 66.1395C103.263 66.5915 105.6 66.2679 106.987 66.589C107.527 66.714 108.077 66.8871 108.592 67.0361C109.18 67.2065 109.828 67.882 109.741 70.5494C109.653 73.2168 107.42 73.7481 103.755 73.0031C100.09 72.2581 98.4952 72.4952 96.0895 72.4926Z" fill="url(#paint1_linear_86_13951)"/>
</g>
<path d="M100.669 65.8217L95.6084 67.4476C94.9122 67.085 95.2715 65.6447 95.7378 64.9471C96.684 64.471 98.7444 63.555 99.4157 63.6994C100.087 63.8439 100.686 65.1753 100.669 65.8217Z" fill="url(#paint2_linear_86_13951)"/>
<circle cx="0.735019" cy="0.735019" r="0.36751" transform="matrix(-0.960531 -0.278174 -0.278174 0.960531 104.129 67.9126)" stroke="#395E66" stroke-width="0.735019"/>
<path d="M103.729 66.6489L103.184 68.5316" stroke="white" stroke-width="0.490013" stroke-linecap="round"/>
<circle cx="0.735019" cy="0.735019" r="0.36751" transform="matrix(-0.960531 -0.278174 -0.278174 0.960531 102.482 67.4346)" stroke="#395E66" stroke-width="0.735019"/>
<path d="M102.083 66.1709L101.537 68.0536" stroke="white" stroke-width="0.490013" stroke-linecap="round"/>
<path d="M99.9145 68.6035C99.7041 67.2162 98.6709 66.5854 98.2054 66.5781L95.5267 67.4603C94.7892 71.3279 95.5685 71.4261 95.8482 71.6346C100.729 71.5176 104.175 72.3881 104.596 72.255L104.497 71.7162L104.197 70.9916C103.407 69.8445 101.125 68.8266 99.9145 68.6035Z" fill="url(#paint3_linear_86_13951)"/>
<path d="M109.411 71.4814C109.179 72.1369 107.47 73.3423 101.905 71.8583C101.799 71.785 100.486 71.6513 96.0834 71.7028C95.9038 71.7358 95.4914 71.6334 95.2784 70.9595" stroke="#FCE1C7" stroke-width="0.122503" stroke-dasharray="0.25 0.25"/>
<path d="M109.207 72.1885C108.974 72.8439 107.265 74.0493 101.7 72.5654C101.594 72.4921 100.281 72.3583 95.8788 72.4098C95.6992 72.4428 95.2868 72.3404 95.0738 71.6665" stroke="#40352C" stroke-width="0.122503" stroke-dasharray="0.25 0.25"/>
<path d="M104.752 66.4342L104.674 69.345L104.114 70.8406C103.627 70.3173 102.114 69.1137 99.9489 68.4867C99.8612 67.9086 99.4134 66.7246 98.3234 66.613" stroke="#FCE1C7" stroke-width="0.122503" stroke-dasharray="0.25 0.25"/>
<path d="M105.248 66.4494L105.179 69.3626L104.379 71.6819C103.811 71.0496 102.129 69.6271 99.5769 68.8882C99.48 68.1846 98.9346 66.8656 97.6476 66.7423" stroke="#473A2F" stroke-width="0.122503" stroke-dasharray="0.25 0.25"/>
<path d="M101.401 71.8411C100.502 70.688 97.9829 68.5811 95.0992 69.3785" stroke="#FCE1C7" stroke-width="0.122503" stroke-dasharray="0.25 0.25"/>
<path fill-rule="evenodd" clip-rule="evenodd" d="M65.9797 58.6526C69.0126 56.377 74.6748 52.7978 77.5501 51.0441L75.3812 47.4882C72.1634 49.4509 64.8235 54.0809 62.0858 56.428L62.1903 56.55C62.0739 57.059 61.9577 57.5568 61.8434 58.0466L61.8434 58.0467C61.1628 60.9629 60.5481 63.5963 60.3584 66.6309L64.5154 66.8909C64.6817 64.2311 65.2062 61.9771 65.8831 59.0683L65.8831 59.0682C65.915 58.9312 65.9472 58.7927 65.9797 58.6526Z" fill="url(#paint4_linear_86_13951)"/>
<path d="M50.7453 73.1459L50.519 71.0433L65.1908 70.6204L65.0828 73.3299L60.0353 73.5163L59.9826 72.8939L58.4529 73.3369C53.6793 74.8214 51.3255 73.8281 50.7453 73.1459Z" fill="#61472D"/>
<g filter="url(#filter2_i_86_13951)">
<path d="M64.095 72.4916C65.7814 72.4897 65.2527 69.3874 64.611 67.2606C64.4476 66.7189 64.0776 66.258 63.5545 66.0423C62.4268 65.5775 60.6681 65.1816 59.0924 65.8316C58.8011 65.9517 58.5273 66.0528 58.2714 66.1385C56.9218 66.5905 54.5846 66.2669 53.198 66.588C52.6581 66.713 52.1072 66.8862 51.5927 67.0352C51.0044 67.2056 50.3562 67.881 50.4438 70.5484C50.5315 73.2159 52.7644 73.7471 56.4293 73.0021C60.0942 72.2571 61.6894 72.4943 64.095 72.4916Z" fill="url(#paint5_linear_86_13951)"/>
</g>
<path d="M59.5155 65.8207L64.5762 67.4466C65.2724 67.084 64.9131 65.6437 64.4468 64.9461C63.5006 64.4701 61.4402 63.554 60.7689 63.6985C60.0975 63.8429 59.4982 65.1743 59.5155 65.8207Z" fill="url(#paint6_linear_86_13951)"/>
<circle cx="56.9656" cy="68.4117" r="0.36751" transform="rotate(-16.1512 56.9656 68.4117)" stroke="#395E66" stroke-width="0.735019"/>
<path d="M56.4546 66.6465L56.9998 68.5292" stroke="white" stroke-width="0.490013" stroke-linecap="round"/>
<circle cx="58.6129" cy="67.9356" r="0.36751" transform="rotate(-16.1512 58.6129 67.9356)" stroke="#395E66" stroke-width="0.735019"/>
<path d="M58.1021 66.1704L58.6473 68.0531" stroke="white" stroke-width="0.490013" stroke-linecap="round"/>
<path d="M60.2701 68.6026C60.4805 67.2152 61.5136 66.5844 61.9792 66.5771L64.6579 67.4594C65.3953 71.327 64.616 71.4251 64.3363 71.6337C59.456 71.5166 56.0096 72.3872 55.5884 72.2541L55.6874 71.7152L55.9877 70.9906C56.7778 69.8435 59.0593 68.8257 60.2701 68.6026Z" fill="url(#paint7_linear_86_13951)"/>
<path d="M50.7732 71.4805C51.0055 72.1359 52.715 73.3413 58.2795 71.8574C58.3858 71.7841 59.699 71.6503 64.1011 71.7018C64.2808 71.7348 64.6932 71.6324 64.9062 70.9585" stroke="#FCE1C7" stroke-width="0.122503" stroke-dasharray="0.25 0.25"/>
<path d="M50.9778 72.1875C51.2101 72.8429 52.9196 74.0483 58.4841 72.5644C58.5904 72.4911 59.9035 72.3574 64.3057 72.4089C64.4853 72.4419 64.8978 72.3394 65.1108 71.6656" stroke="#40352C" stroke-width="0.122503" stroke-dasharray="0.25 0.25"/>
<path d="M55.4331 66.4332L55.5108 69.3441L56.0715 70.8397C56.5576 70.3163 58.0711 69.1127 60.2362 68.4857C60.3239 67.9077 60.7717 66.7237 61.8617 66.6121" stroke="#FCE1C7" stroke-width="0.122503" stroke-dasharray="0.25 0.25"/>
<path d="M54.9366 66.4484L55.0059 69.3616L55.8052 71.6809C56.3736 71.0487 58.056 69.6262 60.6077 68.8872C60.7046 68.1836 61.25 66.8646 62.537 66.7413" stroke="#473A2F" stroke-width="0.122503" stroke-dasharray="0.25 0.25"/>
<path d="M58.7842 71.8401C59.6832 70.687 62.2019 68.5801 65.0856 69.3775" stroke="#FCE1C7" stroke-width="0.122503" stroke-dasharray="0.25 0.25"/>
<ellipse cx="61.0336" cy="31.9337" rx="2.35713" ry="3.53569" transform="rotate(-20.9828 61.0336 31.9337)" fill="url(#paint8_linear_86_13951)"/>
<path d="M53.7245 34.9241C54.9093 33.4554 58.1624 30.675 59.6408 29.4683C62.5845 30.3276 61.659 35.5388 61.2245 36.7036C59.4992 38.2162 56.361 39.4417 53.5416 39.7434C50.7222 40.0451 45.8989 34.2937 43.9521 31.7762L45.3887 29.5257C46.4725 30.2484 50.2623 33.2677 52.0217 34.6869L53.7245 34.9241Z" fill="url(#paint9_linear_86_13951)"/>
<path d="M60.101 35.5921C60.8975 32.6732 60.0538 30.5458 59.2448 29.8932L59.6929 29.4756C60.6116 29.7716 61.3082 30.3706 61.5416 30.6331C62.6516 31.7956 62.3286 33.3825 62.0283 34.0306L60.101 35.5921Z" fill="#171717" fill-opacity="0.56"/>
<path d="M45.0712 33.1622C46.5479 32.474 46.7704 31.3153 46.9065 30.6808L47.6802 31.2294C47.7748 31.8196 47.6369 32.3767 47.5562 32.5815C47.22 33.5301 46.6476 34.3655 46.1999 34.3906L45.0712 33.1622Z" fill="#4E4E4E" fill-opacity="0.56"/>
<path d="M63.8365 31.1808C65.2577 44.462 75.6912 54.2353 87.1405 53.0101C98.5897 51.785 106.719 40.0253 105.298 26.7442C103.877 13.463 93.4432 3.68972 81.994 4.91487C64.3826 5.19771 62.4153 17.8997 63.8365 31.1808Z" fill="url(#paint10_linear_86_13951)"/>
<path d="M59.4293 31.6542C60.7973 44.4386 70.7717 53.5315 81.3848 52.3958C91.998 51.2601 99.8226 40.2626 98.4545 27.4783C97.0865 14.6939 87.1121 5.60102 76.499 6.73669C65.8859 7.87237 58.0613 18.8699 59.4293 31.6542Z" fill="url(#paint11_linear_86_13951)" stroke="url(#paint12_linear_86_13951)" stroke-width="2.45006"/>
<g filter="url(#filter3_d_86_13951)">
<path d="M75.6448 10.2749L75.9576 13.1983" stroke="url(#paint13_linear_86_13951)" stroke-width="0.980026" stroke-linecap="round"/>
</g>
<g filter="url(#filter4_d_86_13951)">
<path d="M79.5027 46.3301L79.7894 49.0098" stroke="url(#paint14_linear_86_13951)" stroke-width="0.980026" stroke-linecap="round"/>
</g>
<g filter="url(#filter5_d_86_13951)">
<path d="M61.8955 31.4619L64.088 31.2273" stroke="url(#paint15_linear_86_13951)" stroke-width="0.980025" stroke-linecap="round"/>
</g>
<g filter="url(#filter6_d_86_13951)">
<path d="M93.5657 28.0737L95.5146 27.8652" stroke="url(#paint16_linear_86_13951)" stroke-width="0.980026" stroke-linecap="round"/>
</g>
<g filter="url(#filter7_d_86_13951)">
<path d="M65.0432 40.3086L66.6736 39.0091" stroke="url(#paint17_linear_86_13951)" stroke-width="0.490013" stroke-linecap="round"/>
</g>
<g filter="url(#filter8_d_86_13951)">
<path d="M90.803 19.7749L92.4333 18.4754" stroke="url(#paint18_linear_86_13951)" stroke-width="0.490013" stroke-linecap="round"/>
</g>
<g filter="url(#filter9_d_86_13951)">
<path d="M71.4507 45.0454L72.1858 43.0944" stroke="url(#paint19_linear_86_13951)" stroke-width="0.490013" stroke-linecap="round"/>
</g>
<g filter="url(#filter10_d_86_13951)">
<path d="M83.0664 14.2197L83.8016 12.2687" stroke="url(#paint20_linear_86_13951)" stroke-width="0.490013" stroke-linecap="round"/>
</g>
<g filter="url(#filter11_d_86_13951)">
<g filter="url(#filter12_d_86_13951)">
<path d="M86.9153 45.2925L85.8477 43.5016" stroke="url(#paint21_linear_86_13951)" stroke-width="0.490013" stroke-linecap="round"/>
</g>
<g filter="url(#filter13_d_86_13951)">
<path d="M68.8525 16.5278L67.785 14.737" stroke="url(#paint22_linear_86_13951)" stroke-width="0.490013" stroke-linecap="round"/>
</g>
<g filter="url(#filter14_d_86_13951)">
<path d="M92.7922 37.5078L90.8815 36.6736" stroke="url(#paint23_linear_86_13951)" stroke-width="0.490013" stroke-linecap="round"/>
</g>
<g filter="url(#filter15_d_86_13951)">
<path d="M64.562 23.5405L62.8057 22.4171" stroke="url(#paint24_linear_86_13951)" stroke-width="0.490013" stroke-linecap="round"/>
</g>
</g>
<g filter="url(#filter16_i_86_13951)">
<path d="M85.9348 29.3688L81.5344 29.8396C79.4655 25.3595 80.9748 20.7473 81.2591 19.8392C81.6145 18.7042 83.4586 16.6263 85.387 21.2781C86.9297 24.9996 86.1994 28.8703 85.9348 29.3688Z" fill="white"/>
</g>
<ellipse cx="1.66792" cy="2.71038" rx="1.66792" ry="2.71038" transform="matrix(-0.994323 0.106399 0.106399 0.994323 85.208 23.4048)" fill="url(#paint25_linear_86_13951)"/>
<ellipse cx="0.416981" cy="0.625472" rx="0.416981" ry="0.625472" transform="matrix(-0.994323 0.106399 0.106399 0.994323 83.2683 24.8706)" fill="white"/>
<g filter="url(#filter17_i_86_13951)">
<path d="M74.7399 30.5665L70.3396 31.0374C68.2707 26.5573 69.78 21.945 70.0643 21.037C70.4197 19.9019 72.2638 17.824 74.1922 22.4759C75.7348 26.1974 75.0046 30.068 74.7399 30.5665Z" fill="white"/>
</g>
<ellipse cx="1.66792" cy="2.71038" rx="1.66792" ry="2.71038" transform="matrix(-0.994323 0.106399 0.106399 0.994323 74.0132 24.6025)" fill="url(#paint26_linear_86_13951)"/>
<ellipse cx="0.416981" cy="0.625472" rx="0.416981" ry="0.625472" transform="matrix(-0.994323 0.106399 0.106399 0.994323 72.0735 26.0684)" fill="white"/>
<ellipse cx="2.35713" cy="4.37601" rx="2.35713" ry="4.37601" transform="matrix(-0.988316 -0.15242 -0.15242 0.988316 106.005 27.7441)" fill="url(#paint27_linear_86_13951)"/>
<path d="M110.913 32.2526C109.444 31.0678 105.676 29.0387 103.976 28.1722C101.281 29.6348 101.536 34.1037 102.207 35.1502C104.214 36.2635 109.344 36.4044 112.164 36.1027C114.983 35.801 118.428 29.9807 119.798 27.1082L117.918 25.2126C117.011 26.1483 113.18 29.5974 111.761 31.3569L110.913 32.2526Z" fill="url(#paint28_linear_86_13951)"/>
<path d="M104.748 35.8656C103.352 33.1814 103.801 29.3141 104.453 28.505L103.927 28.1917C103.092 28.6754 102.538 29.4082 102.365 29.7141C101.325 32.6591 101.899 34.5689 102.329 35.1388L104.748 35.8656Z" fill="#171717" fill-opacity="0.56"/>
<path d="M119.105 28.4154C117.591 28.0846 117.167 27.0143 116.921 26.4314L116.297 27.1376C116.318 27.7299 116.551 28.2375 116.665 28.4172C117.156 29.2586 117.849 29.9368 118.274 29.8596L119.105 28.4154Z" fill="#4E4E4E" fill-opacity="0.56"/>
<ellipse cx="45.4621" cy="31.7563" rx="1.54296" ry="2.31445" transform="rotate(40.2119 45.4621 31.7563)" fill="url(#paint29_linear_86_13951)"/>
<g filter="url(#filter18_i_86_13951)">
<path d="M44.782 28.8537L46.2036 29.9522C46.6112 30.2672 46.7881 30.8089 46.5861 31.2829C45.8329 33.0508 44.9533 33.1894 44.3157 32.9693L42.2931 31.3377C41.6629 31.5709 40.6266 31.3469 39.622 30.3766C38.6174 29.4064 38.3286 29.7689 36.1642 28.674C33.9998 27.5791 34.2251 27.3892 34.5949 27.018C34.8906 26.721 37.0903 27.6353 38.1532 28.1295C38.07 27.8621 37.9289 27.2581 38.0304 26.982C38.1319 26.7058 38.5585 26.8149 38.7591 26.904C38.6336 26.7516 38.4404 26.3743 38.6714 26.0843C38.9024 25.7943 39.338 25.6814 39.5269 25.6612C39.3861 25.6209 39.1732 25.4171 39.4479 24.9234C39.7914 24.3064 41.4174 24.9614 42.424 25.1853C43.4307 25.4092 42.5482 22.519 43.3949 22.0139C44.2417 21.5088 45.1039 21.9139 44.4913 22.3111C43.8787 22.7083 44.0015 23.8558 44.3672 24.9774C44.6597 25.8746 44.7752 28.0253 44.782 28.8537Z" fill="url(#paint30_linear_86_13951)"/>
</g>
<g filter="url(#filter19_di_86_13951)">
<path fill-rule="evenodd" clip-rule="evenodd" d="M40.9654 24.8132C41.8025 25.0831 42.3631 25.6676 42.2177 26.1187C42.1073 26.461 41.6221 26.6281 41.0288 26.5709C41.3247 26.9173 41.4385 27.2934 41.2886 27.5675C41.0733 27.9613 40.3877 28.0108 39.69 27.7089C40.1465 28.3142 40.3001 28.9473 40.026 29.1885C39.7213 29.4567 39.0032 29.1389 38.4221 28.4787C37.841 27.8184 37.617 27.0658 37.9217 26.7976C38.0659 26.6707 38.3027 26.675 38.5737 26.7847C38.4184 26.516 38.3798 26.2484 38.4938 26.0398C38.6258 25.7984 38.9345 25.6864 39.3143 25.7054C39.1806 25.5148 39.1294 25.3178 39.1863 25.1412C39.3318 24.6901 40.1283 24.5432 40.9654 24.8132Z" fill="url(#paint31_linear_86_13951)"/>
</g>
<path d="M42.2799 31.2159C42.962 31.1429 43.5546 30.4634 43.7721 30.1938L42.2407 30.8504L41.5229 31.0504L42.2799 31.2159Z" fill="#B6B6B6"/>
<path d="M43.5825 31.8004C44.2655 31.7369 44.8691 31.0823 45.091 30.8222L43.5494 31.4443L42.9097 31.2691L43.5825 31.8004Z" fill="#B6B6B6"/>
<path d="M43.8502 30.9234C44.2092 30.885 44.423 30.5805 44.5289 30.3579L43.7401 30.8647L43.3667 31.0103L43.8502 30.9234Z" fill="#B6B6B6"/>
<path d="M43.2098 23.2936C43.3355 23.3536 43.5162 23.1944 43.6327 23.0658L43.1978 23.2265L43.0273 23.2372L43.2098 23.2936Z" fill="#ACABAB"/>
<path d="M41.4098 25.6363C41.2732 25.6633 41.2235 25.899 41.2069 26.0717L41.4596 25.6829L41.5898 25.5725L41.4098 25.6363Z" fill="#ACABAB"/>
<path d="M40.5021 26.8907C40.3655 26.9177 40.3157 27.1534 40.2992 27.326L40.5518 26.9373L40.6821 26.8269L40.5021 26.8907Z" fill="#ACABAB"/>
<path d="M39.4403 28.4845C39.3037 28.5115 39.254 28.7471 39.2374 28.9198L39.4901 28.5311L39.6203 28.4206L39.4403 28.4845Z" fill="#ACABAB"/>
<path d="M35.6828 27.8243C35.8982 27.8013 36.0166 27.5258 36.0726 27.3227L35.6143 27.766L35.3939 27.8881L35.6828 27.8243Z" fill="#B6B6B6"/>
<path d="M37.1661 28.322C37.337 28.1889 37.2923 27.8924 37.2328 27.6902L37.0771 28.3086L36.9543 28.5286L37.1661 28.322Z" fill="#B6B6B6"/>
<path d="M39.0292 27.2463C39.4306 27.7415 39.9061 27.913 40.2017 27.9665L38.9652 27.0636L38.4589 26.5947L39.0292 27.2463Z" fill="#ACABAB"/>
<path d="M40.4298 26.4883C39.8089 26.3436 39.4469 25.9908 39.2696 25.7483L40.622 26.466L41.265 26.7165L40.4298 26.4883Z" fill="#ACABAB"/>
<path d="M45.2681 32.2017C45.8425 32.1403 46.1906 31.7088 46.3645 31.3945L45.0935 32.1218L44.4937 32.3339L45.2681 32.2017Z" fill="#AAAAAA"/>
<path d="M44.7513 28.9806C44.438 29.5069 44.4517 29.5148 44.2231 29.7752L44.6086 28.1542L44.7037 27.384L44.8601 28.8457L44.7513 28.9806Z" fill="#AAAAAA"/>
<path d="M42.4901 28.236C42.0403 28.6518 41.6942 28.5721 41.4011 28.7569L41.9714 28.3632L42.7818 26.6436L42.4901 28.236Z" fill="#B6B6B6"/>
<path d="M45.1782 29.5998C44.8503 29.0652 44.8369 29.0749 44.7088 28.7392L45.9866 29.8253L46.4908 30.2716L45.6365 29.7111L45.249 29.7643L45.1782 29.5998Z" fill="#AAAAAA"/>
<ellipse cx="1.54296" cy="2.31445" rx="1.54296" ry="2.31445" transform="matrix(-0.609765 0.792582 0.792582 0.609765 117.94 23.9868)" fill="url(#paint32_linear_86_13951)"/>
<g filter="url(#filter20_i_86_13951)">
<path d="M118.885 23.6378L117.728 25.0123C117.396 25.4064 117.338 25.9733 117.635 26.3938C118.745 27.9623 119.634 27.9117 120.211 27.5616L121.843 25.5389C122.508 25.6336 123.473 25.1954 124.25 24.0345C125.026 22.8736 125.385 23.1669 127.269 21.6388C129.153 20.1107 128.892 19.9728 128.453 19.6882C128.101 19.4606 126.144 20.8196 125.21 21.5275C125.235 21.2485 125.245 20.6284 125.087 20.38C124.93 20.1315 124.536 20.3284 124.359 20.4579C124.449 20.2824 124.558 19.8728 124.271 19.6383C123.984 19.4037 123.534 19.3855 123.345 19.4057C123.474 19.3366 123.639 19.0923 123.266 18.668C122.8 18.1375 121.349 19.1218 120.413 19.5536C119.476 19.9854 119.727 16.974 118.793 16.6594C117.859 16.3449 117.101 16.9233 117.784 17.1819C118.467 17.4405 118.59 18.588 118.47 19.7615C118.374 20.7004 118.716 22.8268 118.885 23.6378Z" fill="url(#paint33_linear_86_13951)"/>
</g>
<g filter="url(#filter21_di_86_13951)">
<path fill-rule="evenodd" clip-rule="evenodd" d="M121.76 18.8839C120.999 19.3248 120.575 20.0147 120.813 20.4248C120.993 20.736 121.502 20.7967 122.07 20.6153C121.854 21.0164 121.823 21.408 122.027 21.6442C122.321 21.9836 123.002 21.8867 123.62 21.4435C123.301 22.1323 123.285 22.7845 123.604 22.9624C123.959 23.1601 124.593 22.6975 125.022 21.9292C125.45 21.161 125.509 20.378 125.155 20.1803C124.987 20.0868 124.756 20.1412 124.514 20.306C124.61 20.0101 124.591 19.7398 124.435 19.5597C124.255 19.3517 123.93 19.3076 123.563 19.4065C123.653 19.1919 123.662 18.9885 123.569 18.828C123.331 18.4179 122.521 18.4429 121.76 18.8839Z" fill="url(#paint34_linear_86_13951)"/>
</g>
<path d="M121.83 25.4187C121.148 25.4916 120.425 24.953 120.155 24.7354L121.791 25.0532L122.534 25.0968L121.83 25.4187Z" fill="#B6B6B6"/>
<path d="M120.68 26.2659C119.999 26.3485 119.271 25.8363 118.999 25.6291L120.637 25.9109L121.225 25.6044L120.68 26.2659Z" fill="#B6B6B6"/>
<path d="M120.233 25.4656C119.874 25.5041 119.601 25.2517 119.45 25.0566L120.328 25.3851L120.724 25.4483L120.233 25.4656Z" fill="#B6B6B6"/>
<path d="M119.244 17.8715C119.134 17.9567 118.924 17.8393 118.783 17.7384L119.242 17.8033L119.41 17.7777L119.244 17.8715Z" fill="#ACABAB"/>
<path d="M121.499 19.7794C121.639 19.7769 121.737 19.9967 121.79 20.1619L121.461 19.8355L121.31 19.7551L121.499 19.7794Z" fill="#ACABAB"/>
<path d="M122.652 20.815C122.792 20.8125 122.89 21.0323 122.943 21.1976L122.614 20.8711L122.463 20.7907L122.652 20.815Z" fill="#ACABAB"/>
<path d="M124.027 22.1471C124.166 22.1446 124.265 22.3644 124.317 22.5296L123.988 22.2031L123.838 22.1228L124.027 22.1471Z" fill="#ACABAB"/>
<path d="M127.56 20.7067C127.344 20.7298 127.17 20.4856 127.073 20.2989L127.614 20.6352L127.856 20.7079L127.56 20.7067Z" fill="#B6B6B6"/>
<path d="M126.215 21.5086C126.02 21.4145 126.001 21.1153 126.017 20.9051L126.299 21.4766L126.466 21.6656L126.215 21.5086Z" fill="#B6B6B6"/>
<path d="M124.167 20.8515C123.88 21.4205 123.451 21.6887 123.174 21.8035L124.191 20.6595L124.587 20.0941L124.167 20.8515Z" fill="#ACABAB"/>
<path d="M122.637 20.4044C123.214 20.1316 123.493 19.7103 123.615 19.4357L122.445 20.4233L121.869 20.8042L122.637 20.4044Z" fill="#ACABAB"/>
<path d="M119.118 27.0151C118.543 27.0765 118.112 26.7284 117.875 26.4581L119.271 26.9L119.902 26.9804L119.118 27.0151Z" fill="#AAAAAA"/>
<path d="M118.942 23.7555C119.359 24.2036 119.347 24.2142 119.626 24.4204L118.906 22.9176L118.65 22.185L118.807 23.6467L118.942 23.7555Z" fill="#AAAAAA"/>
<path d="M120.994 22.5483C121.522 22.8595 121.843 22.7083 122.169 22.827L121.528 22.5629L120.372 21.0536L120.994 22.5483Z" fill="#B6B6B6"/>
<path d="M118.655 24.4523C118.862 23.8604 118.877 23.8671 118.932 23.5119L117.913 24.8438L117.514 25.3867L118.231 24.6581L118.621 24.6281L118.655 24.4523Z" fill="#AAAAAA"/>
<path d="M86.9085 34.9463C86.9872 35.6822 86.8573 36.433 86.526 37.1561C86.1947 37.8791 85.6686 38.5602 84.9778 39.1603C84.287 39.7605 83.4449 40.2681 82.4996 40.654C81.5544 41.04 80.5245 41.2968 79.4688 41.4098C78.413 41.5227 77.3521 41.4897 76.3466 41.3125C75.3411 41.1352 74.4107 40.8173 73.6085 40.3769C72.8063 39.9365 72.148 39.3822 71.6713 38.7456C71.1945 38.109 70.9086 37.4027 70.8299 36.6669L78.8692 35.8066L86.9085 34.9463Z" fill="#4A3D37"/>
<ellipse cx="1.25094" cy="1.87642" rx="1.25094" ry="1.87642" transform="matrix(-0.994323 0.106399 0.106399 0.994323 79.2781 27.6313)" fill="url(#paint35_linear_86_13951)"/>
<path d="M70.8296 36.6665L86.9082 34.946C87.009 35.8878 86.3272 36.733 85.3854 36.8338L72.7174 38.1893C71.7756 38.2901 70.9304 37.6083 70.8296 36.6665Z" fill="white"/>
<path d="M73.6824 40.3023C75.1185 39.2464 84.3568 37.4945 85.1323 39.0771C83.8882 40.6678 77.7973 42.8811 73.6824 40.3023Z" fill="#FF5E61"/>
</g>
<defs>
<filter id="filter0_d_86_13951" x="34.356" y="4.81104" width="94.4128" height="71.4144" filterUnits="userSpaceOnUse" color-interpolation-filters="sRGB">
<feFlood flood-opacity="0" result="BackgroundImageFix"/>
<feColorMatrix in="SourceAlpha" type="matrix" values="0 0 0 0 0 0 0 0 0 0 0 0 0 0 0 0 0 0 127 0" result="hardAlpha"/>
<feOffset dy="2.11561"/>
<feComposite in2="hardAlpha" operator="out"/>
<feColorMatrix type="matrix" values="0 0 0 0 0 0 0 0 0 0 0 0 0 0 0 0 0 0 0.25 0"/>
<feBlend mode="normal" in2="BackgroundImageFix" result="effect1_dropShadow_86_13951"/>
<feBlend mode="normal" in="SourceGraphic" in2="effect1_dropShadow_86_13951" result="shape"/>
</filter>
<filter id="filter1_i_86_13951" x="94.9585" y="65.4912" width="14.7903" height="7.81934" filterUnits="userSpaceOnUse" color-interpolation-filters="sRGB">
<feFlood flood-opacity="0" result="BackgroundImageFix"/>
<feBlend mode="normal" in="SourceGraphic" in2="BackgroundImageFix" result="shape"/>
<feColorMatrix in="SourceAlpha" type="matrix" values="0 0 0 0 0 0 0 0 0 0 0 0 0 0 0 0 0 0 127 0" result="hardAlpha"/>
<feOffset dy="-0.735019"/>
<feComposite in2="hardAlpha" operator="arithmetic" k2="-1" k3="1"/>
<feColorMatrix type="matrix" values="0 0 0 0 0 0 0 0 0 0 0 0 0 0 0 0 0 0 0.25 0"/>
<feBlend mode="normal" in2="shape" result="effect1_innerShadow_86_13951"/>
</filter>
<filter id="filter2_i_86_13951" x="50.4358" y="65.4902" width="14.7903" height="7.81934" filterUnits="userSpaceOnUse" color-interpolation-filters="sRGB">
<feFlood flood-opacity="0" result="BackgroundImageFix"/>
<feBlend mode="normal" in="SourceGraphic" in2="BackgroundImageFix" result="shape"/>
<feColorMatrix in="SourceAlpha" type="matrix" values="0 0 0 0 0 0 0 0 0 0 0 0 0 0 0 0 0 0 127 0" result="hardAlpha"/>
<feOffset dy="-0.735019"/>
<feComposite in2="hardAlpha" operator="arithmetic" k2="-1" k3="1"/>
<feColorMatrix type="matrix" values="0 0 0 0 0 0 0 0 0 0 0 0 0 0 0 0 0 0 0.25 0"/>
<feBlend mode="normal" in2="shape" result="effect1_innerShadow_86_13951"/>
</filter>
<filter id="filter3_d_86_13951" x="74.6648" y="9.53966" width="2.27299" height="4.88383" filterUnits="userSpaceOnUse" color-interpolation-filters="sRGB">
<feFlood flood-opacity="0" result="BackgroundImageFix"/>
<feColorMatrix in="SourceAlpha" type="matrix" values="0 0 0 0 0 0 0 0 0 0 0 0 0 0 0 0 0 0 127 0" result="hardAlpha"/>
<feOffset dy="0.245006"/>
<feGaussianBlur stdDeviation="0.245006"/>
<feComposite in2="hardAlpha" operator="out"/>
<feColorMatrix type="matrix" values="0 0 0 0 0 0 0 0 0 0 0 0 0 0 0 0 0 0 0.25 0"/>
<feBlend mode="normal" in2="BackgroundImageFix" result="effect1_dropShadow_86_13951"/>
<feBlend mode="normal" in="SourceGraphic" in2="effect1_dropShadow_86_13951" result="shape"/>
</filter>
<filter id="filter4_d_86_13951" x="78.5227" y="45.5948" width="2.24687" height="4.64018" filterUnits="userSpaceOnUse" color-interpolation-filters="sRGB">
<feFlood flood-opacity="0" result="BackgroundImageFix"/>
<feColorMatrix in="SourceAlpha" type="matrix" values="0 0 0 0 0 0 0 0 0 0 0 0 0 0 0 0 0 0 127 0" result="hardAlpha"/>
<feOffset dy="0.245006"/>
<feGaussianBlur stdDeviation="0.245006"/>
<feComposite in2="hardAlpha" operator="out"/>
<feColorMatrix type="matrix" values="0 0 0 0 0 0 0 0 0 0 0 0 0 0 0 0 0 0 0.25 0"/>
<feBlend mode="normal" in2="BackgroundImageFix" result="effect1_dropShadow_86_13951"/>
<feBlend mode="normal" in="SourceGraphic" in2="effect1_dropShadow_86_13951" result="shape"/>
</filter>
<filter id="filter5_d_86_13951" x="60.9155" y="30.4923" width="4.15263" height="2.19487" filterUnits="userSpaceOnUse" color-interpolation-filters="sRGB">
<feFlood flood-opacity="0" result="BackgroundImageFix"/>
<feColorMatrix in="SourceAlpha" type="matrix" values="0 0 0 0 0 0 0 0 0 0 0 0 0 0 0 0 0 0 127 0" result="hardAlpha"/>
<feOffset dy="0.245006"/>
<feGaussianBlur stdDeviation="0.245006"/>
<feComposite in2="hardAlpha" operator="out"/>
<feColorMatrix type="matrix" values="0 0 0 0 0 0 0 0 0 0 0 0 0 0 0 0 0 0 0.25 0"/>
<feBlend mode="normal" in2="BackgroundImageFix" result="effect1_dropShadow_86_13951"/>
<feBlend mode="normal" in="SourceGraphic" in2="effect1_dropShadow_86_13951" result="shape"/>
</filter>
<filter id="filter6_d_86_13951" x="92.5857" y="27.13" width="3.90898" height="2.16899" filterUnits="userSpaceOnUse" color-interpolation-filters="sRGB">
<feFlood flood-opacity="0" result="BackgroundImageFix"/>
<feColorMatrix in="SourceAlpha" type="matrix" values="0 0 0 0 0 0 0 0 0 0 0 0 0 0 0 0 0 0 127 0" result="hardAlpha"/>
<feOffset dy="0.245006"/>
<feGaussianBlur stdDeviation="0.245006"/>
<feComposite in2="hardAlpha" operator="out"/>
<feColorMatrix type="matrix" values="0 0 0 0 0 0 0 0 0 0 0 0 0 0 0 0 0 0 0.25 0"/>
<feBlend mode="normal" in2="BackgroundImageFix" result="effect1_dropShadow_86_13951"/>
<feBlend mode="normal" in="SourceGraphic" in2="effect1_dropShadow_86_13951" result="shape"/>
</filter>
<filter id="filter7_d_86_13951" x="64.3081" y="38.5192" width="3.10063" height="2.76958" filterUnits="userSpaceOnUse" color-interpolation-filters="sRGB">
<feFlood flood-opacity="0" result="BackgroundImageFix"/>
<feColorMatrix in="SourceAlpha" type="matrix" values="0 0 0 0 0 0 0 0 0 0 0 0 0 0 0 0 0 0 127 0" result="hardAlpha"/>
<feOffset dy="0.245006"/>
<feGaussianBlur stdDeviation="0.245006"/>
<feComposite in2="hardAlpha" operator="out"/>
<feColorMatrix type="matrix" values="0 0 0 0 0 0 0 0 0 0 0 0 0 0 0 0 0 0 0.25 0"/>
<feBlend mode="normal" in2="BackgroundImageFix" result="effect1_dropShadow_86_13951"/>
<feBlend mode="normal" in="SourceGraphic" in2="effect1_dropShadow_86_13951" result="shape"/>
</filter>
<filter id="filter8_d_86_13951" x="90.0678" y="17.9855" width="3.10063" height="2.76958" filterUnits="userSpaceOnUse" color-interpolation-filters="sRGB">
<feFlood flood-opacity="0" result="BackgroundImageFix"/>
<feColorMatrix in="SourceAlpha" type="matrix" values="0 0 0 0 0 0 0 0 0 0 0 0 0 0 0 0 0 0 127 0" result="hardAlpha"/>
<feOffset dy="0.245006"/>
<feGaussianBlur stdDeviation="0.245006"/>
<feComposite in2="hardAlpha" operator="out"/>
<feColorMatrix type="matrix" values="0 0 0 0 0 0 0 0 0 0 0 0 0 0 0 0 0 0 0.25 0"/>
<feBlend mode="normal" in2="BackgroundImageFix" result="effect1_dropShadow_86_13951"/>
<feBlend mode="normal" in="SourceGraphic" in2="effect1_dropShadow_86_13951" result="shape"/>
</filter>
<filter id="filter9_d_86_13951" x="70.7156" y="42.6041" width="2.20537" height="3.42143" filterUnits="userSpaceOnUse" color-interpolation-filters="sRGB">
<feFlood flood-opacity="0" result="BackgroundImageFix"/>
<feColorMatrix in="SourceAlpha" type="matrix" values="0 0 0 0 0 0 0 0 0 0 0 0 0 0 0 0 0 0 127 0" result="hardAlpha"/>
<feOffset dy="0.245006"/>
<feGaussianBlur stdDeviation="0.245006"/>
<feComposite in2="hardAlpha" operator="out"/>
<feColorMatrix type="matrix" values="0 0 0 0 0 0 0 0 0 0 0 0 0 0 0 0 0 0 0.25 0"/>
<feBlend mode="normal" in2="BackgroundImageFix" result="effect1_dropShadow_86_13951"/>
<feBlend mode="normal" in="SourceGraphic" in2="effect1_dropShadow_86_13951" result="shape"/>
</filter>
<filter id="filter10_d_86_13951" x="82.3313" y="11.7784" width="2.20537" height="3.42143" filterUnits="userSpaceOnUse" color-interpolation-filters="sRGB">
<feFlood flood-opacity="0" result="BackgroundImageFix"/>
<feColorMatrix in="SourceAlpha" type="matrix" values="0 0 0 0 0 0 0 0 0 0 0 0 0 0 0 0 0 0 127 0" result="hardAlpha"/>
<feOffset dy="0.245006"/>
<feGaussianBlur stdDeviation="0.245006"/>
<feComposite in2="hardAlpha" operator="out"/>
<feColorMatrix type="matrix" values="0 0 0 0 0 0 0 0 0 0 0 0 0 0 0 0 0 0 0.25 0"/>
<feBlend mode="normal" in2="BackgroundImageFix" result="effect1_dropShadow_86_13951"/>
<feBlend mode="normal" in="SourceGraphic" in2="effect1_dropShadow_86_13951" result="shape"/>
</filter>
<filter id="filter11_d_86_13951" x="62.0705" y="14.2467" width="31.4568" height="32.0259" filterUnits="userSpaceOnUse" color-interpolation-filters="sRGB">
<feFlood flood-opacity="0" result="BackgroundImageFix"/>
<feColorMatrix in="SourceAlpha" type="matrix" values="0 0 0 0 0 0 0 0 0 0 0 0 0 0 0 0 0 0 127 0" result="hardAlpha"/>
<feOffset dy="0.245006"/>
<feGaussianBlur stdDeviation="0.245006"/>
<feComposite in2="hardAlpha" operator="out"/>
<feColorMatrix type="matrix" values="0 0 0 0 0 0 0 0 0 0 0 0 0 0 0 0 0 0 0.25 0"/>
<feBlend mode="normal" in2="BackgroundImageFix" result="effect1_dropShadow_86_13951"/>
<feBlend mode="normal" in="SourceGraphic" in2="effect1_dropShadow_86_13951" result="shape"/>
</filter>
<filter id="filter12_d_86_13951" x="85.1128" y="43.0113" width="2.53764" height="3.26128" filterUnits="userSpaceOnUse" color-interpolation-filters="sRGB">
<feFlood flood-opacity="0" result="BackgroundImageFix"/>
<feColorMatrix in="SourceAlpha" type="matrix" values="0 0 0 0 0 0 0 0 0 0 0 0 0 0 0 0 0 0 127 0" result="hardAlpha"/>
<feOffset dy="0.245006"/>
<feGaussianBlur stdDeviation="0.245006"/>
<feComposite in2="hardAlpha" operator="out"/>
<feColorMatrix type="matrix" values="0 0 0 0 0 0 0 0 0 0 0 0 0 0 0 0 0 0 0.25 0"/>
<feBlend mode="normal" in2="BackgroundImageFix" result="effect1_dropShadow_86_13951"/>
<feBlend mode="normal" in="SourceGraphic" in2="effect1_dropShadow_86_13951" result="shape"/>
</filter>
<filter id="filter13_d_86_13951" x="67.05" y="14.2467" width="2.53764" height="3.26128" filterUnits="userSpaceOnUse" color-interpolation-filters="sRGB">
<feFlood flood-opacity="0" result="BackgroundImageFix"/>
<feColorMatrix in="SourceAlpha" type="matrix" values="0 0 0 0 0 0 0 0 0 0 0 0 0 0 0 0 0 0 127 0" result="hardAlpha"/>
<feOffset dy="0.245006"/>
<feGaussianBlur stdDeviation="0.245006"/>
<feComposite in2="hardAlpha" operator="out"/>
<feColorMatrix type="matrix" values="0 0 0 0 0 0 0 0 0 0 0 0 0 0 0 0 0 0 0.25 0"/>
<feBlend mode="normal" in2="BackgroundImageFix" result="effect1_dropShadow_86_13951"/>
<feBlend mode="normal" in="SourceGraphic" in2="effect1_dropShadow_86_13951" result="shape"/>
</filter>
<filter id="filter14_d_86_13951" x="90.1465" y="36.1837" width="3.3809" height="2.30424" filterUnits="userSpaceOnUse" color-interpolation-filters="sRGB">
<feFlood flood-opacity="0" result="BackgroundImageFix"/>
<feColorMatrix in="SourceAlpha" type="matrix" values="0 0 0 0 0 0 0 0 0 0 0 0 0 0 0 0 0 0 127 0" result="hardAlpha"/>
<feOffset dy="0.245006"/>
<feGaussianBlur stdDeviation="0.245006"/>
<feComposite in2="hardAlpha" operator="out"/>
<feColorMatrix type="matrix" values="0 0 0 0 0 0 0 0 0 0 0 0 0 0 0 0 0 0 0.25 0"/>
<feBlend mode="normal" in2="BackgroundImageFix" result="effect1_dropShadow_86_13951"/>
<feBlend mode="normal" in="SourceGraphic" in2="effect1_dropShadow_86_13951" result="shape"/>
</filter>
<filter id="filter15_d_86_13951" x="62.0705" y="21.9269" width="3.22661" height="2.5938" filterUnits="userSpaceOnUse" color-interpolation-filters="sRGB">
<feFlood flood-opacity="0" result="BackgroundImageFix"/>
<feColorMatrix in="SourceAlpha" type="matrix" values="0 0 0 0 0 0 0 0 0 0 0 0 0 0 0 0 0 0 127 0" result="hardAlpha"/>
<feOffset dy="0.245006"/>
<feGaussianBlur stdDeviation="0.245006"/>
<feComposite in2="hardAlpha" operator="out"/>
<feColorMatrix type="matrix" values="0 0 0 0 0 0 0 0 0 0 0 0 0 0 0 0 0 0 0.25 0"/>
<feBlend mode="normal" in2="BackgroundImageFix" result="effect1_dropShadow_86_13951"/>
<feBlend mode="normal" in="SourceGraphic" in2="effect1_dropShadow_86_13951" result="shape"/>
</filter>
<filter id="filter16_i_86_13951" x="80.4617" y="18.3823" width="5.87866" height="11.4575" filterUnits="userSpaceOnUse" color-interpolation-filters="sRGB">
<feFlood flood-opacity="0" result="BackgroundImageFix"/>
<feBlend mode="normal" in="SourceGraphic" in2="BackgroundImageFix" result="shape"/>
<feColorMatrix in="SourceAlpha" type="matrix" values="0 0 0 0 0 0 0 0 0 0 0 0 0 0 0 0 0 0 127 0" result="hardAlpha"/>
<feOffset dx="-0.245006" dy="0.245006"/>
<feComposite in2="hardAlpha" operator="arithmetic" k2="-1" k3="1"/>
<feColorMatrix type="matrix" values="0 0 0 0 0 0 0 0 0 0 0 0 0 0 0 0 0 0 0.4 0"/>
<feBlend mode="normal" in2="shape" result="effect1_innerShadow_86_13951"/>
</filter>
<filter id="filter17_i_86_13951" x="69.2668" y="19.5801" width="5.87866" height="11.4575" filterUnits="userSpaceOnUse" color-interpolation-filters="sRGB">
<feFlood flood-opacity="0" result="BackgroundImageFix"/>
<feBlend mode="normal" in="SourceGraphic" in2="BackgroundImageFix" result="shape"/>
<feColorMatrix in="SourceAlpha" type="matrix" values="0 0 0 0 0 0 0 0 0 0 0 0 0 0 0 0 0 0 127 0" result="hardAlpha"/>
<feOffset dx="-0.245006" dy="0.245006"/>
<feComposite in2="hardAlpha" operator="arithmetic" k2="-1" k3="1"/>
<feColorMatrix type="matrix" values="0 0 0 0 0 0 0 0 0 0 0 0 0 0 0 0 0 0 0.4 0"/>
<feBlend mode="normal" in2="shape" result="effect1_innerShadow_86_13951"/>
</filter>
<filter id="filter18_i_86_13951" x="34.356" y="21.7783" width="12.314" height="11.2705" filterUnits="userSpaceOnUse" color-interpolation-filters="sRGB">
<feFlood flood-opacity="0" result="BackgroundImageFix"/>
<feBlend mode="normal" in="SourceGraphic" in2="BackgroundImageFix" result="shape"/>
<feColorMatrix in="SourceAlpha" type="matrix" values="0 0 0 0 0 0 0 0 0 0 0 0 0 0 0 0 0 0 127 0" result="hardAlpha"/>
<feOffset dy="-0.490013"/>
<feComposite in2="hardAlpha" operator="arithmetic" k2="-1" k3="1"/>
<feColorMatrix type="matrix" values="0 0 0 0 0 0 0 0 0 0 0 0 0 0 0 0 0 0 0.2 0"/>
<feBlend mode="normal" in2="shape" result="effect1_innerShadow_86_13951"/>
</filter>
<filter id="filter19_di_86_13951" x="37.7856" y="24.6777" width="4.94509" height="5.09597" filterUnits="userSpaceOnUse" color-interpolation-filters="sRGB">
<feFlood flood-opacity="0" result="BackgroundImageFix"/>
<feColorMatrix in="SourceAlpha" type="matrix" values="0 0 0 0 0 0 0 0 0 0 0 0 0 0 0 0 0 0 127 0" result="hardAlpha"/>
<feOffset dx="0.490013" dy="0.490013"/>
<feComposite in2="hardAlpha" operator="out"/>
<feColorMatrix type="matrix" values="0 0 0 0 0 0 0 0 0 0 0 0 0 0 0 0 0 0 0.25 0"/>
<feBlend mode="normal" in2="BackgroundImageFix" result="effect1_dropShadow_86_13951"/>
<feBlend mode="normal" in="SourceGraphic" in2="effect1_dropShadow_86_13951" result="shape"/>
<feColorMatrix in="SourceAlpha" type="matrix" values="0 0 0 0 0 0 0 0 0 0 0 0 0 0 0 0 0 0 127 0" result="hardAlpha"/>
<feOffset dx="0.490013" dy="0.245006"/>
<feComposite in2="hardAlpha" operator="arithmetic" k2="-1" k3="1"/>
<feColorMatrix type="matrix" values="0 0 0 0 0.733333 0 0 0 0 0.733333 0 0 0 0 0.733333 0 0 0 0.25 0"/>
<feBlend mode="normal" in2="shape" result="effect2_innerShadow_86_13951"/>
</filter>
<filter id="filter20_i_86_13951" x="117.442" y="16.5684" width="11.3269" height="11.1948" filterUnits="userSpaceOnUse" color-interpolation-filters="sRGB">
<feFlood flood-opacity="0" result="BackgroundImageFix"/>
<feBlend mode="normal" in="SourceGraphic" in2="BackgroundImageFix" result="shape"/>
<feColorMatrix in="SourceAlpha" type="matrix" values="0 0 0 0 0 0 0 0 0 0 0 0 0 0 0 0 0 0 127 0" result="hardAlpha"/>
<feOffset dy="-0.490013"/>
<feComposite in2="hardAlpha" operator="arithmetic" k2="-1" k3="1"/>
<feColorMatrix type="matrix" values="0 0 0 0 0 0 0 0 0 0 0 0 0 0 0 0 0 0 0.2 0"/>
<feBlend mode="normal" in2="shape" result="effect1_innerShadow_86_13951"/>
</filter>
<filter id="filter21_di_86_13951" x="120.747" y="18.5361" width="5.12966" height="4.96218" filterUnits="userSpaceOnUse" color-interpolation-filters="sRGB">
<feFlood flood-opacity="0" result="BackgroundImageFix"/>
<feColorMatrix in="SourceAlpha" type="matrix" values="0 0 0 0 0 0 0 0 0 0 0 0 0 0 0 0 0 0 127 0" result="hardAlpha"/>
<feOffset dx="0.490013" dy="0.490013"/>
<feComposite in2="hardAlpha" operator="out"/>
<feColorMatrix type="matrix" values="0 0 0 0 0 0 0 0 0 0 0 0 0 0 0 0 0 0 0.25 0"/>
<feBlend mode="normal" in2="BackgroundImageFix" result="effect1_dropShadow_86_13951"/>
<feBlend mode="normal" in="SourceGraphic" in2="effect1_dropShadow_86_13951" result="shape"/>
<feColorMatrix in="SourceAlpha" type="matrix" values="0 0 0 0 0 0 0 0 0 0 0 0 0 0 0 0 0 0 127 0" result="hardAlpha"/>
<feOffset dx="0.490013" dy="0.245006"/>
<feComposite in2="hardAlpha" operator="arithmetic" k2="-1" k3="1"/>
<feColorMatrix type="matrix" values="0 0 0 0 0.733333 0 0 0 0 0.733333 0 0 0 0 0.733333 0 0 0 0.25 0"/>
<feBlend mode="normal" in2="shape" result="effect2_innerShadow_86_13951"/>
</filter>
<linearGradient id="paint0_linear_86_13951" x1="92.6323" y1="48.5567" x2="90.2333" y2="66.1506" gradientUnits="userSpaceOnUse">
<stop stop-color="#9F9AC0"/>
<stop offset="0.901058" stop-color="#36334C"/>
</linearGradient>
<linearGradient id="paint1_linear_86_13951" x1="108.257" y1="64.8986" x2="103.94" y2="72.3207" gradientUnits="userSpaceOnUse">
<stop stop-color="#FFD2B9"/>
<stop offset="0.459401" stop-color="#9F8064"/>
<stop offset="1" stop-color="#A77E4D"/>
</linearGradient>
<linearGradient id="paint2_linear_86_13951" x1="97.6754" y1="63.8546" x2="98.053" y2="67.169" gradientUnits="userSpaceOnUse">
<stop stop-color="white"/>
<stop offset="1" stop-color="#E4E4E4"/>
</linearGradient>
<linearGradient id="paint3_linear_86_13951" x1="100.801" y1="67.3045" x2="99.2606" y2="72.6229" gradientUnits="userSpaceOnUse">
<stop stop-color="#C7915F"/>
<stop offset="1" stop-color="#8F6943"/>
</linearGradient>
<linearGradient id="paint4_linear_86_13951" x1="67.5523" y1="48.5557" x2="69.9513" y2="66.1497" gradientUnits="userSpaceOnUse">
<stop stop-color="#9F9AC0"/>
<stop offset="0.901058" stop-color="#36334C"/>
</linearGradient>
<linearGradient id="paint5_linear_86_13951" x1="51.9272" y1="64.8976" x2="56.2448" y2="72.3197" gradientUnits="userSpaceOnUse">
<stop stop-color="#FFD2B9"/>
<stop offset="0.459401" stop-color="#9F8064"/>
<stop offset="1" stop-color="#A77E4D"/>
</linearGradient>
<linearGradient id="paint6_linear_86_13951" x1="62.5092" y1="63.8536" x2="62.1315" y2="67.168" gradientUnits="userSpaceOnUse">
<stop stop-color="white"/>
<stop offset="1" stop-color="#E4E4E4"/>
</linearGradient>
<linearGradient id="paint7_linear_86_13951" x1="59.3837" y1="67.3035" x2="60.9239" y2="72.6219" gradientUnits="userSpaceOnUse">
<stop stop-color="#C7915F"/>
<stop offset="1" stop-color="#8F6943"/>
</linearGradient>
<linearGradient id="paint8_linear_86_13951" x1="61.0336" y1="28.398" x2="61.0336" y2="35.4694" gradientUnits="userSpaceOnUse">
<stop stop-color="white"/>
<stop offset="1" stop-color="#E6B28A"/>
</linearGradient>
<linearGradient id="paint9_linear_86_13951" x1="52.9498" y1="30.9361" x2="54.7455" y2="38.5058" gradientUnits="userSpaceOnUse">
<stop stop-color="#A7A2C9"/>
<stop offset="1" stop-color="#312D46"/>
</linearGradient>
<linearGradient id="paint10_linear_86_13951" x1="81.994" y1="4.9148" x2="87.1405" y2="53.01" gradientUnits="userSpaceOnUse">
<stop stop-color="#FF6464"/>
<stop offset="1" stop-color="#A92837"/>
</linearGradient>
<linearGradient id="paint11_linear_86_13951" x1="76.3687" y1="5.51862" x2="81.5152" y2="53.6139" gradientUnits="userSpaceOnUse">
<stop stop-color="white"/>
<stop offset="1" stop-color="#FFA4A4"/>
</linearGradient>
<linearGradient id="paint12_linear_86_13951" x1="76.3687" y1="5.51862" x2="81.5152" y2="53.6139" gradientUnits="userSpaceOnUse">
<stop stop-color="#FF99A6"/>
<stop offset="1" stop-color="#FF4545"/>
</linearGradient>
<linearGradient id="paint13_linear_86_13951" x1="76.1419" y1="10.2217" x2="76.4548" y2="13.1451" gradientUnits="userSpaceOnUse">
<stop stop-color="#6C6C6C"/>
<stop offset="1"/>
</linearGradient>
<linearGradient id="paint14_linear_86_13951" x1="79.9998" y1="46.2769" x2="80.2866" y2="48.9567" gradientUnits="userSpaceOnUse">
<stop stop-color="#6C6C6C"/>
<stop offset="1"/>
</linearGradient>
<linearGradient id="paint15_linear_86_13951" x1="61.8423" y1="30.9648" x2="64.0348" y2="30.7301" gradientUnits="userSpaceOnUse">
<stop stop-color="#6C6C6C"/>
<stop offset="1"/>
</linearGradient>
<linearGradient id="paint16_linear_86_13951" x1="93.5125" y1="27.5766" x2="95.4614" y2="27.368" gradientUnits="userSpaceOnUse">
<stop stop-color="#6C6C6C"/>
<stop offset="1"/>
</linearGradient>
<linearGradient id="paint17_linear_86_13951" x1="65.3549" y1="40.6996" x2="66.9852" y2="39.4001" gradientUnits="userSpaceOnUse">
<stop stop-color="#6C6C6C"/>
<stop offset="1"/>
</linearGradient>
<linearGradient id="paint18_linear_86_13951" x1="91.1146" y1="20.1659" x2="92.745" y2="18.8664" gradientUnits="userSpaceOnUse">
<stop stop-color="#6C6C6C"/>
<stop offset="1"/>
</linearGradient>
<linearGradient id="paint19_linear_86_13951" x1="71.9186" y1="45.2217" x2="72.6537" y2="43.2707" gradientUnits="userSpaceOnUse">
<stop stop-color="#6C6C6C"/>
<stop offset="1"/>
</linearGradient>
<linearGradient id="paint20_linear_86_13951" x1="83.5343" y1="14.396" x2="84.2695" y2="12.445" gradientUnits="userSpaceOnUse">
<stop stop-color="#6C6C6C"/>
<stop offset="1"/>
</linearGradient>
<linearGradient id="paint21_linear_86_13951" x1="87.3448" y1="45.0365" x2="86.2772" y2="43.2456" gradientUnits="userSpaceOnUse">
<stop stop-color="#6C6C6C"/>
<stop offset="1"/>
</linearGradient>
<linearGradient id="paint22_linear_86_13951" x1="69.282" y1="16.2718" x2="68.2145" y2="14.481" gradientUnits="userSpaceOnUse">
<stop stop-color="#6C6C6C"/>
<stop offset="1"/>
</linearGradient>
<linearGradient id="paint23_linear_86_13951" x1="92.9923" y1="37.0496" x2="91.0815" y2="36.2154" gradientUnits="userSpaceOnUse">
<stop stop-color="#6C6C6C"/>
<stop offset="1"/>
</linearGradient>
<linearGradient id="paint24_linear_86_13951" x1="64.8314" y1="23.1193" x2="63.0751" y2="21.9959" gradientUnits="userSpaceOnUse">
<stop stop-color="#6C6C6C"/>
<stop offset="1"/>
</linearGradient>
<linearGradient id="paint25_linear_86_13951" x1="1.66792" y1="0" x2="1.66792" y2="5.42076" gradientUnits="userSpaceOnUse">
<stop stop-color="#A4948C"/>
<stop offset="1" stop-color="#332721"/>
</linearGradient>
<linearGradient id="paint26_linear_86_13951" x1="1.66792" y1="0" x2="1.66792" y2="5.42076" gradientUnits="userSpaceOnUse">
<stop stop-color="#A4948C"/>
<stop offset="1" stop-color="#332721"/>
</linearGradient>
<linearGradient id="paint27_linear_86_13951" x1="2.35713" y1="0" x2="2.35713" y2="8.75203" gradientUnits="userSpaceOnUse">
<stop stop-color="white"/>
<stop offset="1" stop-color="#E6B28A"/>
</linearGradient>
<linearGradient id="paint28_linear_86_13951" x1="110.826" y1="28.191" x2="110.673" y2="35.9692" gradientUnits="userSpaceOnUse">
<stop stop-color="#A7A2C9"/>
<stop offset="1" stop-color="#312D46"/>
</linearGradient>
<linearGradient id="paint29_linear_86_13951" x1="45.4621" y1="29.4418" x2="45.4621" y2="34.0707" gradientUnits="userSpaceOnUse">
<stop stop-color="white"/>
<stop offset="1" stop-color="#DBDBDB"/>
</linearGradient>
<linearGradient id="paint30_linear_86_13951" x1="36.3389" y1="21.749" x2="40.5702" y2="32.5076" gradientUnits="userSpaceOnUse">
<stop stop-color="white"/>
<stop offset="1" stop-color="#E4E4E4"/>
</linearGradient>
<linearGradient id="paint31_linear_86_13951" x1="38.1873" y1="26.3547" x2="40.2968" y2="29.2279" gradientUnits="userSpaceOnUse">
<stop stop-color="#F4F4F4"/>
<stop offset="1" stop-color="white"/>
</linearGradient>
<linearGradient id="paint32_linear_86_13951" x1="1.54296" y1="0" x2="1.54296" y2="4.62889" gradientUnits="userSpaceOnUse">
<stop stop-color="white"/>
<stop offset="1" stop-color="#DBDBDB"/>
</linearGradient>
<linearGradient id="paint33_linear_86_13951" x1="125.633" y1="14.9075" x2="123.774" y2="26.3179" gradientUnits="userSpaceOnUse">
<stop stop-color="white"/>
<stop offset="1" stop-color="#E4E4E4"/>
</linearGradient>
<linearGradient id="paint34_linear_86_13951" x1="124.802" y1="19.803" x2="123.347" y2="23.0578" gradientUnits="userSpaceOnUse">
<stop stop-color="#F4F4F4"/>
<stop offset="1" stop-color="white"/>
</linearGradient>
<linearGradient id="paint35_linear_86_13951" x1="1.25094" y1="0" x2="1.25094" y2="3.75283" gradientUnits="userSpaceOnUse">
<stop stop-color="#A4948C"/>
<stop offset="1" stop-color="#332721"/>
</linearGradient>
</defs>
</svg>
