<svg width="24" height="25" viewBox="0 0 24 25" fill="none" xmlns="http://www.w3.org/2000/svg">
<path d="M2.45759 5.90673C2.32495 6.11793 2.41154 6.38824 2.62359 6.5195L11.4735 11.998C11.796 12.1977 12.2037 12.1977 12.5262 11.998L21.3764 6.51941C21.5884 6.38814 21.675 6.11782 21.5423 5.90662C21.0117 5.06167 20.0714 4.5 19 4.5H5C3.92853 4.5 2.98825 5.06171 2.45759 5.90673Z" fill="white"/>
<path d="M22 9.38312C22 8.99137 21.5699 8.75179 21.2368 8.95799L13.579 13.6986C12.6114 14.2975 11.3883 14.2975 10.4208 13.6986L2.76318 8.95812C2.43008 8.75192 2 8.9915 2 9.38326V17.5C2 19.1569 3.34315 20.5 5 20.5H19C20.6569 20.5 22 19.1569 22 17.5V9.38312Z" fill="white"/>
</svg>
