<svg width="22" height="26" viewBox="0 0 22 26" fill="none" xmlns="http://www.w3.org/2000/svg">
<path fill-rule="evenodd" clip-rule="evenodd" d="M19.6797 8.85384C19.6797 10.4792 20.1093 11.4372 21.0547 12.5411C21.7711 13.3544 22 14.3984 22 15.5311C22 16.6624 21.6283 17.7364 20.8836 18.6084C19.9087 19.6537 18.5338 20.321 17.1305 20.437C15.0971 20.6104 13.0624 20.7564 11.0006 20.7564C8.93762 20.7564 6.90418 20.669 4.87074 20.437C3.46624 20.321 2.09132 19.6537 1.11768 18.6084C0.37299 17.7364 0 16.6624 0 15.5311C0 14.3984 0.230225 13.3544 0.945338 12.5411C1.92026 11.4372 2.32154 10.4792 2.32154 8.85384V8.30251C2.32154 6.12586 2.86431 4.70256 3.98199 3.30924C5.64373 1.27726 8.3074 0.0585938 10.9428 0.0585938H11.0585C13.7505 0.0585938 16.5003 1.33591 18.1338 3.45522C19.1936 4.81986 19.6797 6.1832 19.6797 8.30251V8.85384ZM7.21313 23.4315C7.21313 22.7798 7.8112 22.4813 8.36426 22.3536C9.0112 22.2167 12.9533 22.2167 13.6003 22.3536C14.1533 22.4813 14.7514 22.7798 14.7514 23.4315C14.7192 24.0519 14.3553 24.6019 13.8524 24.9512C13.2003 25.4595 12.435 25.7815 11.635 25.8975C11.1926 25.9548 10.7578 25.9561 10.3308 25.8975C9.52953 25.7815 8.76426 25.4595 8.11345 24.9499C7.60927 24.6019 7.24529 24.0519 7.21313 23.4315Z" fill="white"/>
</svg>
