<svg width="24" height="25" viewBox="0 0 24 25" fill="none" xmlns="http://www.w3.org/2000/svg">
<path fill-rule="evenodd" clip-rule="evenodd" d="M24 12.5C24 19.1274 18.6274 24.5 12 24.5C5.37258 24.5 0 19.1274 0 12.5C0 5.87258 5.37258 0.5 12 0.5C18.6274 0.5 24 5.87258 24 12.5ZM13.2 19.7C13.2 20.3627 12.6627 20.9 12 20.9C11.3373 20.9 10.8 20.3627 10.8 19.7C10.8 19.0373 11.3373 18.5 12 18.5C12.6627 18.5 13.2 19.0373 13.2 19.7ZM9.73623 9.2999C10.0663 8.36612 10.9569 7.7 12 7.7C13.3255 7.7 14.4 8.77452 14.4 10.1C14.4 11.4255 13.3255 12.5 12 12.5C11.3372 12.5 10.8 13.0373 10.8 13.7V15.5C10.8 16.1627 11.3372 16.7 12 16.7C12.6627 16.7 13.2 16.1627 13.2 15.5V14.7488C15.2702 14.2159 16.8 12.3366 16.8 10.1C16.8 7.44903 14.6509 5.3 12 5.3C9.90815 5.3 8.13178 6.63742 7.47341 8.5001C7.25256 9.12496 7.58006 9.81055 8.20492 10.0314C8.82978 10.2523 9.51537 9.92476 9.73623 9.2999Z" fill="white"/>
</svg>
