<svg width="24" height="25" viewBox="0 0 24 25" fill="none" xmlns="http://www.w3.org/2000/svg">
<path d="M17.9184 14.82C17.6594 15.071 17.5404 15.434 17.5994 15.79L18.4884 20.71C18.5634 21.127 18.3874 21.549 18.0384 21.79C17.6964 22.04 17.2414 22.07 16.8684 21.87L12.4394 19.56C12.2854 19.478 12.1144 19.434 11.9394 19.429H11.6684C11.5744 19.443 11.4824 19.473 11.3984 19.519L6.96839 21.84C6.74939 21.95 6.50139 21.989 6.25839 21.95C5.66639 21.838 5.27139 21.274 5.36839 20.679L6.25839 15.759C6.31739 15.4 6.19839 15.035 5.93939 14.78L2.32839 11.28C2.02639 10.987 1.92139 10.547 2.05939 10.15C2.19339 9.754 2.53539 9.465 2.94839 9.4L7.91839 8.679C8.29639 8.64 8.62839 8.41 8.79839 8.07L10.9884 3.58C11.0404 3.48 11.1074 3.388 11.1884 3.31L11.2784 3.24C11.3254 3.188 11.3794 3.145 11.4394 3.11L11.5484 3.07L11.7184 3H12.1394C12.5154 3.039 12.8464 3.264 13.0194 3.6L15.2384 8.07C15.3984 8.397 15.7094 8.624 16.0684 8.679L21.0384 9.4C21.4584 9.46 21.8094 9.75 21.9484 10.15C22.0794 10.551 21.9664 10.991 21.6584 11.28L17.9184 14.82Z" fill="white"/>
</svg>
