<svg width="23" height="23" viewBox="0 0 23 23" fill="none" xmlns="http://www.w3.org/2000/svg">
<path d="M0 8.36328V17.7724C0.000489625 19.1586 0.541284 20.4879 1.50352 21.4681C2.46575 22.4483 3.77068 22.9991 5.13148 22.9996H17.447C18.8079 22.9991 20.1128 22.4483 21.075 21.4681C22.0373 20.4879 22.578 19.1586 22.5785 17.7724V8.36328H0ZM14.871 15.5456L8.71326 19.0792C8.56087 19.1702 8.38701 19.2172 8.21038 19.2151C7.93938 19.2112 7.68057 19.0998 7.48893 18.9046C7.29729 18.7093 7.18793 18.4457 7.18408 18.1696V11.1024C7.18556 10.9205 7.23342 10.7421 7.32296 10.5848C7.4125 10.4274 7.54064 10.2965 7.69483 10.2048C7.84902 10.113 8.02396 10.0637 8.2025 10.0616C8.38104 10.0595 8.55704 10.1048 8.71326 10.1928L14.871 13.7265C15.0298 13.817 15.1619 13.949 15.2539 14.1089C15.3459 14.2687 15.3944 14.4507 15.3944 14.636C15.3944 14.8213 15.3459 15.0033 15.2539 15.1631C15.1619 15.323 15.0298 15.455 14.871 15.5456Z" fill="#395E66"/>
<path d="M6.27068 6.27356H3.7097e-06V5.22811C-0.00102421 4.35798 0.211581 3.50141 0.618472 2.73635C1.02536 1.97128 1.61362 1.32202 2.3297 0.847656L3.55099 2.54129L6.27068 6.27356Z" fill="#395E66"/>
<path d="M15.5177 6.27285H8.82625L5.78841 2.09103L4.31055 0.0733009C4.58135 0.0225691 4.85625 -0.00193417 5.13158 0.000119082H11.002L12.5004 2.09103L15.5177 6.27285Z" fill="#395E66"/>
<path d="M22.5783 5.22727V6.27273H18.0626L15.035 2.09091L13.5264 0H17.4468C18.8076 0.000498765 20.1126 0.551388 21.0748 1.53158C22.037 2.51178 22.5778 3.84107 22.5783 5.22727Z" fill="#395E66"/>
</svg>
