<svg width="16" height="23" viewBox="0 0 16 23" fill="none" xmlns="http://www.w3.org/2000/svg">
<path d="M7.55921 1C6.81364 1 6.09861 1.3017 5.57142 1.83874C5.04422 2.37578 4.74805 3.10415 4.74805 3.86364V11.5C4.74805 12.2595 5.04422 12.9879 5.57142 13.5249C6.09861 14.0619 6.81364 14.3636 7.55921 14.3636C8.30477 14.3636 9.0198 14.0619 9.547 13.5249C10.0742 12.9879 10.3704 12.2595 10.3704 11.5V3.86364C10.3704 3.10415 10.0742 2.37578 9.547 1.83874C9.0198 1.3017 8.30477 1 7.55921 1Z" fill="#395E66" stroke="#395E66" stroke-width="0.954545" stroke-linecap="round" stroke-linejoin="round"/>
<path d="M14.1188 9.5918V11.5009C14.1188 13.273 13.4277 14.9726 12.1976 16.2256C10.9674 17.4787 9.29903 18.1827 7.55938 18.1827C5.81972 18.1827 4.15132 17.4787 2.9212 16.2256C1.69108 14.9726 1 13.273 1 11.5009V9.5918" stroke="#395E66" stroke-width="1.90909" stroke-linecap="round" stroke-linejoin="round"/>
<path d="M7.55908 18.1816V21.9998" stroke="#395E66" stroke-width="1.90909" stroke-linecap="round" stroke-linejoin="round"/>
<path d="M3.81104 22H11.3075" stroke="#395E66" stroke-width="1.90909" stroke-linecap="round" stroke-linejoin="round"/>
</svg>
