<svg width="14" height="14" viewBox="0 0 14 14" fill="none" xmlns="http://www.w3.org/2000/svg">
<g clip-path="url(#clip0_1667_1896)">
<path d="M12.6808 4.85433C12.6743 4.82028 12.6567 4.78937 12.6307 4.76649C12.6047 4.7436 12.5718 4.73007 12.5372 4.72803C12.5026 4.72598 12.4683 4.73555 12.4398 4.75521C12.4113 4.77488 12.3901 4.8035 12.3797 4.83655V4.83655C12.3698 4.86793 12.3501 4.89534 12.3236 4.91486C12.2971 4.93437 12.2651 4.94499 12.2322 4.94517H11.7957C11.7675 4.9452 11.7398 4.93749 11.7156 4.92288L11.0842 4.54426C11.06 4.52965 11.0323 4.52194 11.004 4.52197H9.99401C9.96326 4.52194 9.93321 4.53108 9.90768 4.54821L8.66206 5.37853C8.64053 5.39287 8.62291 5.41234 8.61079 5.4352C8.59868 5.45806 8.59244 5.48357 8.59266 5.50944V6.68706C8.59262 6.71528 8.60027 6.74298 8.61479 6.76719C8.6293 6.79139 8.65013 6.81119 8.67504 6.82446L10.3083 7.69625C10.3328 7.70945 10.3534 7.72896 10.3679 7.75277C10.3824 7.77657 10.3902 7.80381 10.3907 7.83167L10.3983 8.4944C10.3987 8.52184 10.4064 8.54868 10.4205 8.5722C10.4346 8.59573 10.4547 8.61512 10.4787 8.62842L11.135 8.99152C11.1593 9.00503 11.1795 9.02478 11.1937 9.04873C11.2078 9.07269 11.2153 9.09998 11.2154 9.12779V10.499C11.2154 10.5289 11.224 10.5583 11.2403 10.5834C11.2565 10.6086 11.2797 10.6285 11.307 10.6409C11.3343 10.6532 11.3646 10.6574 11.3942 10.6529C11.4239 10.6485 11.4516 10.6356 11.4741 10.6158C11.7387 10.3827 12.1182 10.0425 12.1687 9.9646C12.2522 9.83538 12.3305 9.70306 12.4037 9.56764C12.5552 9.28704 12.6836 8.99453 12.7874 8.69303C13.1451 7.65732 12.8625 5.79552 12.6808 4.85433Z" fill="#395E66"/>
<path d="M8.09602 8.09941L6.3657 6.8016C6.34617 6.78695 6.32241 6.77903 6.29799 6.77903H5.47699C5.46294 6.77905 5.44903 6.77629 5.43606 6.77091C5.42308 6.76554 5.4113 6.75765 5.40138 6.74771L5.01429 6.36063C5.0038 6.35015 4.99135 6.34184 4.97765 6.33618C4.96395 6.33051 4.94927 6.32761 4.93445 6.32762H3.43378C3.41264 6.32762 3.39196 6.32135 3.37438 6.3096C3.35679 6.29785 3.34309 6.28115 3.33499 6.26161C3.3269 6.24207 3.32478 6.22057 3.32891 6.19983C3.33303 6.17908 3.34322 6.16003 3.35817 6.14508L3.59573 5.90752C3.60565 5.89758 3.61744 5.8897 3.63041 5.88432C3.64339 5.87895 3.6573 5.87619 3.67134 5.87621H4.5846C4.63379 5.8762 4.68163 5.86014 4.72085 5.83045C4.76006 5.80075 4.7885 5.75907 4.80184 5.71172L4.99623 5.0205C5.00038 5.00564 5.00752 4.9918 5.01723 4.97981C5.02693 4.96782 5.03899 4.95795 5.05266 4.95081L5.82768 4.55188C5.84512 4.54286 5.85974 4.52922 5.86994 4.51245C5.88014 4.49568 5.88553 4.47643 5.88552 4.4568V4.10413C5.88555 4.08225 5.89224 4.0609 5.9047 4.04291L6.31661 3.44987C6.32897 3.43205 6.3465 3.41846 6.36683 3.41093L6.94323 3.19454C6.96362 3.18689 6.98119 3.17321 6.99359 3.15531C7.006 3.13741 7.01264 3.11616 7.01263 3.09438V2.77275C7.01263 2.75511 7.00828 2.73775 6.99996 2.7222C6.99165 2.70665 6.97962 2.69339 6.96495 2.68359L6.38715 2.29933C6.37127 2.28889 6.35292 2.28281 6.33395 2.28172C6.31498 2.28063 6.29606 2.28457 6.27909 2.29312L5.4925 2.68642C5.47451 2.6953 5.45438 2.69893 5.43441 2.69688C5.41445 2.69484 5.39547 2.6872 5.37965 2.67485L5.00667 2.38002C4.99394 2.36978 4.98372 2.35678 4.97679 2.34199C4.96986 2.3272 4.9664 2.31102 4.96667 2.29469C4.96694 2.27836 4.97094 2.26231 4.97836 2.24776C4.98578 2.23321 4.99643 2.22055 5.00949 2.21074L5.3125 1.98757C5.32622 1.97751 5.33733 1.96432 5.34491 1.94908C5.35249 1.93385 5.35631 1.91703 5.35606 1.90002C5.35582 1.88301 5.3515 1.86631 5.34348 1.85131C5.33546 1.8363 5.32397 1.82344 5.30996 1.81378L4.83796 1.48453C4.82162 1.47303 4.80237 1.46635 4.78242 1.46525C4.76247 1.46415 4.74261 1.46868 4.7251 1.47832C4.55441 1.57171 4.05363 1.8482 3.87589 1.97262C3.0535 2.54934 2.39166 3.32614 1.95287 4.22968C1.90152 4.33576 1.83804 4.44382 1.83184 4.56034C1.82563 4.67686 1.73422 4.93699 1.69613 5.04222C1.69099 5.05645 1.68894 5.0716 1.69011 5.08668C1.69127 5.10176 1.69564 5.11642 1.7029 5.12968L2.70983 6.97991C2.71889 6.99672 2.73235 7.01077 2.74877 7.02053L3.80817 7.65646C3.82192 7.66465 3.83364 7.67582 3.84248 7.68915C3.85132 7.70249 3.85705 7.71764 3.85924 7.73348L4.0714 9.27223C4.07348 9.28698 4.07858 9.30114 4.0864 9.31381C4.09422 9.32648 4.10458 9.3374 4.11683 9.34587L4.94348 9.91409C4.96742 9.93055 4.9841 9.95561 4.99003 9.98405L5.42846 12.0662C5.43092 12.0784 5.4356 12.0901 5.44229 12.1006C5.48348 12.1672 5.64768 12.411 5.84573 12.4471C5.8274 12.4521 5.81103 12.4637 5.79269 12.4691C5.84027 12.4774 5.88736 12.4884 5.93376 12.5018C5.99019 12.517 6.04661 12.53 6.10304 12.5421C6.19135 12.5596 6.20009 12.5732 6.24241 12.4948C6.29884 12.3898 6.36345 12.3537 6.41169 12.3407C6.4316 12.3361 6.44981 12.326 6.46424 12.3115C6.47866 12.2971 6.48871 12.2788 6.49323 12.2589L6.77734 10.9419C6.78331 10.9143 6.79942 10.8899 6.82248 10.8736L8.09207 9.97362C8.10683 9.96318 8.11886 9.94935 8.12716 9.9333C8.13545 9.91724 8.13977 9.89943 8.13975 9.88136V8.18969C8.13992 8.17229 8.13606 8.15509 8.12847 8.13942C8.12088 8.12376 8.10978 8.11007 8.09602 8.09941V8.09941Z" fill="#395E66"/>
<path d="M7.4076 0.9104C7.4076 0.9104 7.30463 0.916325 7.28375 0.916889C7.13083 0.921404 6.97829 0.931936 6.82613 0.948488C6.27143 1.00866 5.72818 1.14785 5.21289 1.36181C5.28145 1.40921 5.16351 1.45266 5.16351 1.45266L5.34803 1.81322H6.3355L7.01262 2.15178L7.6051 1.81322L7.4076 0.9104Z" fill="#395E66"/>
<path d="M10.0097 2.94373L10.4642 2.54875C10.4785 2.5364 10.4894 2.52069 10.496 2.50304C10.5026 2.48539 10.5047 2.46638 10.502 2.44773C10.4994 2.42907 10.4921 2.41138 10.4809 2.39625C10.4697 2.38113 10.4548 2.36905 10.4377 2.36113L9.90703 2.11483C9.88007 2.10225 9.84924 2.10083 9.82124 2.11087C9.79324 2.12091 9.77033 2.1416 9.7575 2.16843L9.53885 2.62577C9.52695 2.65077 9.52465 2.67928 9.5324 2.70586C9.54016 2.73244 9.55741 2.75525 9.58089 2.76994L9.876 2.95445C9.8965 2.96721 9.92056 2.97305 9.94463 2.97112C9.9687 2.96919 9.99152 2.95959 10.0097 2.94373Z" fill="#395E66"/>
<path d="M12.1373 3.52514L11.9728 3.27123C11.9703 3.26728 11.968 3.26333 11.9657 3.25909C11.9361 3.19844 11.6909 2.7033 11.4861 2.51116C11.3324 2.36587 11.2886 2.40762 11.2765 2.43978C11.2696 2.45757 11.258 2.47316 11.2429 2.48493L10.4293 3.14257C10.4092 3.15879 10.3842 3.16765 10.3584 3.16768H9.93722C9.92239 3.16767 9.90771 3.17058 9.89401 3.17624C9.88031 3.18191 9.86786 3.19022 9.85737 3.20069L9.51882 3.53925C9.50832 3.54973 9.5 3.56218 9.49432 3.57588C9.48864 3.58958 9.48572 3.60426 9.48572 3.61909C9.48572 3.63392 9.48864 3.64861 9.49432 3.66231C9.5 3.67601 9.50832 3.68846 9.51882 3.69894L9.85737 4.0375C9.86786 4.04797 9.88031 4.05628 9.89401 4.06194C9.90771 4.06761 9.92239 4.07052 9.93722 4.0705H12.058C12.0732 4.07052 12.0883 4.06745 12.1023 4.06148C12.1163 4.05551 12.129 4.04677 12.1395 4.03577C12.1501 4.02478 12.1583 4.01177 12.1637 3.99752C12.1691 3.98327 12.1715 3.96807 12.1708 3.95286L12.1553 3.58185C12.1545 3.56167 12.1483 3.54209 12.1373 3.52514Z" fill="#395E66"/>
<path d="M7.23835 1.58776C8.43937 1.58766 9.60328 2.004 10.5317 2.76585C11.4602 3.5277 12.0958 4.58791 12.3302 5.76584C12.5646 6.94377 12.3833 8.16654 11.8172 9.22579C11.2511 10.285 10.3353 11.1152 9.22572 11.5749C8.11615 12.0346 6.88151 12.0954 5.73218 11.7468C4.58284 11.3982 3.58993 10.6619 2.92261 9.66337C2.25529 8.6648 1.95486 7.46573 2.07251 6.27048C2.19015 5.07524 2.7186 3.95776 3.5678 3.10845C4.04866 2.62484 4.62068 2.24143 5.25073 1.9804C5.88079 1.71937 6.55636 1.58591 7.23835 1.58776V1.58776ZM7.23835 0.459229C3.74837 0.459229 0.918579 3.28902 0.918579 6.779C0.918579 10.269 3.74837 13.0988 7.23835 13.0988C10.7283 13.0988 13.5581 10.269 13.5581 6.779C13.5581 3.28902 10.7283 0.459229 7.23835 0.459229Z" fill="#395E66"/>
</g>
<defs>
<clipPath id="clip0_1667_1896">
<rect width="12.6395" height="12.6395" fill="white" transform="translate(0.918579 0.459229)"/>
</clipPath>
</defs>
</svg>
